<svg
  width="656"
  height="145"
  viewBox="0 0 656 145"
  fill="none"
  xmlns="http://www.w3.org/2000/svg"
>
  <rect x="32.3906" y="0.5" width="144" height="144" stroke="#FF6B82" />
  <path
    fill-rule="evenodd"
    clip-rule="evenodd"
    d="M38.8906 1H37.8906V6H32.8906V7H37.8906V12H32.8906V13H37.8906V18H32.8906V19H37.8906V24H32.8906V25H37.8906V30H32.8906V31H37.8906V36H32.8906V37H37.8906V42H32.8906V43H37.8906V48H32.8906V49H37.8906V54H32.8906V55H37.8906V60H32.8906V61H37.8906V66H32.8906V67H37.8906V72H32.8906V73H37.8906V78H32.8906V79H37.8906V84H32.8906V85H37.8906V90H32.8906V91H37.8906V96H32.8906V97H37.8906V102H32.8906V103H37.8906V108H32.8906V109H37.8906V114H32.8906V115H37.8906V120H32.8906V121H37.8906V126H32.8906V127H37.8906V132H32.8906V133H37.8906V138H32.8906V139H37.8906V144H38.8906V139H43.8906V144H44.8906V139H49.8906V144H50.8906V139H55.8906V144H56.8906V139H61.8906V144H62.8906V139H67.8906V144H68.8906V139H73.8906V144H74.8906V139H79.8906V144H80.8906V139H85.8906V144H86.8906V139H91.8906V144H92.8906V139H97.8906V144H98.8906V139H103.891V144H104.891V139H109.891V144H110.891V139H115.891V144H116.891V139H121.891V144H122.891V139H127.891V144H128.891V139H133.891V144H134.891V139H139.891V144H140.891V139H145.891V144H146.891V139H151.891V144H152.891V139H157.891V144H158.891V139H163.891V144H164.891V139H169.891V144H170.891V139H175.891V138H170.891V133H175.891V132H170.891V127H175.891V126H170.891V121H175.891V120H170.891V115H175.891V114H170.891V109H175.891V108H170.891V103H175.891V102H170.891V97H175.891V96H170.891V91H175.891V90H170.891V85H175.891V84H170.891V79H175.891V78H170.891V73H175.891V72H170.891V67H175.891V66H170.891V61H175.891V60H170.891V55H175.891V54H170.891V49H175.891V48H170.891V43H175.891V42H170.891V37H175.891V36H170.891V31H175.891V30H170.891V25H175.891V24H170.891V19H175.891V18H170.891V13H175.891V12H170.891V7H175.891V6H170.891V1H169.891V6H164.891V1H163.891V6H158.891V1H157.891V6H152.891V1H151.891V6H146.891V1H145.891V6H140.891V1H139.891V6H134.891V1H133.891V6H128.891V1H127.891V6H122.891V1H121.891V6H116.891V1H115.891V6H110.891V1H109.891V6H104.891V1H103.891V6H98.8906V1H97.8906V6H92.8906V1H91.8906V6H86.8906V1H85.8906V6H80.8906V1H79.8906V6H74.8906V1H73.8906V6H68.8906V1H67.8906V6H62.8906V1H61.8906V6H56.8906V1H55.8906V6H50.8906V1H49.8906V6H44.8906V1H43.8906V6H38.8906V1ZM38.8906 7V12H43.8906V7H38.8906ZM44.8906 7V12H49.8906V7H44.8906ZM50.8906 7V12H55.8906V7H50.8906ZM56.8906 7V12H61.8906V7H56.8906ZM62.8906 7V12H67.8906V7H62.8906ZM68.8906 7V12H73.8906V7H68.8906ZM74.8906 7V12H79.8906V7H74.8906ZM80.8906 7V12H85.8906V7H80.8906ZM86.8906 7V12H91.8906V7H86.8906ZM92.8906 7V12H97.8906V7H92.8906ZM98.8906 7V12H103.891V7H98.8906ZM104.891 7V12H109.891V7H104.891ZM110.891 7V12H115.891V7H110.891ZM116.891 7V12H121.891V7H116.891ZM122.891 7V12H127.891V7H122.891ZM128.891 7V12H133.891V7H128.891ZM134.891 7V12H139.891V7H134.891ZM140.891 7V12H145.891V7H140.891ZM146.891 7V12H151.891V7H146.891ZM152.891 7V12H157.891V7H152.891ZM158.891 7V12H163.891V7H158.891ZM164.891 7V12H169.891V7H164.891ZM169.891 13H164.891V18H169.891V13ZM169.891 19H164.891V24H169.891V19ZM169.891 25H164.891V30H169.891V25ZM169.891 31H164.891V36H169.891V31ZM169.891 37H164.891V42H169.891V37ZM169.891 43H164.891V48H169.891V43ZM169.891 49H164.891V54H169.891V49ZM169.891 55H164.891V60H169.891V55ZM169.891 61H164.891V66H169.891V61ZM169.891 67H164.891V72H169.891V67ZM169.891 73H164.891V78H169.891V73ZM169.891 79H164.891V84H169.891V79ZM169.891 85H164.891V90H169.891V85ZM169.891 91H164.891V96H169.891V91ZM169.891 97H164.891V102H169.891V97ZM169.891 103H164.891V108H169.891V103ZM169.891 109H164.891V114H169.891V109ZM169.891 115H164.891V120H169.891V115ZM169.891 121H164.891V126H169.891V121ZM169.891 127H164.891V132H169.891V127ZM169.891 133H164.891V138H169.891V133ZM163.891 138V133H158.891V138H163.891ZM157.891 138V133H152.891V138H157.891ZM151.891 138V133H146.891V138H151.891ZM145.891 138V133H140.891V138H145.891ZM139.891 138V133H134.891V138H139.891ZM133.891 138V133H128.891V138H133.891ZM127.891 138V133H122.891V138H127.891ZM121.891 138V133H116.891V138H121.891ZM115.891 138V133H110.891V138H115.891ZM109.891 138V133H104.891V138H109.891ZM103.891 138V133H98.8906V138H103.891ZM97.8906 138V133H92.8906V138H97.8906ZM91.8906 138V133H86.8906V138H91.8906ZM85.8906 138V133H80.8906V138H85.8906ZM79.8906 138V133H74.8906V138H79.8906ZM73.8906 138V133H68.8906V138H73.8906ZM67.8906 138V133H62.8906V138H67.8906ZM61.8906 138V133H56.8906V138H61.8906ZM55.8906 138V133H50.8906V138H55.8906ZM49.8906 138V133H44.8906V138H49.8906ZM43.8906 138V133H38.8906V138H43.8906ZM38.8906 132H43.8906V127H38.8906V132ZM38.8906 126H43.8906V121H38.8906V126ZM38.8906 120H43.8906V115H38.8906V120ZM38.8906 114H43.8906V109H38.8906V114ZM38.8906 108H43.8906V103H38.8906V108ZM38.8906 102H43.8906V97H38.8906V102ZM38.8906 96H43.8906V91H38.8906V96ZM38.8906 90H43.8906V85H38.8906V90ZM38.8906 84H43.8906V79H38.8906V84ZM38.8906 78H43.8906V73H38.8906V78ZM38.8906 72H43.8906V67H38.8906V72ZM38.8906 66H43.8906V61H38.8906V66ZM38.8906 60H43.8906V55H38.8906V60ZM38.8906 54H43.8906V49H38.8906V54ZM38.8906 48H43.8906V43H38.8906V48ZM38.8906 42H43.8906V37H38.8906V42ZM38.8906 36H43.8906V31H38.8906V36ZM38.8906 30H43.8906V25H38.8906V30ZM38.8906 24H43.8906V19H38.8906V24ZM38.8906 18H43.8906V13H38.8906V18ZM44.8906 13V18H49.8906V13H44.8906ZM50.8906 13V18H55.8906V13H50.8906ZM56.8906 13V18H61.8906V13H56.8906ZM62.8906 13V18H67.8906V13H62.8906ZM68.8906 13V18H73.8906V13H68.8906ZM74.8906 13V18H79.8906V13H74.8906ZM80.8906 13V18H85.8906V13H80.8906ZM86.8906 13V18H91.8906V13H86.8906ZM92.8906 13V18H97.8906V13H92.8906ZM98.8906 13V18H103.891V13H98.8906ZM104.891 13V18H109.891V13H104.891ZM110.891 13V18H115.891V13H110.891ZM116.891 13V18H121.891V13H116.891ZM122.891 13V18H127.891V13H122.891ZM128.891 13V18H133.891V13H128.891ZM134.891 13V18H139.891V13H134.891ZM140.891 13V18H145.891V13H140.891ZM146.891 13V18H151.891V13H146.891ZM152.891 13V18H157.891V13H152.891ZM158.891 13V18H163.891V13H158.891ZM163.891 19H158.891V24H163.891V19ZM163.891 25H158.891V30H163.891V25ZM163.891 31H158.891V36H163.891V31ZM163.891 37H158.891V42H163.891V37ZM163.891 43H158.891V48H163.891V43ZM163.891 49H158.891V54H163.891V49ZM163.891 55H158.891V60H163.891V55ZM163.891 61H158.891V66H163.891V61ZM163.891 67H158.891V72H163.891V67ZM163.891 73H158.891V78H163.891V73ZM163.891 79H158.891V84H163.891V79ZM163.891 85H158.891V90H163.891V85ZM163.891 91H158.891V96H163.891V91ZM163.891 97H158.891V102H163.891V97ZM163.891 103H158.891V108H163.891V103ZM163.891 109H158.891V114H163.891V109ZM163.891 115H158.891V120H163.891V115ZM163.891 121H158.891V126H163.891V121ZM163.891 127H158.891V132H163.891V127ZM157.891 132V127H152.891V132H157.891ZM151.891 132V127H146.891V132H151.891ZM145.891 132V127H140.891V132H145.891ZM139.891 132V127H134.891V132H139.891ZM133.891 132V127H128.891V132H133.891ZM127.891 132V127H122.891V132H127.891ZM121.891 132V127H116.891V132H121.891ZM115.891 132V127H110.891V132H115.891ZM109.891 132V127H104.891V132H109.891ZM103.891 132V127H98.8906V132H103.891ZM97.8906 132V127H92.8906V132H97.8906ZM91.8906 132V127H86.8906V132H91.8906ZM85.8906 132V127H80.8906V132H85.8906ZM79.8906 132V127H74.8906V132H79.8906ZM73.8906 132V127H68.8906V132H73.8906ZM67.8906 132V127H62.8906V132H67.8906ZM61.8906 132V127H56.8906V132H61.8906ZM55.8906 132V127H50.8906V132H55.8906ZM49.8906 132V127H44.8906V132H49.8906ZM44.8906 126H49.8906V121H44.8906V126ZM44.8906 120H49.8906V115H44.8906V120ZM44.8906 114H49.8906V109H44.8906V114ZM44.8906 108H49.8906V103H44.8906V108ZM44.8906 102H49.8906V97H44.8906V102ZM44.8906 96H49.8906V91H44.8906V96ZM44.8906 90H49.8906V85H44.8906V90ZM44.8906 84H49.8906V79H44.8906V84ZM44.8906 78H49.8906V73H44.8906V78ZM44.8906 72H49.8906V67H44.8906V72ZM44.8906 66H49.8906V61H44.8906V66ZM44.8906 60H49.8906V55H44.8906V60ZM44.8906 54H49.8906V49H44.8906V54ZM44.8906 48H49.8906V43H44.8906V48ZM44.8906 42H49.8906V37H44.8906V42ZM44.8906 36H49.8906V31H44.8906V36ZM44.8906 30H49.8906V25H44.8906V30ZM44.8906 24H49.8906V19H44.8906V24ZM50.8906 19V24H55.8906V19H50.8906ZM56.8906 19V24H61.8906V19H56.8906ZM62.8906 19V24H67.8906V19H62.8906ZM68.8906 19V24H73.8906V19H68.8906ZM74.8906 19V24H79.8906V19H74.8906ZM80.8906 19V24H85.8906V19H80.8906ZM86.8906 19V24H91.8906V19H86.8906ZM92.8906 19V24H97.8906V19H92.8906ZM98.8906 19V24H103.891V19H98.8906ZM104.891 19V24H109.891V19H104.891ZM110.891 19V24H115.891V19H110.891ZM116.891 19V24H121.891V19H116.891ZM122.891 19V24H127.891V19H122.891ZM128.891 19V24H133.891V19H128.891ZM134.891 19V24H139.891V19H134.891ZM140.891 19V24H145.891V19H140.891ZM146.891 19V24H151.891V19H146.891ZM152.891 19V24H157.891V19H152.891ZM157.891 25H152.891V30H157.891V25ZM157.891 31H152.891V36H157.891V31ZM157.891 37H152.891V42H157.891V37ZM157.891 43H152.891V48H157.891V43ZM157.891 49H152.891V54H157.891V49ZM157.891 55H152.891V60H157.891V55ZM157.891 61H152.891V66H157.891V61ZM157.891 67H152.891V72H157.891V67ZM157.891 73H152.891V78H157.891V73ZM157.891 79H152.891V84H157.891V79ZM157.891 85H152.891V90H157.891V85ZM157.891 91H152.891V96H157.891V91ZM157.891 97H152.891V102H157.891V97ZM157.891 103H152.891V108H157.891V103ZM157.891 109H152.891V114H157.891V109ZM157.891 115H152.891V120H157.891V115ZM157.891 121H152.891V126H157.891V121ZM151.891 126V121H146.891V126H151.891ZM145.891 126V121H140.891V126H145.891ZM139.891 126V121H134.891V126H139.891ZM133.891 126V121H128.891V126H133.891ZM127.891 126V121H122.891V126H127.891ZM121.891 126V121H116.891V126H121.891ZM115.891 126V121H110.891V126H115.891ZM109.891 126V121H104.891V126H109.891ZM103.891 126V121H98.8906V126H103.891ZM97.8906 126V121H92.8906V126H97.8906ZM91.8906 126V121H86.8906V126H91.8906ZM85.8906 126V121H80.8906V126H85.8906ZM79.8906 126V121H74.8906V126H79.8906ZM73.8906 126V121H68.8906V126H73.8906ZM67.8906 126V121H62.8906V126H67.8906ZM61.8906 126V121H56.8906V126H61.8906ZM55.8906 126V121H50.8906V126H55.8906ZM50.8906 120H55.8906V115H50.8906V120ZM50.8906 114H55.8906V109H50.8906V114ZM50.8906 108H55.8906V103H50.8906V108ZM50.8906 102H55.8906V97H50.8906V102ZM50.8906 96H55.8906V91H50.8906V96ZM50.8906 90H55.8906V85H50.8906V90ZM50.8906 84H55.8906V79H50.8906V84ZM50.8906 78H55.8906V73H50.8906V78ZM50.8906 72H55.8906V67H50.8906V72ZM50.8906 66H55.8906V61H50.8906V66ZM50.8906 60H55.8906V55H50.8906V60ZM50.8906 54H55.8906V49H50.8906V54ZM50.8906 48H55.8906V43H50.8906V48ZM50.8906 42H55.8906V37H50.8906V42ZM50.8906 36H55.8906V31H50.8906V36ZM50.8906 30H55.8906V25H50.8906V30ZM56.8906 25V30H61.8906V25H56.8906ZM62.8906 25V30H67.8906V25H62.8906ZM68.8906 25V30H73.8906V25H68.8906ZM74.8906 25V30H79.8906V25H74.8906ZM80.8906 25V30H85.8906V25H80.8906ZM86.8906 25V30H91.8906V25H86.8906ZM92.8906 25V30H97.8906V25H92.8906ZM98.8906 25V30H103.891V25H98.8906ZM104.891 25V30H109.891V25H104.891ZM110.891 25V30H115.891V25H110.891ZM116.891 25V30H121.891V25H116.891ZM122.891 25V30H127.891V25H122.891ZM128.891 25V30H133.891V25H128.891ZM134.891 25V30H139.891V25H134.891ZM140.891 25V30H145.891V25H140.891ZM146.891 25V30H151.891V25H146.891ZM151.891 31H146.891V36H151.891V31ZM151.891 37H146.891V42H151.891V37ZM151.891 43H146.891V48H151.891V43ZM151.891 49H146.891V54H151.891V49ZM151.891 55H146.891V60H151.891V55ZM151.891 61H146.891V66H151.891V61ZM151.891 67H146.891V72H151.891V67ZM151.891 73H146.891V78H151.891V73ZM151.891 79H146.891V84H151.891V79ZM151.891 85H146.891V90H151.891V85ZM151.891 91H146.891V96H151.891V91ZM151.891 97H146.891V102H151.891V97ZM151.891 103H146.891V108H151.891V103ZM151.891 109H146.891V114H151.891V109ZM151.891 115H146.891V120H151.891V115ZM145.891 120V115H140.891V120H145.891ZM139.891 120V115H134.891V120H139.891ZM133.891 120V115H128.891V120H133.891ZM127.891 120V115H122.891V120H127.891ZM121.891 120V115H116.891V120H121.891ZM115.891 120V115H110.891V120H115.891ZM109.891 120V115H104.891V120H109.891ZM103.891 120V115H98.8906V120H103.891ZM97.8906 120V115H92.8906V120H97.8906ZM91.8906 120V115H86.8906V120H91.8906ZM85.8906 120V115H80.8906V120H85.8906ZM79.8906 120V115H74.8906V120H79.8906ZM73.8906 120V115H68.8906V120H73.8906ZM67.8906 120V115H62.8906V120H67.8906ZM61.8906 120V115H56.8906V120H61.8906ZM56.8906 114H61.8906V109H56.8906V114ZM56.8906 108H61.8906V103H56.8906V108ZM56.8906 102H61.8906V97H56.8906V102ZM56.8906 96H61.8906V91H56.8906V96ZM56.8906 90H61.8906V85H56.8906V90ZM56.8906 84H61.8906V79H56.8906V84ZM56.8906 78H61.8906V73H56.8906V78ZM56.8906 72H61.8906V67H56.8906V72ZM56.8906 66H61.8906V61H56.8906V66ZM56.8906 60H61.8906V55H56.8906V60ZM56.8906 54H61.8906V49H56.8906V54ZM56.8906 48H61.8906V43H56.8906V48ZM56.8906 42H61.8906V37H56.8906V42ZM56.8906 36H61.8906V31H56.8906V36ZM62.8906 31V36H67.8906V31H62.8906ZM68.8906 31V36H73.8906V31H68.8906ZM74.8906 31V36H79.8906V31H74.8906ZM80.8906 31V36H85.8906V31H80.8906ZM86.8906 31V36H91.8906V31H86.8906ZM92.8906 31V36H97.8906V31H92.8906ZM98.8906 31V36H103.891V31H98.8906ZM104.891 31V36H109.891V31H104.891ZM110.891 31V36H115.891V31H110.891ZM116.891 31V36H121.891V31H116.891ZM122.891 31V36H127.891V31H122.891ZM128.891 31V36H133.891V31H128.891ZM134.891 31V36H139.891V31H134.891ZM140.891 31V36H145.891V31H140.891ZM145.891 37H140.891V42H145.891V37ZM145.891 43H140.891V48H145.891V43ZM145.891 49H140.891V54H145.891V49ZM145.891 55H140.891V60H145.891V55ZM145.891 61H140.891V66H145.891V61ZM145.891 67H140.891V72H145.891V67ZM145.891 73H140.891V78H145.891V73ZM145.891 79H140.891V84H145.891V79ZM145.891 85H140.891V90H145.891V85ZM145.891 91H140.891V96H145.891V91ZM145.891 97H140.891V102H145.891V97ZM145.891 103H140.891V108H145.891V103ZM145.891 109H140.891V114H145.891V109ZM139.891 114V109H134.891V114H139.891ZM133.891 114V109H128.891V114H133.891ZM127.891 114V109H122.891V114H127.891ZM121.891 114V109H116.891V114H121.891ZM115.891 114V109H110.891V114H115.891ZM109.891 114V109H104.891V114H109.891ZM103.891 114V109H98.8906V114H103.891ZM97.8906 114V109H92.8906V114H97.8906ZM91.8906 114V109H86.8906V114H91.8906ZM85.8906 114V109H80.8906V114H85.8906ZM79.8906 114V109H74.8906V114H79.8906ZM73.8906 114V109H68.8906V114H73.8906ZM67.8906 114V109H62.8906V114H67.8906ZM62.8906 108H67.8906V103H62.8906V108ZM62.8906 102H67.8906V97H62.8906V102ZM62.8906 96H67.8906V91H62.8906V96ZM62.8906 90H67.8906V85H62.8906V90ZM62.8906 84H67.8906V79H62.8906V84ZM62.8906 78H67.8906V73H62.8906V78ZM62.8906 72H67.8906V67H62.8906V72ZM62.8906 66H67.8906V61H62.8906V66ZM62.8906 60H67.8906V55H62.8906V60ZM62.8906 54H67.8906V49H62.8906V54ZM62.8906 48H67.8906V43H62.8906V48ZM62.8906 42H67.8906V37H62.8906V42ZM68.8906 37V42H73.8906V37H68.8906ZM74.8906 37V42H79.8906V37H74.8906ZM80.8906 37V42H85.8906V37H80.8906ZM86.8906 37V42H91.8906V37H86.8906ZM92.8906 37V42H97.8906V37H92.8906ZM98.8906 37V42H103.891V37H98.8906ZM104.891 37V42H109.891V37H104.891ZM110.891 37V42H115.891V37H110.891ZM116.891 37V42H121.891V37H116.891ZM122.891 37V42H127.891V37H122.891ZM128.891 37V42H133.891V37H128.891ZM134.891 37V42H139.891V37H134.891ZM139.891 43H134.891V48H139.891V43ZM139.891 49H134.891V54H139.891V49ZM139.891 55H134.891V60H139.891V55ZM139.891 61H134.891V66H139.891V61ZM139.891 67H134.891V72H139.891V67ZM139.891 73H134.891V78H139.891V73ZM139.891 79H134.891V84H139.891V79ZM139.891 85H134.891V90H139.891V85ZM139.891 91H134.891V96H139.891V91ZM139.891 97H134.891V102H139.891V97ZM139.891 103H134.891V108H139.891V103ZM133.891 108V103H128.891V108H133.891ZM127.891 108V103H122.891V108H127.891ZM121.891 108V103H116.891V108H121.891ZM115.891 108V103H110.891V108H115.891ZM109.891 108V103H104.891V108H109.891ZM103.891 108V103H98.8906V108H103.891ZM97.8906 108V103H92.8906V108H97.8906ZM91.8906 108V103H86.8906V108H91.8906ZM85.8906 108V103H80.8906V108H85.8906ZM79.8906 108V103H74.8906V108H79.8906ZM73.8906 108V103H68.8906V108H73.8906ZM68.8906 102H73.8906V97H68.8906V102ZM68.8906 96H73.8906V91H68.8906V96ZM68.8906 90H73.8906V85H68.8906V90ZM68.8906 84H73.8906V79H68.8906V84ZM68.8906 78H73.8906V73H68.8906V78ZM68.8906 72H73.8906V67H68.8906V72ZM68.8906 66H73.8906V61H68.8906V66ZM68.8906 60H73.8906V55H68.8906V60ZM68.8906 54H73.8906V49H68.8906V54ZM68.8906 48H73.8906V43H68.8906V48ZM74.8906 43V48H79.8906V43H74.8906ZM80.8906 43V48H85.8906V43H80.8906ZM86.8906 43V48H91.8906V43H86.8906ZM92.8906 43V48H97.8906V43H92.8906ZM98.8906 43V48H103.891V43H98.8906ZM104.891 43V48H109.891V43H104.891ZM110.891 43V48H115.891V43H110.891ZM116.891 43V48H121.891V43H116.891ZM122.891 43V48H127.891V43H122.891ZM128.891 43V48H133.891V43H128.891ZM133.891 49H128.891V54H133.891V49ZM133.891 55H128.891V60H133.891V55ZM133.891 61H128.891V66H133.891V61ZM133.891 67H128.891V72H133.891V67ZM133.891 73H128.891V78H133.891V73ZM133.891 79H128.891V84H133.891V79ZM133.891 85H128.891V90H133.891V85ZM133.891 91H128.891V96H133.891V91ZM133.891 97H128.891V102H133.891V97ZM127.891 102V97H122.891V102H127.891ZM121.891 102V97H116.891V102H121.891ZM115.891 102V97H110.891V102H115.891ZM109.891 102V97H104.891V102H109.891ZM103.891 102V97H98.8906V102H103.891ZM97.8906 102V97H92.8906V102H97.8906ZM91.8906 102V97H86.8906V102H91.8906ZM85.8906 102V97H80.8906V102H85.8906ZM79.8906 102V97H74.8906V102H79.8906ZM74.8906 96H79.8906V91H74.8906V96ZM74.8906 90H79.8906V85H74.8906V90ZM74.8906 84H79.8906V79H74.8906V84ZM74.8906 78H79.8906V73H74.8906V78ZM74.8906 72H79.8906V67H74.8906V72ZM74.8906 66H79.8906V61H74.8906V66ZM74.8906 60H79.8906V55H74.8906V60ZM74.8906 54H79.8906V49H74.8906V54ZM80.8906 49V54H85.8906V49H80.8906ZM86.8906 49V54H91.8906V49H86.8906ZM92.8906 49V54H97.8906V49H92.8906ZM98.8906 49V54H103.891V49H98.8906ZM104.891 49V54H109.891V49H104.891ZM110.891 49V54H115.891V49H110.891ZM116.891 49V54H121.891V49H116.891ZM122.891 49V54H127.891V49H122.891ZM127.891 55H122.891V60H127.891V55ZM127.891 61H122.891V66H127.891V61ZM127.891 67H122.891V72H127.891V67ZM127.891 73H122.891V78H127.891V73ZM127.891 79H122.891V84H127.891V79ZM127.891 85H122.891V90H127.891V85ZM127.891 91H122.891V96H127.891V91ZM121.891 96V91H116.891V96H121.891ZM115.891 96V91H110.891V96H115.891ZM109.891 96V91H104.891V96H109.891ZM103.891 96V91H98.8906V96H103.891ZM97.8906 96V91H92.8906V96H97.8906ZM91.8906 96V91H86.8906V96H91.8906ZM85.8906 96V91H80.8906V96H85.8906ZM80.8906 90H85.8906V85H80.8906V90ZM80.8906 84H85.8906V79H80.8906V84ZM80.8906 78H85.8906V73H80.8906V78ZM80.8906 72H85.8906V67H80.8906V72ZM80.8906 66H85.8906V61H80.8906V66ZM80.8906 60H85.8906V55H80.8906V60ZM86.8906 55V60H91.8906V55H86.8906ZM92.8906 55V60H97.8906V55H92.8906ZM98.8906 55V60H103.891V55H98.8906ZM104.891 55V60H109.891V55H104.891ZM110.891 55V60H115.891V55H110.891ZM116.891 55V60H121.891V55H116.891ZM121.891 61H116.891V66H121.891V61ZM121.891 67H116.891V72H121.891V67ZM121.891 73H116.891V78H121.891V73ZM121.891 79H116.891V84H121.891V79ZM121.891 85H116.891V90H121.891V85ZM115.891 90V85H110.891V90H115.891ZM109.891 90V85H104.891V90H109.891ZM103.891 90V85H98.8906V90H103.891ZM97.8906 90V85H92.8906V90H97.8906ZM91.8906 90V85H86.8906V90H91.8906ZM86.8906 84H91.8906V79H86.8906V84ZM86.8906 78H91.8906V73H86.8906V78ZM86.8906 72H91.8906V67H86.8906V72ZM86.8906 66H91.8906V61H86.8906V66ZM92.8906 61V66H97.8906V61H92.8906ZM98.8906 61V66H103.891V61H98.8906ZM104.891 61V66H109.891V61H104.891ZM110.891 61V66H115.891V61H110.891ZM115.891 67H110.891V72H115.891V67ZM115.891 73H110.891V78H115.891V73ZM115.891 79H110.891V84H115.891V79ZM109.891 84V79H104.891V84H109.891ZM103.891 84V79H98.8906V84H103.891ZM97.8906 84V79H92.8906V84H97.8906ZM92.8906 78H97.8906V73H92.8906V78ZM92.8906 72H97.8906V67H92.8906V72ZM98.8906 67V72H103.891V67H98.8906ZM104.891 67V72H109.891V67H104.891ZM109.891 73H104.891V78H109.891V73ZM103.891 78V73H98.8906V78H103.891Z"
    fill="#FF6B82"
    fill-opacity="0.2"
  />
  <path
    d="M152.891 12H55.8906C49.2906 12 43.8906 17.4 43.8906 24V133L67.8906 109H152.891C159.491 109 164.891 103.6 164.891 97V24C164.891 17.4 159.491 12 152.891 12Z"
    stroke="#FF6B82"
    stroke-width="2"
  />
  <rect
    x="141.391"
    y="12.5"
    width="23"
    height="23"
    rx="11.5"
    stroke="#FF6B82"
  />
  <rect
    x="141.391"
    y="85.5"
    width="23"
    height="23"
    rx="11.5"
    stroke="#FF6B82"
  />
  <rect
    x="44.3906"
    y="12.5"
    width="23"
    height="23"
    rx="11.5"
    stroke="#FF6B82"
  />
  <rect x="257.391" y="0.5" width="144" height="144" stroke="#FF6B82" />
  <path
    fill-rule="evenodd"
    clip-rule="evenodd"
    d="M263.891 1H262.891V6H257.891V7H262.891V12H257.891V13H262.891V18H257.891V19H262.891V24H257.891V25H262.891V30H257.891V31H262.891V36H257.891V37H262.891V42H257.891V43H262.891V48H257.891V49H262.891V54H257.891V55H262.891V60H257.891V61H262.891V66H257.891V67H262.891V72H257.891V73H262.891V78H257.891V79H262.891V84H257.891V85H262.891V90H257.891V91H262.891V96H257.891V97H262.891V102H257.891V103H262.891V108H257.891V109H262.891V114H257.891V115H262.891V120H257.891V121H262.891V126H257.891V127H262.891V132H257.891V133H262.891V138H257.891V139H262.891V144H263.891V139H268.891V144H269.891V139H274.891V144H275.891V139H280.891V144H281.891V139H286.891V144H287.891V139H292.891V144H293.891V139H298.891V144H299.891V139H304.891V144H305.891V139H310.891V144H311.891V139H316.891V144H317.891V139H322.891V144H323.891V139H328.891V144H329.891V139H334.891V144H335.891V139H340.891V144H341.891V139H346.891V144H347.891V139H352.891V144H353.891V139H358.891V144H359.891V139H364.891V144H365.891V139H370.891V144H371.891V139H376.891V144H377.891V139H382.891V144H383.891V139H388.891V144H389.891V139H394.891V144H395.891V139H400.891V138H395.891V133H400.891V132H395.891V127H400.891V126H395.891V121H400.891V120H395.891V115H400.891V114H395.891V109H400.891V108H395.891V103H400.891V102H395.891V97H400.891V96H395.891V91H400.891V90H395.891V85H400.891V84H395.891V79H400.891V78H395.891V73H400.891V72H395.891V67H400.891V66H395.891V61H400.891V60H395.891V55H400.891V54H395.891V49H400.891V48H395.891V43H400.891V42H395.891V37H400.891V36H395.891V31H400.891V30H395.891V25H400.891V24H395.891V19H400.891V18H395.891V13H400.891V12H395.891V7H400.891V6H395.891V1H394.891V6H389.891V1H388.891V6H383.891V1H382.891V6H377.891V1H376.891V6H371.891V1H370.891V6H365.891V1H364.891V6H359.891V1H358.891V6H353.891V1H352.891V6H347.891V1H346.891V6H341.891V1H340.891V6H335.891V1H334.891V6H329.891V1H328.891V6H323.891V1H322.891V6H317.891V1H316.891V6H311.891V1H310.891V6H305.891V1H304.891V6H299.891V1H298.891V6H293.891V1H292.891V6H287.891V1H286.891V6H281.891V1H280.891V6H275.891V1H274.891V6H269.891V1H268.891V6H263.891V1ZM263.891 7V12H268.891V7H263.891ZM269.891 7V12H274.891V7H269.891ZM275.891 7V12H280.891V7H275.891ZM281.891 7V12H286.891V7H281.891ZM287.891 7V12H292.891V7H287.891ZM293.891 7V12H298.891V7H293.891ZM299.891 7V12H304.891V7H299.891ZM305.891 7V12H310.891V7H305.891ZM311.891 7V12H316.891V7H311.891ZM317.891 7V12H322.891V7H317.891ZM323.891 7V12H328.891V7H323.891ZM329.891 7V12H334.891V7H329.891ZM335.891 7V12H340.891V7H335.891ZM341.891 7V12H346.891V7H341.891ZM347.891 7V12H352.891V7H347.891ZM353.891 7V12H358.891V7H353.891ZM359.891 7V12H364.891V7H359.891ZM365.891 7V12H370.891V7H365.891ZM371.891 7V12H376.891V7H371.891ZM377.891 7V12H382.891V7H377.891ZM383.891 7V12H388.891V7H383.891ZM389.891 7V12H394.891V7H389.891ZM394.891 13H389.891V18H394.891V13ZM394.891 19H389.891V24H394.891V19ZM394.891 25H389.891V30H394.891V25ZM394.891 31H389.891V36H394.891V31ZM394.891 37H389.891V42H394.891V37ZM394.891 43H389.891V48H394.891V43ZM394.891 49H389.891V54H394.891V49ZM394.891 55H389.891V60H394.891V55ZM394.891 61H389.891V66H394.891V61ZM394.891 67H389.891V72H394.891V67ZM394.891 73H389.891V78H394.891V73ZM394.891 79H389.891V84H394.891V79ZM394.891 85H389.891V90H394.891V85ZM394.891 91H389.891V96H394.891V91ZM394.891 97H389.891V102H394.891V97ZM394.891 103H389.891V108H394.891V103ZM394.891 109H389.891V114H394.891V109ZM394.891 115H389.891V120H394.891V115ZM394.891 121H389.891V126H394.891V121ZM394.891 127H389.891V132H394.891V127ZM394.891 133H389.891V138H394.891V133ZM388.891 138V133H383.891V138H388.891ZM382.891 138V133H377.891V138H382.891ZM376.891 138V133H371.891V138H376.891ZM370.891 138V133H365.891V138H370.891ZM364.891 138V133H359.891V138H364.891ZM358.891 138V133H353.891V138H358.891ZM352.891 138V133H347.891V138H352.891ZM346.891 138V133H341.891V138H346.891ZM340.891 138V133H335.891V138H340.891ZM334.891 138V133H329.891V138H334.891ZM328.891 138V133H323.891V138H328.891ZM322.891 138V133H317.891V138H322.891ZM316.891 138V133H311.891V138H316.891ZM310.891 138V133H305.891V138H310.891ZM304.891 138V133H299.891V138H304.891ZM298.891 138V133H293.891V138H298.891ZM292.891 138V133H287.891V138H292.891ZM286.891 138V133H281.891V138H286.891ZM280.891 138V133H275.891V138H280.891ZM274.891 138V133H269.891V138H274.891ZM268.891 138V133H263.891V138H268.891ZM263.891 132H268.891V127H263.891V132ZM263.891 126H268.891V121H263.891V126ZM263.891 120H268.891V115H263.891V120ZM263.891 114H268.891V109H263.891V114ZM263.891 108H268.891V103H263.891V108ZM263.891 102H268.891V97H263.891V102ZM263.891 96H268.891V91H263.891V96ZM263.891 90H268.891V85H263.891V90ZM263.891 84H268.891V79H263.891V84ZM263.891 78H268.891V73H263.891V78ZM263.891 72H268.891V67H263.891V72ZM263.891 66H268.891V61H263.891V66ZM263.891 60H268.891V55H263.891V60ZM263.891 54H268.891V49H263.891V54ZM263.891 48H268.891V43H263.891V48ZM263.891 42H268.891V37H263.891V42ZM263.891 36H268.891V31H263.891V36ZM263.891 30H268.891V25H263.891V30ZM263.891 24H268.891V19H263.891V24ZM263.891 18H268.891V13H263.891V18ZM269.891 13V18H274.891V13H269.891ZM275.891 13V18H280.891V13H275.891ZM281.891 13V18H286.891V13H281.891ZM287.891 13V18H292.891V13H287.891ZM293.891 13V18H298.891V13H293.891ZM299.891 13V18H304.891V13H299.891ZM305.891 13V18H310.891V13H305.891ZM311.891 13V18H316.891V13H311.891ZM317.891 13V18H322.891V13H317.891ZM323.891 13V18H328.891V13H323.891ZM329.891 13V18H334.891V13H329.891ZM335.891 13V18H340.891V13H335.891ZM341.891 13V18H346.891V13H341.891ZM347.891 13V18H352.891V13H347.891ZM353.891 13V18H358.891V13H353.891ZM359.891 13V18H364.891V13H359.891ZM365.891 13V18H370.891V13H365.891ZM371.891 13V18H376.891V13H371.891ZM377.891 13V18H382.891V13H377.891ZM383.891 13V18H388.891V13H383.891ZM388.891 19H383.891V24H388.891V19ZM388.891 25H383.891V30H388.891V25ZM388.891 31H383.891V36H388.891V31ZM388.891 37H383.891V42H388.891V37ZM388.891 43H383.891V48H388.891V43ZM388.891 49H383.891V54H388.891V49ZM388.891 55H383.891V60H388.891V55ZM388.891 61H383.891V66H388.891V61ZM388.891 67H383.891V72H388.891V67ZM388.891 73H383.891V78H388.891V73ZM388.891 79H383.891V84H388.891V79ZM388.891 85H383.891V90H388.891V85ZM388.891 91H383.891V96H388.891V91ZM388.891 97H383.891V102H388.891V97ZM388.891 103H383.891V108H388.891V103ZM388.891 109H383.891V114H388.891V109ZM388.891 115H383.891V120H388.891V115ZM388.891 121H383.891V126H388.891V121ZM388.891 127H383.891V132H388.891V127ZM382.891 132V127H377.891V132H382.891ZM376.891 132V127H371.891V132H376.891ZM370.891 132V127H365.891V132H370.891ZM364.891 132V127H359.891V132H364.891ZM358.891 132V127H353.891V132H358.891ZM352.891 132V127H347.891V132H352.891ZM346.891 132V127H341.891V132H346.891ZM340.891 132V127H335.891V132H340.891ZM334.891 132V127H329.891V132H334.891ZM328.891 132V127H323.891V132H328.891ZM322.891 132V127H317.891V132H322.891ZM316.891 132V127H311.891V132H316.891ZM310.891 132V127H305.891V132H310.891ZM304.891 132V127H299.891V132H304.891ZM298.891 132V127H293.891V132H298.891ZM292.891 132V127H287.891V132H292.891ZM286.891 132V127H281.891V132H286.891ZM280.891 132V127H275.891V132H280.891ZM274.891 132V127H269.891V132H274.891ZM269.891 126H274.891V121H269.891V126ZM269.891 120H274.891V115H269.891V120ZM269.891 114H274.891V109H269.891V114ZM269.891 108H274.891V103H269.891V108ZM269.891 102H274.891V97H269.891V102ZM269.891 96H274.891V91H269.891V96ZM269.891 90H274.891V85H269.891V90ZM269.891 84H274.891V79H269.891V84ZM269.891 78H274.891V73H269.891V78ZM269.891 72H274.891V67H269.891V72ZM269.891 66H274.891V61H269.891V66ZM269.891 60H274.891V55H269.891V60ZM269.891 54H274.891V49H269.891V54ZM269.891 48H274.891V43H269.891V48ZM269.891 42H274.891V37H269.891V42ZM269.891 36H274.891V31H269.891V36ZM269.891 30H274.891V25H269.891V30ZM269.891 24H274.891V19H269.891V24ZM275.891 19V24H280.891V19H275.891ZM281.891 19V24H286.891V19H281.891ZM287.891 19V24H292.891V19H287.891ZM293.891 19V24H298.891V19H293.891ZM299.891 19V24H304.891V19H299.891ZM305.891 19V24H310.891V19H305.891ZM311.891 19V24H316.891V19H311.891ZM317.891 19V24H322.891V19H317.891ZM323.891 19V24H328.891V19H323.891ZM329.891 19V24H334.891V19H329.891ZM335.891 19V24H340.891V19H335.891ZM341.891 19V24H346.891V19H341.891ZM347.891 19V24H352.891V19H347.891ZM353.891 19V24H358.891V19H353.891ZM359.891 19V24H364.891V19H359.891ZM365.891 19V24H370.891V19H365.891ZM371.891 19V24H376.891V19H371.891ZM377.891 19V24H382.891V19H377.891ZM382.891 25H377.891V30H382.891V25ZM382.891 31H377.891V36H382.891V31ZM382.891 37H377.891V42H382.891V37ZM382.891 43H377.891V48H382.891V43ZM382.891 49H377.891V54H382.891V49ZM382.891 55H377.891V60H382.891V55ZM382.891 61H377.891V66H382.891V61ZM382.891 67H377.891V72H382.891V67ZM382.891 73H377.891V78H382.891V73ZM382.891 79H377.891V84H382.891V79ZM382.891 85H377.891V90H382.891V85ZM382.891 91H377.891V96H382.891V91ZM382.891 97H377.891V102H382.891V97ZM382.891 103H377.891V108H382.891V103ZM382.891 109H377.891V114H382.891V109ZM382.891 115H377.891V120H382.891V115ZM382.891 121H377.891V126H382.891V121ZM376.891 126V121H371.891V126H376.891ZM370.891 126V121H365.891V126H370.891ZM364.891 126V121H359.891V126H364.891ZM358.891 126V121H353.891V126H358.891ZM352.891 126V121H347.891V126H352.891ZM346.891 126V121H341.891V126H346.891ZM340.891 126V121H335.891V126H340.891ZM334.891 126V121H329.891V126H334.891ZM328.891 126V121H323.891V126H328.891ZM322.891 126V121H317.891V126H322.891ZM316.891 126V121H311.891V126H316.891ZM310.891 126V121H305.891V126H310.891ZM304.891 126V121H299.891V126H304.891ZM298.891 126V121H293.891V126H298.891ZM292.891 126V121H287.891V126H292.891ZM286.891 126V121H281.891V126H286.891ZM280.891 126V121H275.891V126H280.891ZM275.891 120H280.891V115H275.891V120ZM275.891 114H280.891V109H275.891V114ZM275.891 108H280.891V103H275.891V108ZM275.891 102H280.891V97H275.891V102ZM275.891 96H280.891V91H275.891V96ZM275.891 90H280.891V85H275.891V90ZM275.891 84H280.891V79H275.891V84ZM275.891 78H280.891V73H275.891V78ZM275.891 72H280.891V67H275.891V72ZM275.891 66H280.891V61H275.891V66ZM275.891 60H280.891V55H275.891V60ZM275.891 54H280.891V49H275.891V54ZM275.891 48H280.891V43H275.891V48ZM275.891 42H280.891V37H275.891V42ZM275.891 36H280.891V31H275.891V36ZM275.891 30H280.891V25H275.891V30ZM281.891 25V30H286.891V25H281.891ZM287.891 25V30H292.891V25H287.891ZM293.891 25V30H298.891V25H293.891ZM299.891 25V30H304.891V25H299.891ZM305.891 25V30H310.891V25H305.891ZM311.891 25V30H316.891V25H311.891ZM317.891 25V30H322.891V25H317.891ZM323.891 25V30H328.891V25H323.891ZM329.891 25V30H334.891V25H329.891ZM335.891 25V30H340.891V25H335.891ZM341.891 25V30H346.891V25H341.891ZM347.891 25V30H352.891V25H347.891ZM353.891 25V30H358.891V25H353.891ZM359.891 25V30H364.891V25H359.891ZM365.891 25V30H370.891V25H365.891ZM371.891 25V30H376.891V25H371.891ZM376.891 31H371.891V36H376.891V31ZM376.891 37H371.891V42H376.891V37ZM376.891 43H371.891V48H376.891V43ZM376.891 49H371.891V54H376.891V49ZM376.891 55H371.891V60H376.891V55ZM376.891 61H371.891V66H376.891V61ZM376.891 67H371.891V72H376.891V67ZM376.891 73H371.891V78H376.891V73ZM376.891 79H371.891V84H376.891V79ZM376.891 85H371.891V90H376.891V85ZM376.891 91H371.891V96H376.891V91ZM376.891 97H371.891V102H376.891V97ZM376.891 103H371.891V108H376.891V103ZM376.891 109H371.891V114H376.891V109ZM376.891 115H371.891V120H376.891V115ZM370.891 120V115H365.891V120H370.891ZM364.891 120V115H359.891V120H364.891ZM358.891 120V115H353.891V120H358.891ZM352.891 120V115H347.891V120H352.891ZM346.891 120V115H341.891V120H346.891ZM340.891 120V115H335.891V120H340.891ZM334.891 120V115H329.891V120H334.891ZM328.891 120V115H323.891V120H328.891ZM322.891 120V115H317.891V120H322.891ZM316.891 120V115H311.891V120H316.891ZM310.891 120V115H305.891V120H310.891ZM304.891 120V115H299.891V120H304.891ZM298.891 120V115H293.891V120H298.891ZM292.891 120V115H287.891V120H292.891ZM286.891 120V115H281.891V120H286.891ZM281.891 114H286.891V109H281.891V114ZM281.891 108H286.891V103H281.891V108ZM281.891 102H286.891V97H281.891V102ZM281.891 96H286.891V91H281.891V96ZM281.891 90H286.891V85H281.891V90ZM281.891 84H286.891V79H281.891V84ZM281.891 78H286.891V73H281.891V78ZM281.891 72H286.891V67H281.891V72ZM281.891 66H286.891V61H281.891V66ZM281.891 60H286.891V55H281.891V60ZM281.891 54H286.891V49H281.891V54ZM281.891 48H286.891V43H281.891V48ZM281.891 42H286.891V37H281.891V42ZM281.891 36H286.891V31H281.891V36ZM287.891 31V36H292.891V31H287.891ZM293.891 31V36H298.891V31H293.891ZM299.891 31V36H304.891V31H299.891ZM305.891 31V36H310.891V31H305.891ZM311.891 31V36H316.891V31H311.891ZM317.891 31V36H322.891V31H317.891ZM323.891 31V36H328.891V31H323.891ZM329.891 31V36H334.891V31H329.891ZM335.891 31V36H340.891V31H335.891ZM341.891 31V36H346.891V31H341.891ZM347.891 31V36H352.891V31H347.891ZM353.891 31V36H358.891V31H353.891ZM359.891 31V36H364.891V31H359.891ZM365.891 31V36H370.891V31H365.891ZM370.891 37H365.891V42H370.891V37ZM370.891 43H365.891V48H370.891V43ZM370.891 49H365.891V54H370.891V49ZM370.891 55H365.891V60H370.891V55ZM370.891 61H365.891V66H370.891V61ZM370.891 67H365.891V72H370.891V67ZM370.891 73H365.891V78H370.891V73ZM370.891 79H365.891V84H370.891V79ZM370.891 85H365.891V90H370.891V85ZM370.891 91H365.891V96H370.891V91ZM370.891 97H365.891V102H370.891V97ZM370.891 103H365.891V108H370.891V103ZM370.891 109H365.891V114H370.891V109ZM364.891 114V109H359.891V114H364.891ZM358.891 114V109H353.891V114H358.891ZM352.891 114V109H347.891V114H352.891ZM346.891 114V109H341.891V114H346.891ZM340.891 114V109H335.891V114H340.891ZM334.891 114V109H329.891V114H334.891ZM328.891 114V109H323.891V114H328.891ZM322.891 114V109H317.891V114H322.891ZM316.891 114V109H311.891V114H316.891ZM310.891 114V109H305.891V114H310.891ZM304.891 114V109H299.891V114H304.891ZM298.891 114V109H293.891V114H298.891ZM292.891 114V109H287.891V114H292.891ZM287.891 108H292.891V103H287.891V108ZM287.891 102H292.891V97H287.891V102ZM287.891 96H292.891V91H287.891V96ZM287.891 90H292.891V85H287.891V90ZM287.891 84H292.891V79H287.891V84ZM287.891 78H292.891V73H287.891V78ZM287.891 72H292.891V67H287.891V72ZM287.891 66H292.891V61H287.891V66ZM287.891 60H292.891V55H287.891V60ZM287.891 54H292.891V49H287.891V54ZM287.891 48H292.891V43H287.891V48ZM287.891 42H292.891V37H287.891V42ZM293.891 37V42H298.891V37H293.891ZM299.891 37V42H304.891V37H299.891ZM305.891 37V42H310.891V37H305.891ZM311.891 37V42H316.891V37H311.891ZM317.891 37V42H322.891V37H317.891ZM323.891 37V42H328.891V37H323.891ZM329.891 37V42H334.891V37H329.891ZM335.891 37V42H340.891V37H335.891ZM341.891 37V42H346.891V37H341.891ZM347.891 37V42H352.891V37H347.891ZM353.891 37V42H358.891V37H353.891ZM359.891 37V42H364.891V37H359.891ZM364.891 43H359.891V48H364.891V43ZM364.891 49H359.891V54H364.891V49ZM364.891 55H359.891V60H364.891V55ZM364.891 61H359.891V66H364.891V61ZM364.891 67H359.891V72H364.891V67ZM364.891 73H359.891V78H364.891V73ZM364.891 79H359.891V84H364.891V79ZM364.891 85H359.891V90H364.891V85ZM364.891 91H359.891V96H364.891V91ZM364.891 97H359.891V102H364.891V97ZM364.891 103H359.891V108H364.891V103ZM358.891 108V103H353.891V108H358.891ZM352.891 108V103H347.891V108H352.891ZM346.891 108V103H341.891V108H346.891ZM340.891 108V103H335.891V108H340.891ZM334.891 108V103H329.891V108H334.891ZM328.891 108V103H323.891V108H328.891ZM322.891 108V103H317.891V108H322.891ZM316.891 108V103H311.891V108H316.891ZM310.891 108V103H305.891V108H310.891ZM304.891 108V103H299.891V108H304.891ZM298.891 108V103H293.891V108H298.891ZM293.891 102H298.891V97H293.891V102ZM293.891 96H298.891V91H293.891V96ZM293.891 90H298.891V85H293.891V90ZM293.891 84H298.891V79H293.891V84ZM293.891 78H298.891V73H293.891V78ZM293.891 72H298.891V67H293.891V72ZM293.891 66H298.891V61H293.891V66ZM293.891 60H298.891V55H293.891V60ZM293.891 54H298.891V49H293.891V54ZM293.891 48H298.891V43H293.891V48ZM299.891 43V48H304.891V43H299.891ZM305.891 43V48H310.891V43H305.891ZM311.891 43V48H316.891V43H311.891ZM317.891 43V48H322.891V43H317.891ZM323.891 43V48H328.891V43H323.891ZM329.891 43V48H334.891V43H329.891ZM335.891 43V48H340.891V43H335.891ZM341.891 43V48H346.891V43H341.891ZM347.891 43V48H352.891V43H347.891ZM353.891 43V48H358.891V43H353.891ZM358.891 49H353.891V54H358.891V49ZM358.891 55H353.891V60H358.891V55ZM358.891 61H353.891V66H358.891V61ZM358.891 67H353.891V72H358.891V67ZM358.891 73H353.891V78H358.891V73ZM358.891 79H353.891V84H358.891V79ZM358.891 85H353.891V90H358.891V85ZM358.891 91H353.891V96H358.891V91ZM358.891 97H353.891V102H358.891V97ZM352.891 102V97H347.891V102H352.891ZM346.891 102V97H341.891V102H346.891ZM340.891 102V97H335.891V102H340.891ZM334.891 102V97H329.891V102H334.891ZM328.891 102V97H323.891V102H328.891ZM322.891 102V97H317.891V102H322.891ZM316.891 102V97H311.891V102H316.891ZM310.891 102V97H305.891V102H310.891ZM304.891 102V97H299.891V102H304.891ZM299.891 96H304.891V91H299.891V96ZM299.891 90H304.891V85H299.891V90ZM299.891 84H304.891V79H299.891V84ZM299.891 78H304.891V73H299.891V78ZM299.891 72H304.891V67H299.891V72ZM299.891 66H304.891V61H299.891V66ZM299.891 60H304.891V55H299.891V60ZM299.891 54H304.891V49H299.891V54ZM305.891 49V54H310.891V49H305.891ZM311.891 49V54H316.891V49H311.891ZM317.891 49V54H322.891V49H317.891ZM323.891 49V54H328.891V49H323.891ZM329.891 49V54H334.891V49H329.891ZM335.891 49V54H340.891V49H335.891ZM341.891 49V54H346.891V49H341.891ZM347.891 49V54H352.891V49H347.891ZM352.891 55H347.891V60H352.891V55ZM352.891 61H347.891V66H352.891V61ZM352.891 67H347.891V72H352.891V67ZM352.891 73H347.891V78H352.891V73ZM352.891 79H347.891V84H352.891V79ZM352.891 85H347.891V90H352.891V85ZM352.891 91H347.891V96H352.891V91ZM346.891 96V91H341.891V96H346.891ZM340.891 96V91H335.891V96H340.891ZM334.891 96V91H329.891V96H334.891ZM328.891 96V91H323.891V96H328.891ZM322.891 96V91H317.891V96H322.891ZM316.891 96V91H311.891V96H316.891ZM310.891 96V91H305.891V96H310.891ZM305.891 90H310.891V85H305.891V90ZM305.891 84H310.891V79H305.891V84ZM305.891 78H310.891V73H305.891V78ZM305.891 72H310.891V67H305.891V72ZM305.891 66H310.891V61H305.891V66ZM305.891 60H310.891V55H305.891V60ZM311.891 55V60H316.891V55H311.891ZM317.891 55V60H322.891V55H317.891ZM323.891 55V60H328.891V55H323.891ZM329.891 55V60H334.891V55H329.891ZM335.891 55V60H340.891V55H335.891ZM341.891 55V60H346.891V55H341.891ZM346.891 61H341.891V66H346.891V61ZM346.891 67H341.891V72H346.891V67ZM346.891 73H341.891V78H346.891V73ZM346.891 79H341.891V84H346.891V79ZM346.891 85H341.891V90H346.891V85ZM340.891 90V85H335.891V90H340.891ZM334.891 90V85H329.891V90H334.891ZM328.891 90V85H323.891V90H328.891ZM322.891 90V85H317.891V90H322.891ZM316.891 90V85H311.891V90H316.891ZM311.891 84H316.891V79H311.891V84ZM311.891 78H316.891V73H311.891V78ZM311.891 72H316.891V67H311.891V72ZM311.891 66H316.891V61H311.891V66ZM317.891 61V66H322.891V61H317.891ZM323.891 61V66H328.891V61H323.891ZM329.891 61V66H334.891V61H329.891ZM335.891 61V66H340.891V61H335.891ZM340.891 67H335.891V72H340.891V67ZM340.891 73H335.891V78H340.891V73ZM340.891 79H335.891V84H340.891V79ZM334.891 84V79H329.891V84H334.891ZM328.891 84V79H323.891V84H328.891ZM322.891 84V79H317.891V84H322.891ZM317.891 78H322.891V73H317.891V78ZM317.891 72H322.891V67H317.891V72ZM323.891 67V72H328.891V67H323.891ZM329.891 67V72H334.891V67H329.891ZM334.891 73H329.891V78H334.891V73ZM328.891 78V73H323.891V78H328.891Z"
    fill="#FF6B82"
    fill-opacity="0.2"
  />
  <path
    fill-rule="evenodd"
    clip-rule="evenodd"
    d="M274.891 18C271.577 18 268.891 20.6863 268.891 24V97C268.891 100.314 271.577 103 274.891 103H322.891V114H304.891V127H353.891V114H335.891V103H383.891C387.204 103 389.891 100.314 389.891 97V24C389.891 20.6863 387.204 18 383.891 18H274.891ZM376.891 31H281.891V90H376.891V31Z"
    stroke="#FF6B82"
    stroke-width="2"
  />
  <rect x="269.391" y="18.5" width="11" height="11" rx="5.5" stroke="#FF6B82" />
  <rect x="378.391" y="18.5" width="11" height="11" rx="5.5" stroke="#FF6B82" />
  <rect x="378.391" y="91.5" width="11" height="11" rx="5.5" stroke="#FF6B82" />
  <rect x="269.391" y="91.5" width="11" height="11" rx="5.5" stroke="#FF6B82" />
  <rect x="482.391" y="0.5" width="144" height="144" stroke="#FF6B82" />
  <path
    fill-rule="evenodd"
    clip-rule="evenodd"
    d="M488.891 1H487.891V6H482.891V7H487.891V12H482.891V13H487.891V18H482.891V19H487.891V24H482.891V25H487.891V30H482.891V31H487.891V36H482.891V37H487.891V42H482.891V43H487.891V48H482.891V49H487.891V54H482.891V55H487.891V60H482.891V61H487.891V66H482.891V67H487.891V72H482.891V73H487.891V78H482.891V79H487.891V84H482.891V85H487.891V90H482.891V91H487.891V96H482.891V97H487.891V102H482.891V103H487.891V108H482.891V109H487.891V114H482.891V115H487.891V120H482.891V121H487.891V126H482.891V127H487.891V132H482.891V133H487.891V138H482.891V139H487.891V144H488.891V139H493.891V144H494.891V139H499.891V144H500.891V139H505.891V144H506.891V139H511.891V144H512.891V139H517.891V144H518.891V139H523.891V144H524.891V139H529.891V144H530.891V139H535.891V144H536.891V139H541.891V144H542.891V139H547.891V144H548.891V139H553.891V144H554.891V139H559.891V144H560.891V139H565.891V144H566.891V139H571.891V144H572.891V139H577.891V144H578.891V139H583.891V144H584.891V139H589.891V144H590.891V139H595.891V144H596.891V139H601.891V144H602.891V139H607.891V144H608.891V139H613.891V144H614.891V139H619.891V144H620.891V139H625.891V138H620.891V133H625.891V132H620.891V127H625.891V126H620.891V121H625.891V120H620.891V115H625.891V114H620.891V109H625.891V108H620.891V103H625.891V102H620.891V97H625.891V96H620.891V91H625.891V90H620.891V85H625.891V84H620.891V79H625.891V78H620.891V73H625.891V72H620.891V67H625.891V66H620.891V61H625.891V60H620.891V55H625.891V54H620.891V49H625.891V48H620.891V43H625.891V42H620.891V37H625.891V36H620.891V31H625.891V30H620.891V25H625.891V24H620.891V19H625.891V18H620.891V13H625.891V12H620.891V7H625.891V6H620.891V1H619.891V6H614.891V1H613.891V6H608.891V1H607.891V6H602.891V1H601.891V6H596.891V1H595.891V6H590.891V1H589.891V6H584.891V1H583.891V6H578.891V1H577.891V6H572.891V1H571.891V6H566.891V1H565.891V6H560.891V1H559.891V6H554.891V1H553.891V6H548.891V1H547.891V6H542.891V1H541.891V6H536.891V1H535.891V6H530.891V1H529.891V6H524.891V1H523.891V6H518.891V1H517.891V6H512.891V1H511.891V6H506.891V1H505.891V6H500.891V1H499.891V6H494.891V1H493.891V6H488.891V1ZM488.891 7V12H493.891V7H488.891ZM494.891 7V12H499.891V7H494.891ZM500.891 7V12H505.891V7H500.891ZM506.891 7V12H511.891V7H506.891ZM512.891 7V12H517.891V7H512.891ZM518.891 7V12H523.891V7H518.891ZM524.891 7V12H529.891V7H524.891ZM530.891 7V12H535.891V7H530.891ZM536.891 7V12H541.891V7H536.891ZM542.891 7V12H547.891V7H542.891ZM548.891 7V12H553.891V7H548.891ZM554.891 7V12H559.891V7H554.891ZM560.891 7V12H565.891V7H560.891ZM566.891 7V12H571.891V7H566.891ZM572.891 7V12H577.891V7H572.891ZM578.891 7V12H583.891V7H578.891ZM584.891 7V12H589.891V7H584.891ZM590.891 7V12H595.891V7H590.891ZM596.891 7V12H601.891V7H596.891ZM602.891 7V12H607.891V7H602.891ZM608.891 7V12H613.891V7H608.891ZM614.891 7V12H619.891V7H614.891ZM619.891 13H614.891V18H619.891V13ZM619.891 19H614.891V24H619.891V19ZM619.891 25H614.891V30H619.891V25ZM619.891 31H614.891V36H619.891V31ZM619.891 37H614.891V42H619.891V37ZM619.891 43H614.891V48H619.891V43ZM619.891 49H614.891V54H619.891V49ZM619.891 55H614.891V60H619.891V55ZM619.891 61H614.891V66H619.891V61ZM619.891 67H614.891V72H619.891V67ZM619.891 73H614.891V78H619.891V73ZM619.891 79H614.891V84H619.891V79ZM619.891 85H614.891V90H619.891V85ZM619.891 91H614.891V96H619.891V91ZM619.891 97H614.891V102H619.891V97ZM619.891 103H614.891V108H619.891V103ZM619.891 109H614.891V114H619.891V109ZM619.891 115H614.891V120H619.891V115ZM619.891 121H614.891V126H619.891V121ZM619.891 127H614.891V132H619.891V127ZM619.891 133H614.891V138H619.891V133ZM613.891 138V133H608.891V138H613.891ZM607.891 138V133H602.891V138H607.891ZM601.891 138V133H596.891V138H601.891ZM595.891 138V133H590.891V138H595.891ZM589.891 138V133H584.891V138H589.891ZM583.891 138V133H578.891V138H583.891ZM577.891 138V133H572.891V138H577.891ZM571.891 138V133H566.891V138H571.891ZM565.891 138V133H560.891V138H565.891ZM559.891 138V133H554.891V138H559.891ZM553.891 138V133H548.891V138H553.891ZM547.891 138V133H542.891V138H547.891ZM541.891 138V133H536.891V138H541.891ZM535.891 138V133H530.891V138H535.891ZM529.891 138V133H524.891V138H529.891ZM523.891 138V133H518.891V138H523.891ZM517.891 138V133H512.891V138H517.891ZM511.891 138V133H506.891V138H511.891ZM505.891 138V133H500.891V138H505.891ZM499.891 138V133H494.891V138H499.891ZM493.891 138V133H488.891V138H493.891ZM488.891 132H493.891V127H488.891V132ZM488.891 126H493.891V121H488.891V126ZM488.891 120H493.891V115H488.891V120ZM488.891 114H493.891V109H488.891V114ZM488.891 108H493.891V103H488.891V108ZM488.891 102H493.891V97H488.891V102ZM488.891 96H493.891V91H488.891V96ZM488.891 90H493.891V85H488.891V90ZM488.891 84H493.891V79H488.891V84ZM488.891 78H493.891V73H488.891V78ZM488.891 72H493.891V67H488.891V72ZM488.891 66H493.891V61H488.891V66ZM488.891 60H493.891V55H488.891V60ZM488.891 54H493.891V49H488.891V54ZM488.891 48H493.891V43H488.891V48ZM488.891 42H493.891V37H488.891V42ZM488.891 36H493.891V31H488.891V36ZM488.891 30H493.891V25H488.891V30ZM488.891 24H493.891V19H488.891V24ZM488.891 18H493.891V13H488.891V18ZM494.891 13V18H499.891V13H494.891ZM500.891 13V18H505.891V13H500.891ZM506.891 13V18H511.891V13H506.891ZM512.891 13V18H517.891V13H512.891ZM518.891 13V18H523.891V13H518.891ZM524.891 13V18H529.891V13H524.891ZM530.891 13V18H535.891V13H530.891ZM536.891 13V18H541.891V13H536.891ZM542.891 13V18H547.891V13H542.891ZM548.891 13V18H553.891V13H548.891ZM554.891 13V18H559.891V13H554.891ZM560.891 13V18H565.891V13H560.891ZM566.891 13V18H571.891V13H566.891ZM572.891 13V18H577.891V13H572.891ZM578.891 13V18H583.891V13H578.891ZM584.891 13V18H589.891V13H584.891ZM590.891 13V18H595.891V13H590.891ZM596.891 13V18H601.891V13H596.891ZM602.891 13V18H607.891V13H602.891ZM608.891 13V18H613.891V13H608.891ZM613.891 19H608.891V24H613.891V19ZM613.891 25H608.891V30H613.891V25ZM613.891 31H608.891V36H613.891V31ZM613.891 37H608.891V42H613.891V37ZM613.891 43H608.891V48H613.891V43ZM613.891 49H608.891V54H613.891V49ZM613.891 55H608.891V60H613.891V55ZM613.891 61H608.891V66H613.891V61ZM613.891 67H608.891V72H613.891V67ZM613.891 73H608.891V78H613.891V73ZM613.891 79H608.891V84H613.891V79ZM613.891 85H608.891V90H613.891V85ZM613.891 91H608.891V96H613.891V91ZM613.891 97H608.891V102H613.891V97ZM613.891 103H608.891V108H613.891V103ZM613.891 109H608.891V114H613.891V109ZM613.891 115H608.891V120H613.891V115ZM613.891 121H608.891V126H613.891V121ZM613.891 127H608.891V132H613.891V127ZM607.891 132V127H602.891V132H607.891ZM601.891 132V127H596.891V132H601.891ZM595.891 132V127H590.891V132H595.891ZM589.891 132V127H584.891V132H589.891ZM583.891 132V127H578.891V132H583.891ZM577.891 132V127H572.891V132H577.891ZM571.891 132V127H566.891V132H571.891ZM565.891 132V127H560.891V132H565.891ZM559.891 132V127H554.891V132H559.891ZM553.891 132V127H548.891V132H553.891ZM547.891 132V127H542.891V132H547.891ZM541.891 132V127H536.891V132H541.891ZM535.891 132V127H530.891V132H535.891ZM529.891 132V127H524.891V132H529.891ZM523.891 132V127H518.891V132H523.891ZM517.891 132V127H512.891V132H517.891ZM511.891 132V127H506.891V132H511.891ZM505.891 132V127H500.891V132H505.891ZM499.891 132V127H494.891V132H499.891ZM494.891 126H499.891V121H494.891V126ZM494.891 120H499.891V115H494.891V120ZM494.891 114H499.891V109H494.891V114ZM494.891 108H499.891V103H494.891V108ZM494.891 102H499.891V97H494.891V102ZM494.891 96H499.891V91H494.891V96ZM494.891 90H499.891V85H494.891V90ZM494.891 84H499.891V79H494.891V84ZM494.891 78H499.891V73H494.891V78ZM494.891 72H499.891V67H494.891V72ZM494.891 66H499.891V61H494.891V66ZM494.891 60H499.891V55H494.891V60ZM494.891 54H499.891V49H494.891V54ZM494.891 48H499.891V43H494.891V48ZM494.891 42H499.891V37H494.891V42ZM494.891 36H499.891V31H494.891V36ZM494.891 30H499.891V25H494.891V30ZM494.891 24H499.891V19H494.891V24ZM500.891 19V24H505.891V19H500.891ZM506.891 19V24H511.891V19H506.891ZM512.891 19V24H517.891V19H512.891ZM518.891 19V24H523.891V19H518.891ZM524.891 19V24H529.891V19H524.891ZM530.891 19V24H535.891V19H530.891ZM536.891 19V24H541.891V19H536.891ZM542.891 19V24H547.891V19H542.891ZM548.891 19V24H553.891V19H548.891ZM554.891 19V24H559.891V19H554.891ZM560.891 19V24H565.891V19H560.891ZM566.891 19V24H571.891V19H566.891ZM572.891 19V24H577.891V19H572.891ZM578.891 19V24H583.891V19H578.891ZM584.891 19V24H589.891V19H584.891ZM590.891 19V24H595.891V19H590.891ZM596.891 19V24H601.891V19H596.891ZM602.891 19V24H607.891V19H602.891ZM607.891 25H602.891V30H607.891V25ZM607.891 31H602.891V36H607.891V31ZM607.891 37H602.891V42H607.891V37ZM607.891 43H602.891V48H607.891V43ZM607.891 49H602.891V54H607.891V49ZM607.891 55H602.891V60H607.891V55ZM607.891 61H602.891V66H607.891V61ZM607.891 67H602.891V72H607.891V67ZM607.891 73H602.891V78H607.891V73ZM607.891 79H602.891V84H607.891V79ZM607.891 85H602.891V90H607.891V85ZM607.891 91H602.891V96H607.891V91ZM607.891 97H602.891V102H607.891V97ZM607.891 103H602.891V108H607.891V103ZM607.891 109H602.891V114H607.891V109ZM607.891 115H602.891V120H607.891V115ZM607.891 121H602.891V126H607.891V121ZM601.891 126V121H596.891V126H601.891ZM595.891 126V121H590.891V126H595.891ZM589.891 126V121H584.891V126H589.891ZM583.891 126V121H578.891V126H583.891ZM577.891 126V121H572.891V126H577.891ZM571.891 126V121H566.891V126H571.891ZM565.891 126V121H560.891V126H565.891ZM559.891 126V121H554.891V126H559.891ZM553.891 126V121H548.891V126H553.891ZM547.891 126V121H542.891V126H547.891ZM541.891 126V121H536.891V126H541.891ZM535.891 126V121H530.891V126H535.891ZM529.891 126V121H524.891V126H529.891ZM523.891 126V121H518.891V126H523.891ZM517.891 126V121H512.891V126H517.891ZM511.891 126V121H506.891V126H511.891ZM505.891 126V121H500.891V126H505.891ZM500.891 120H505.891V115H500.891V120ZM500.891 114H505.891V109H500.891V114ZM500.891 108H505.891V103H500.891V108ZM500.891 102H505.891V97H500.891V102ZM500.891 96H505.891V91H500.891V96ZM500.891 90H505.891V85H500.891V90ZM500.891 84H505.891V79H500.891V84ZM500.891 78H505.891V73H500.891V78ZM500.891 72H505.891V67H500.891V72ZM500.891 66H505.891V61H500.891V66ZM500.891 60H505.891V55H500.891V60ZM500.891 54H505.891V49H500.891V54ZM500.891 48H505.891V43H500.891V48ZM500.891 42H505.891V37H500.891V42ZM500.891 36H505.891V31H500.891V36ZM500.891 30H505.891V25H500.891V30ZM506.891 25V30H511.891V25H506.891ZM512.891 25V30H517.891V25H512.891ZM518.891 25V30H523.891V25H518.891ZM524.891 25V30H529.891V25H524.891ZM530.891 25V30H535.891V25H530.891ZM536.891 25V30H541.891V25H536.891ZM542.891 25V30H547.891V25H542.891ZM548.891 25V30H553.891V25H548.891ZM554.891 25V30H559.891V25H554.891ZM560.891 25V30H565.891V25H560.891ZM566.891 25V30H571.891V25H566.891ZM572.891 25V30H577.891V25H572.891ZM578.891 25V30H583.891V25H578.891ZM584.891 25V30H589.891V25H584.891ZM590.891 25V30H595.891V25H590.891ZM596.891 25V30H601.891V25H596.891ZM601.891 31H596.891V36H601.891V31ZM601.891 37H596.891V42H601.891V37ZM601.891 43H596.891V48H601.891V43ZM601.891 49H596.891V54H601.891V49ZM601.891 55H596.891V60H601.891V55ZM601.891 61H596.891V66H601.891V61ZM601.891 67H596.891V72H601.891V67ZM601.891 73H596.891V78H601.891V73ZM601.891 79H596.891V84H601.891V79ZM601.891 85H596.891V90H601.891V85ZM601.891 91H596.891V96H601.891V91ZM601.891 97H596.891V102H601.891V97ZM601.891 103H596.891V108H601.891V103ZM601.891 109H596.891V114H601.891V109ZM601.891 115H596.891V120H601.891V115ZM595.891 120V115H590.891V120H595.891ZM589.891 120V115H584.891V120H589.891ZM583.891 120V115H578.891V120H583.891ZM577.891 120V115H572.891V120H577.891ZM571.891 120V115H566.891V120H571.891ZM565.891 120V115H560.891V120H565.891ZM559.891 120V115H554.891V120H559.891ZM553.891 120V115H548.891V120H553.891ZM547.891 120V115H542.891V120H547.891ZM541.891 120V115H536.891V120H541.891ZM535.891 120V115H530.891V120H535.891ZM529.891 120V115H524.891V120H529.891ZM523.891 120V115H518.891V120H523.891ZM517.891 120V115H512.891V120H517.891ZM511.891 120V115H506.891V120H511.891ZM506.891 114H511.891V109H506.891V114ZM506.891 108H511.891V103H506.891V108ZM506.891 102H511.891V97H506.891V102ZM506.891 96H511.891V91H506.891V96ZM506.891 90H511.891V85H506.891V90ZM506.891 84H511.891V79H506.891V84ZM506.891 78H511.891V73H506.891V78ZM506.891 72H511.891V67H506.891V72ZM506.891 66H511.891V61H506.891V66ZM506.891 60H511.891V55H506.891V60ZM506.891 54H511.891V49H506.891V54ZM506.891 48H511.891V43H506.891V48ZM506.891 42H511.891V37H506.891V42ZM506.891 36H511.891V31H506.891V36ZM512.891 31V36H517.891V31H512.891ZM518.891 31V36H523.891V31H518.891ZM524.891 31V36H529.891V31H524.891ZM530.891 31V36H535.891V31H530.891ZM536.891 31V36H541.891V31H536.891ZM542.891 31V36H547.891V31H542.891ZM548.891 31V36H553.891V31H548.891ZM554.891 31V36H559.891V31H554.891ZM560.891 31V36H565.891V31H560.891ZM566.891 31V36H571.891V31H566.891ZM572.891 31V36H577.891V31H572.891ZM578.891 31V36H583.891V31H578.891ZM584.891 31V36H589.891V31H584.891ZM590.891 31V36H595.891V31H590.891ZM595.891 37H590.891V42H595.891V37ZM595.891 43H590.891V48H595.891V43ZM595.891 49H590.891V54H595.891V49ZM595.891 55H590.891V60H595.891V55ZM595.891 61H590.891V66H595.891V61ZM595.891 67H590.891V72H595.891V67ZM595.891 73H590.891V78H595.891V73ZM595.891 79H590.891V84H595.891V79ZM595.891 85H590.891V90H595.891V85ZM595.891 91H590.891V96H595.891V91ZM595.891 97H590.891V102H595.891V97ZM595.891 103H590.891V108H595.891V103ZM595.891 109H590.891V114H595.891V109ZM589.891 114V109H584.891V114H589.891ZM583.891 114V109H578.891V114H583.891ZM577.891 114V109H572.891V114H577.891ZM571.891 114V109H566.891V114H571.891ZM565.891 114V109H560.891V114H565.891ZM559.891 114V109H554.891V114H559.891ZM553.891 114V109H548.891V114H553.891ZM547.891 114V109H542.891V114H547.891ZM541.891 114V109H536.891V114H541.891ZM535.891 114V109H530.891V114H535.891ZM529.891 114V109H524.891V114H529.891ZM523.891 114V109H518.891V114H523.891ZM517.891 114V109H512.891V114H517.891ZM512.891 108H517.891V103H512.891V108ZM512.891 102H517.891V97H512.891V102ZM512.891 96H517.891V91H512.891V96ZM512.891 90H517.891V85H512.891V90ZM512.891 84H517.891V79H512.891V84ZM512.891 78H517.891V73H512.891V78ZM512.891 72H517.891V67H512.891V72ZM512.891 66H517.891V61H512.891V66ZM512.891 60H517.891V55H512.891V60ZM512.891 54H517.891V49H512.891V54ZM512.891 48H517.891V43H512.891V48ZM512.891 42H517.891V37H512.891V42ZM518.891 37V42H523.891V37H518.891ZM524.891 37V42H529.891V37H524.891ZM530.891 37V42H535.891V37H530.891ZM536.891 37V42H541.891V37H536.891ZM542.891 37V42H547.891V37H542.891ZM548.891 37V42H553.891V37H548.891ZM554.891 37V42H559.891V37H554.891ZM560.891 37V42H565.891V37H560.891ZM566.891 37V42H571.891V37H566.891ZM572.891 37V42H577.891V37H572.891ZM578.891 37V42H583.891V37H578.891ZM584.891 37V42H589.891V37H584.891ZM589.891 43H584.891V48H589.891V43ZM589.891 49H584.891V54H589.891V49ZM589.891 55H584.891V60H589.891V55ZM589.891 61H584.891V66H589.891V61ZM589.891 67H584.891V72H589.891V67ZM589.891 73H584.891V78H589.891V73ZM589.891 79H584.891V84H589.891V79ZM589.891 85H584.891V90H589.891V85ZM589.891 91H584.891V96H589.891V91ZM589.891 97H584.891V102H589.891V97ZM589.891 103H584.891V108H589.891V103ZM583.891 108V103H578.891V108H583.891ZM577.891 108V103H572.891V108H577.891ZM571.891 108V103H566.891V108H571.891ZM565.891 108V103H560.891V108H565.891ZM559.891 108V103H554.891V108H559.891ZM553.891 108V103H548.891V108H553.891ZM547.891 108V103H542.891V108H547.891ZM541.891 108V103H536.891V108H541.891ZM535.891 108V103H530.891V108H535.891ZM529.891 108V103H524.891V108H529.891ZM523.891 108V103H518.891V108H523.891ZM518.891 102H523.891V97H518.891V102ZM518.891 96H523.891V91H518.891V96ZM518.891 90H523.891V85H518.891V90ZM518.891 84H523.891V79H518.891V84ZM518.891 78H523.891V73H518.891V78ZM518.891 72H523.891V67H518.891V72ZM518.891 66H523.891V61H518.891V66ZM518.891 60H523.891V55H518.891V60ZM518.891 54H523.891V49H518.891V54ZM518.891 48H523.891V43H518.891V48ZM524.891 43V48H529.891V43H524.891ZM530.891 43V48H535.891V43H530.891ZM536.891 43V48H541.891V43H536.891ZM542.891 43V48H547.891V43H542.891ZM548.891 43V48H553.891V43H548.891ZM554.891 43V48H559.891V43H554.891ZM560.891 43V48H565.891V43H560.891ZM566.891 43V48H571.891V43H566.891ZM572.891 43V48H577.891V43H572.891ZM578.891 43V48H583.891V43H578.891ZM583.891 49H578.891V54H583.891V49ZM583.891 55H578.891V60H583.891V55ZM583.891 61H578.891V66H583.891V61ZM583.891 67H578.891V72H583.891V67ZM583.891 73H578.891V78H583.891V73ZM583.891 79H578.891V84H583.891V79ZM583.891 85H578.891V90H583.891V85ZM583.891 91H578.891V96H583.891V91ZM583.891 97H578.891V102H583.891V97ZM577.891 102V97H572.891V102H577.891ZM571.891 102V97H566.891V102H571.891ZM565.891 102V97H560.891V102H565.891ZM559.891 102V97H554.891V102H559.891ZM553.891 102V97H548.891V102H553.891ZM547.891 102V97H542.891V102H547.891ZM541.891 102V97H536.891V102H541.891ZM535.891 102V97H530.891V102H535.891ZM529.891 102V97H524.891V102H529.891ZM524.891 96H529.891V91H524.891V96ZM524.891 90H529.891V85H524.891V90ZM524.891 84H529.891V79H524.891V84ZM524.891 78H529.891V73H524.891V78ZM524.891 72H529.891V67H524.891V72ZM524.891 66H529.891V61H524.891V66ZM524.891 60H529.891V55H524.891V60ZM524.891 54H529.891V49H524.891V54ZM530.891 49V54H535.891V49H530.891ZM536.891 49V54H541.891V49H536.891ZM542.891 49V54H547.891V49H542.891ZM548.891 49V54H553.891V49H548.891ZM554.891 49V54H559.891V49H554.891ZM560.891 49V54H565.891V49H560.891ZM566.891 49V54H571.891V49H566.891ZM572.891 49V54H577.891V49H572.891ZM577.891 55H572.891V60H577.891V55ZM577.891 61H572.891V66H577.891V61ZM577.891 67H572.891V72H577.891V67ZM577.891 73H572.891V78H577.891V73ZM577.891 79H572.891V84H577.891V79ZM577.891 85H572.891V90H577.891V85ZM577.891 91H572.891V96H577.891V91ZM571.891 96V91H566.891V96H571.891ZM565.891 96V91H560.891V96H565.891ZM559.891 96V91H554.891V96H559.891ZM553.891 96V91H548.891V96H553.891ZM547.891 96V91H542.891V96H547.891ZM541.891 96V91H536.891V96H541.891ZM535.891 96V91H530.891V96H535.891ZM530.891 90H535.891V85H530.891V90ZM530.891 84H535.891V79H530.891V84ZM530.891 78H535.891V73H530.891V78ZM530.891 72H535.891V67H530.891V72ZM530.891 66H535.891V61H530.891V66ZM530.891 60H535.891V55H530.891V60ZM536.891 55V60H541.891V55H536.891ZM542.891 55V60H547.891V55H542.891ZM548.891 55V60H553.891V55H548.891ZM554.891 55V60H559.891V55H554.891ZM560.891 55V60H565.891V55H560.891ZM566.891 55V60H571.891V55H566.891ZM571.891 61H566.891V66H571.891V61ZM571.891 67H566.891V72H571.891V67ZM571.891 73H566.891V78H571.891V73ZM571.891 79H566.891V84H571.891V79ZM571.891 85H566.891V90H571.891V85ZM565.891 90V85H560.891V90H565.891ZM559.891 90V85H554.891V90H559.891ZM553.891 90V85H548.891V90H553.891ZM547.891 90V85H542.891V90H547.891ZM541.891 90V85H536.891V90H541.891ZM536.891 84H541.891V79H536.891V84ZM536.891 78H541.891V73H536.891V78ZM536.891 72H541.891V67H536.891V72ZM536.891 66H541.891V61H536.891V66ZM542.891 61V66H547.891V61H542.891ZM548.891 61V66H553.891V61H548.891ZM554.891 61V66H559.891V61H554.891ZM560.891 61V66H565.891V61H560.891ZM565.891 67H560.891V72H565.891V67ZM565.891 73H560.891V78H565.891V73ZM565.891 79H560.891V84H565.891V79ZM559.891 84V79H554.891V84H559.891ZM553.891 84V79H548.891V84H553.891ZM547.891 84V79H542.891V84H547.891ZM542.891 78H547.891V73H542.891V78ZM542.891 72H547.891V67H542.891V72ZM548.891 67V72H553.891V67H548.891ZM554.891 67V72H559.891V67H554.891ZM559.891 73H554.891V78H559.891V73ZM553.891 78V73H548.891V78H553.891Z"
    fill="#FF6B82"
    fill-opacity="0.2"
  />
  <path
    d="M499.891 109H536.891V96H499.891V109ZM499.891 36V49H608.891V36H499.891ZM499.891 79H572.891V66H499.891V79Z"
    stroke="#EB5757"
    stroke-width="2"
  />
</svg>
