<svg
  width="656"
  height="145"
  viewBox="0 0 656 145"
  fill="none"
  xmlns="http://www.w3.org/2000/svg"
>
  <rect x="32.2812" y="0.5" width="144" height="144" stroke="#FF6B82" />
  <path
    fill-rule="evenodd"
    clip-rule="evenodd"
    d="M38.7812 1H37.7812V6H32.7812V7H37.7812V12H32.7812V13H37.7812V18H32.7812V19H37.7812V24H32.7812V25H37.7812V30H32.7812V31H37.7812V36H32.7812V37H37.7812V42H32.7812V43H37.7812V48H32.7812V49H37.7812V54H32.7812V55H37.7812V60H32.7812V61H37.7812V66H32.7812V67H37.7812V72H32.7812V73H37.7812V78H32.7812V79H37.7812V84H32.7812V85H37.7812V90H32.7812V91H37.7812V96H32.7812V97H37.7812V102H32.7812V103H37.7812V108H32.7812V109H37.7812V114H32.7812V115H37.7812V120H32.7812V121H37.7812V126H32.7812V127H37.7812V132H32.7812V133H37.7812V138H32.7812V139H37.7812V144H38.7812V139H43.7812V144H44.7812V139H49.7812V144H50.7812V139H55.7812V144H56.7812V139H61.7812V144H62.7812V139H67.7812V144H68.7812V139H73.7812V144H74.7812V139H79.7812V144H80.7812V139H85.7812V144H86.7812V139H91.7812V144H92.7812V139H97.7812V144H98.7812V139H103.781V144H104.781V139H109.781V144H110.781V139H115.781V144H116.781V139H121.781V144H122.781V139H127.781V144H128.781V139H133.781V144H134.781V139H139.781V144H140.781V139H145.781V144H146.781V139H151.781V144H152.781V139H157.781V144H158.781V139H163.781V144H164.781V139H169.781V144H170.781V139H175.781V138H170.781V133H175.781V132H170.781V127H175.781V126H170.781V121H175.781V120H170.781V115H175.781V114H170.781V109H175.781V108H170.781V103H175.781V102H170.781V97H175.781V96H170.781V91H175.781V90H170.781V85H175.781V84H170.781V79H175.781V78H170.781V73H175.781V72H170.781V67H175.781V66H170.781V61H175.781V60H170.781V55H175.781V54H170.781V49H175.781V48H170.781V43H175.781V42H170.781V37H175.781V36H170.781V31H175.781V30H170.781V25H175.781V24H170.781V19H175.781V18H170.781V13H175.781V12H170.781V7H175.781V6H170.781V1H169.781V6H164.781V1H163.781V6H158.781V1H157.781V6H152.781V1H151.781V6H146.781V1H145.781V6H140.781V1H139.781V6H134.781V1H133.781V6H128.781V1H127.781V6H122.781V1H121.781V6H116.781V1H115.781V6H110.781V1H109.781V6H104.781V1H103.781V6H98.7812V1H97.7812V6H92.7812V1H91.7812V6H86.7812V1H85.7812V6H80.7812V1H79.7812V6H74.7812V1H73.7812V6H68.7812V1H67.7812V6H62.7812V1H61.7812V6H56.7812V1H55.7812V6H50.7812V1H49.7812V6H44.7812V1H43.7812V6H38.7812V1ZM38.7812 7V12H43.7812V7H38.7812ZM44.7812 7V12H49.7812V7H44.7812ZM50.7812 7V12H55.7812V7H50.7812ZM56.7812 7V12H61.7812V7H56.7812ZM62.7812 7V12H67.7812V7H62.7812ZM68.7812 7V12H73.7812V7H68.7812ZM74.7812 7V12H79.7812V7H74.7812ZM80.7812 7V12H85.7812V7H80.7812ZM86.7812 7V12H91.7812V7H86.7812ZM92.7812 7V12H97.7812V7H92.7812ZM98.7812 7V12H103.781V7H98.7812ZM104.781 7V12H109.781V7H104.781ZM110.781 7V12H115.781V7H110.781ZM116.781 7V12H121.781V7H116.781ZM122.781 7V12H127.781V7H122.781ZM128.781 7V12H133.781V7H128.781ZM134.781 7V12H139.781V7H134.781ZM140.781 7V12H145.781V7H140.781ZM146.781 7V12H151.781V7H146.781ZM152.781 7V12H157.781V7H152.781ZM158.781 7V12H163.781V7H158.781ZM164.781 7V12H169.781V7H164.781ZM169.781 13H164.781V18H169.781V13ZM169.781 19H164.781V24H169.781V19ZM169.781 25H164.781V30H169.781V25ZM169.781 31H164.781V36H169.781V31ZM169.781 37H164.781V42H169.781V37ZM169.781 43H164.781V48H169.781V43ZM169.781 49H164.781V54H169.781V49ZM169.781 55H164.781V60H169.781V55ZM169.781 61H164.781V66H169.781V61ZM169.781 67H164.781V72H169.781V67ZM169.781 73H164.781V78H169.781V73ZM169.781 79H164.781V84H169.781V79ZM169.781 85H164.781V90H169.781V85ZM169.781 91H164.781V96H169.781V91ZM169.781 97H164.781V102H169.781V97ZM169.781 103H164.781V108H169.781V103ZM169.781 109H164.781V114H169.781V109ZM169.781 115H164.781V120H169.781V115ZM169.781 121H164.781V126H169.781V121ZM169.781 127H164.781V132H169.781V127ZM169.781 133H164.781V138H169.781V133ZM163.781 138V133H158.781V138H163.781ZM157.781 138V133H152.781V138H157.781ZM151.781 138V133H146.781V138H151.781ZM145.781 138V133H140.781V138H145.781ZM139.781 138V133H134.781V138H139.781ZM133.781 138V133H128.781V138H133.781ZM127.781 138V133H122.781V138H127.781ZM121.781 138V133H116.781V138H121.781ZM115.781 138V133H110.781V138H115.781ZM109.781 138V133H104.781V138H109.781ZM103.781 138V133H98.7812V138H103.781ZM97.7812 138V133H92.7812V138H97.7812ZM91.7812 138V133H86.7812V138H91.7812ZM85.7812 138V133H80.7812V138H85.7812ZM79.7812 138V133H74.7812V138H79.7812ZM73.7812 138V133H68.7812V138H73.7812ZM67.7812 138V133H62.7812V138H67.7812ZM61.7812 138V133H56.7812V138H61.7812ZM55.7812 138V133H50.7812V138H55.7812ZM49.7812 138V133H44.7812V138H49.7812ZM43.7812 138V133H38.7812V138H43.7812ZM38.7812 132H43.7812V127H38.7812V132ZM38.7812 126H43.7812V121H38.7812V126ZM38.7812 120H43.7812V115H38.7812V120ZM38.7812 114H43.7812V109H38.7812V114ZM38.7812 108H43.7812V103H38.7812V108ZM38.7812 102H43.7812V97H38.7812V102ZM38.7812 96H43.7812V91H38.7812V96ZM38.7812 90H43.7812V85H38.7812V90ZM38.7812 84H43.7812V79H38.7812V84ZM38.7812 78H43.7812V73H38.7812V78ZM38.7812 72H43.7812V67H38.7812V72ZM38.7812 66H43.7812V61H38.7812V66ZM38.7812 60H43.7812V55H38.7812V60ZM38.7812 54H43.7812V49H38.7812V54ZM38.7812 48H43.7812V43H38.7812V48ZM38.7812 42H43.7812V37H38.7812V42ZM38.7812 36H43.7812V31H38.7812V36ZM38.7812 30H43.7812V25H38.7812V30ZM38.7812 24H43.7812V19H38.7812V24ZM38.7812 18H43.7812V13H38.7812V18ZM44.7812 13V18H49.7812V13H44.7812ZM50.7812 13V18H55.7812V13H50.7812ZM56.7812 13V18H61.7812V13H56.7812ZM62.7812 13V18H67.7812V13H62.7812ZM68.7812 13V18H73.7812V13H68.7812ZM74.7812 13V18H79.7812V13H74.7812ZM80.7812 13V18H85.7812V13H80.7812ZM86.7812 13V18H91.7812V13H86.7812ZM92.7812 13V18H97.7812V13H92.7812ZM98.7812 13V18H103.781V13H98.7812ZM104.781 13V18H109.781V13H104.781ZM110.781 13V18H115.781V13H110.781ZM116.781 13V18H121.781V13H116.781ZM122.781 13V18H127.781V13H122.781ZM128.781 13V18H133.781V13H128.781ZM134.781 13V18H139.781V13H134.781ZM140.781 13V18H145.781V13H140.781ZM146.781 13V18H151.781V13H146.781ZM152.781 13V18H157.781V13H152.781ZM158.781 13V18H163.781V13H158.781ZM163.781 19H158.781V24H163.781V19ZM163.781 25H158.781V30H163.781V25ZM163.781 31H158.781V36H163.781V31ZM163.781 37H158.781V42H163.781V37ZM163.781 43H158.781V48H163.781V43ZM163.781 49H158.781V54H163.781V49ZM163.781 55H158.781V60H163.781V55ZM163.781 61H158.781V66H163.781V61ZM163.781 67H158.781V72H163.781V67ZM163.781 73H158.781V78H163.781V73ZM163.781 79H158.781V84H163.781V79ZM163.781 85H158.781V90H163.781V85ZM163.781 91H158.781V96H163.781V91ZM163.781 97H158.781V102H163.781V97ZM163.781 103H158.781V108H163.781V103ZM163.781 109H158.781V114H163.781V109ZM163.781 115H158.781V120H163.781V115ZM163.781 121H158.781V126H163.781V121ZM163.781 127H158.781V132H163.781V127ZM157.781 132V127H152.781V132H157.781ZM151.781 132V127H146.781V132H151.781ZM145.781 132V127H140.781V132H145.781ZM139.781 132V127H134.781V132H139.781ZM133.781 132V127H128.781V132H133.781ZM127.781 132V127H122.781V132H127.781ZM121.781 132V127H116.781V132H121.781ZM115.781 132V127H110.781V132H115.781ZM109.781 132V127H104.781V132H109.781ZM103.781 132V127H98.7812V132H103.781ZM97.7812 132V127H92.7812V132H97.7812ZM91.7812 132V127H86.7812V132H91.7812ZM85.7812 132V127H80.7812V132H85.7812ZM79.7812 132V127H74.7812V132H79.7812ZM73.7812 132V127H68.7812V132H73.7812ZM67.7812 132V127H62.7812V132H67.7812ZM61.7812 132V127H56.7812V132H61.7812ZM55.7812 132V127H50.7812V132H55.7812ZM49.7812 132V127H44.7812V132H49.7812ZM44.7812 126H49.7812V121H44.7812V126ZM44.7812 120H49.7812V115H44.7812V120ZM44.7812 114H49.7812V109H44.7812V114ZM44.7812 108H49.7812V103H44.7812V108ZM44.7812 102H49.7812V97H44.7812V102ZM44.7812 96H49.7812V91H44.7812V96ZM44.7812 90H49.7812V85H44.7812V90ZM44.7812 84H49.7812V79H44.7812V84ZM44.7812 78H49.7812V73H44.7812V78ZM44.7812 72H49.7812V67H44.7812V72ZM44.7812 66H49.7812V61H44.7812V66ZM44.7812 60H49.7812V55H44.7812V60ZM44.7812 54H49.7812V49H44.7812V54ZM44.7812 48H49.7812V43H44.7812V48ZM44.7812 42H49.7812V37H44.7812V42ZM44.7812 36H49.7812V31H44.7812V36ZM44.7812 30H49.7812V25H44.7812V30ZM44.7812 24H49.7812V19H44.7812V24ZM50.7812 19V24H55.7812V19H50.7812ZM56.7812 19V24H61.7812V19H56.7812ZM62.7812 19V24H67.7812V19H62.7812ZM68.7812 19V24H73.7812V19H68.7812ZM74.7812 19V24H79.7812V19H74.7812ZM80.7812 19V24H85.7812V19H80.7812ZM86.7812 19V24H91.7812V19H86.7812ZM92.7812 19V24H97.7812V19H92.7812ZM98.7812 19V24H103.781V19H98.7812ZM104.781 19V24H109.781V19H104.781ZM110.781 19V24H115.781V19H110.781ZM116.781 19V24H121.781V19H116.781ZM122.781 19V24H127.781V19H122.781ZM128.781 19V24H133.781V19H128.781ZM134.781 19V24H139.781V19H134.781ZM140.781 19V24H145.781V19H140.781ZM146.781 19V24H151.781V19H146.781ZM152.781 19V24H157.781V19H152.781ZM157.781 25H152.781V30H157.781V25ZM157.781 31H152.781V36H157.781V31ZM157.781 37H152.781V42H157.781V37ZM157.781 43H152.781V48H157.781V43ZM157.781 49H152.781V54H157.781V49ZM157.781 55H152.781V60H157.781V55ZM157.781 61H152.781V66H157.781V61ZM157.781 67H152.781V72H157.781V67ZM157.781 73H152.781V78H157.781V73ZM157.781 79H152.781V84H157.781V79ZM157.781 85H152.781V90H157.781V85ZM157.781 91H152.781V96H157.781V91ZM157.781 97H152.781V102H157.781V97ZM157.781 103H152.781V108H157.781V103ZM157.781 109H152.781V114H157.781V109ZM157.781 115H152.781V120H157.781V115ZM157.781 121H152.781V126H157.781V121ZM151.781 126V121H146.781V126H151.781ZM145.781 126V121H140.781V126H145.781ZM139.781 126V121H134.781V126H139.781ZM133.781 126V121H128.781V126H133.781ZM127.781 126V121H122.781V126H127.781ZM121.781 126V121H116.781V126H121.781ZM115.781 126V121H110.781V126H115.781ZM109.781 126V121H104.781V126H109.781ZM103.781 126V121H98.7812V126H103.781ZM97.7812 126V121H92.7812V126H97.7812ZM91.7812 126V121H86.7812V126H91.7812ZM85.7812 126V121H80.7812V126H85.7812ZM79.7812 126V121H74.7812V126H79.7812ZM73.7812 126V121H68.7812V126H73.7812ZM67.7812 126V121H62.7812V126H67.7812ZM61.7812 126V121H56.7812V126H61.7812ZM55.7812 126V121H50.7812V126H55.7812ZM50.7812 120H55.7812V115H50.7812V120ZM50.7812 114H55.7812V109H50.7812V114ZM50.7812 108H55.7812V103H50.7812V108ZM50.7812 102H55.7812V97H50.7812V102ZM50.7812 96H55.7812V91H50.7812V96ZM50.7812 90H55.7812V85H50.7812V90ZM50.7812 84H55.7812V79H50.7812V84ZM50.7812 78H55.7812V73H50.7812V78ZM50.7812 72H55.7812V67H50.7812V72ZM50.7812 66H55.7812V61H50.7812V66ZM50.7812 60H55.7812V55H50.7812V60ZM50.7812 54H55.7812V49H50.7812V54ZM50.7812 48H55.7812V43H50.7812V48ZM50.7812 42H55.7812V37H50.7812V42ZM50.7812 36H55.7812V31H50.7812V36ZM50.7812 30H55.7812V25H50.7812V30ZM56.7812 25V30H61.7812V25H56.7812ZM62.7812 25V30H67.7812V25H62.7812ZM68.7812 25V30H73.7812V25H68.7812ZM74.7812 25V30H79.7812V25H74.7812ZM80.7812 25V30H85.7812V25H80.7812ZM86.7812 25V30H91.7812V25H86.7812ZM92.7812 25V30H97.7812V25H92.7812ZM98.7812 25V30H103.781V25H98.7812ZM104.781 25V30H109.781V25H104.781ZM110.781 25V30H115.781V25H110.781ZM116.781 25V30H121.781V25H116.781ZM122.781 25V30H127.781V25H122.781ZM128.781 25V30H133.781V25H128.781ZM134.781 25V30H139.781V25H134.781ZM140.781 25V30H145.781V25H140.781ZM146.781 25V30H151.781V25H146.781ZM151.781 31H146.781V36H151.781V31ZM151.781 37H146.781V42H151.781V37ZM151.781 43H146.781V48H151.781V43ZM151.781 49H146.781V54H151.781V49ZM151.781 55H146.781V60H151.781V55ZM151.781 61H146.781V66H151.781V61ZM151.781 67H146.781V72H151.781V67ZM151.781 73H146.781V78H151.781V73ZM151.781 79H146.781V84H151.781V79ZM151.781 85H146.781V90H151.781V85ZM151.781 91H146.781V96H151.781V91ZM151.781 97H146.781V102H151.781V97ZM151.781 103H146.781V108H151.781V103ZM151.781 109H146.781V114H151.781V109ZM151.781 115H146.781V120H151.781V115ZM145.781 120V115H140.781V120H145.781ZM139.781 120V115H134.781V120H139.781ZM133.781 120V115H128.781V120H133.781ZM127.781 120V115H122.781V120H127.781ZM121.781 120V115H116.781V120H121.781ZM115.781 120V115H110.781V120H115.781ZM109.781 120V115H104.781V120H109.781ZM103.781 120V115H98.7812V120H103.781ZM97.7812 120V115H92.7812V120H97.7812ZM91.7812 120V115H86.7812V120H91.7812ZM85.7812 120V115H80.7812V120H85.7812ZM79.7812 120V115H74.7812V120H79.7812ZM73.7812 120V115H68.7812V120H73.7812ZM67.7812 120V115H62.7812V120H67.7812ZM61.7812 120V115H56.7812V120H61.7812ZM56.7812 114H61.7812V109H56.7812V114ZM56.7812 108H61.7812V103H56.7812V108ZM56.7812 102H61.7812V97H56.7812V102ZM56.7812 96H61.7812V91H56.7812V96ZM56.7812 90H61.7812V85H56.7812V90ZM56.7812 84H61.7812V79H56.7812V84ZM56.7812 78H61.7812V73H56.7812V78ZM56.7812 72H61.7812V67H56.7812V72ZM56.7812 66H61.7812V61H56.7812V66ZM56.7812 60H61.7812V55H56.7812V60ZM56.7812 54H61.7812V49H56.7812V54ZM56.7812 48H61.7812V43H56.7812V48ZM56.7812 42H61.7812V37H56.7812V42ZM56.7812 36H61.7812V31H56.7812V36ZM62.7812 31V36H67.7812V31H62.7812ZM68.7812 31V36H73.7812V31H68.7812ZM74.7812 31V36H79.7812V31H74.7812ZM80.7812 31V36H85.7812V31H80.7812ZM86.7812 31V36H91.7812V31H86.7812ZM92.7812 31V36H97.7812V31H92.7812ZM98.7812 31V36H103.781V31H98.7812ZM104.781 31V36H109.781V31H104.781ZM110.781 31V36H115.781V31H110.781ZM116.781 31V36H121.781V31H116.781ZM122.781 31V36H127.781V31H122.781ZM128.781 31V36H133.781V31H128.781ZM134.781 31V36H139.781V31H134.781ZM140.781 31V36H145.781V31H140.781ZM145.781 37H140.781V42H145.781V37ZM145.781 43H140.781V48H145.781V43ZM145.781 49H140.781V54H145.781V49ZM145.781 55H140.781V60H145.781V55ZM145.781 61H140.781V66H145.781V61ZM145.781 67H140.781V72H145.781V67ZM145.781 73H140.781V78H145.781V73ZM145.781 79H140.781V84H145.781V79ZM145.781 85H140.781V90H145.781V85ZM145.781 91H140.781V96H145.781V91ZM145.781 97H140.781V102H145.781V97ZM145.781 103H140.781V108H145.781V103ZM145.781 109H140.781V114H145.781V109ZM139.781 114V109H134.781V114H139.781ZM133.781 114V109H128.781V114H133.781ZM127.781 114V109H122.781V114H127.781ZM121.781 114V109H116.781V114H121.781ZM115.781 114V109H110.781V114H115.781ZM109.781 114V109H104.781V114H109.781ZM103.781 114V109H98.7812V114H103.781ZM97.7812 114V109H92.7812V114H97.7812ZM91.7812 114V109H86.7812V114H91.7812ZM85.7812 114V109H80.7812V114H85.7812ZM79.7812 114V109H74.7812V114H79.7812ZM73.7812 114V109H68.7812V114H73.7812ZM67.7812 114V109H62.7812V114H67.7812ZM62.7812 108H67.7812V103H62.7812V108ZM62.7812 102H67.7812V97H62.7812V102ZM62.7812 96H67.7812V91H62.7812V96ZM62.7812 90H67.7812V85H62.7812V90ZM62.7812 84H67.7812V79H62.7812V84ZM62.7812 78H67.7812V73H62.7812V78ZM62.7812 72H67.7812V67H62.7812V72ZM62.7812 66H67.7812V61H62.7812V66ZM62.7812 60H67.7812V55H62.7812V60ZM62.7812 54H67.7812V49H62.7812V54ZM62.7812 48H67.7812V43H62.7812V48ZM62.7812 42H67.7812V37H62.7812V42ZM68.7812 37V42H73.7812V37H68.7812ZM74.7812 37V42H79.7812V37H74.7812ZM80.7812 37V42H85.7812V37H80.7812ZM86.7812 37V42H91.7812V37H86.7812ZM92.7812 37V42H97.7812V37H92.7812ZM98.7812 37V42H103.781V37H98.7812ZM104.781 37V42H109.781V37H104.781ZM110.781 37V42H115.781V37H110.781ZM116.781 37V42H121.781V37H116.781ZM122.781 37V42H127.781V37H122.781ZM128.781 37V42H133.781V37H128.781ZM134.781 37V42H139.781V37H134.781ZM139.781 43H134.781V48H139.781V43ZM139.781 49H134.781V54H139.781V49ZM139.781 55H134.781V60H139.781V55ZM139.781 61H134.781V66H139.781V61ZM139.781 67H134.781V72H139.781V67ZM139.781 73H134.781V78H139.781V73ZM139.781 79H134.781V84H139.781V79ZM139.781 85H134.781V90H139.781V85ZM139.781 91H134.781V96H139.781V91ZM139.781 97H134.781V102H139.781V97ZM139.781 103H134.781V108H139.781V103ZM133.781 108V103H128.781V108H133.781ZM127.781 108V103H122.781V108H127.781ZM121.781 108V103H116.781V108H121.781ZM115.781 108V103H110.781V108H115.781ZM109.781 108V103H104.781V108H109.781ZM103.781 108V103H98.7812V108H103.781ZM97.7812 108V103H92.7812V108H97.7812ZM91.7812 108V103H86.7812V108H91.7812ZM85.7812 108V103H80.7812V108H85.7812ZM79.7812 108V103H74.7812V108H79.7812ZM73.7812 108V103H68.7812V108H73.7812ZM68.7812 102H73.7812V97H68.7812V102ZM68.7812 96H73.7812V91H68.7812V96ZM68.7812 90H73.7812V85H68.7812V90ZM68.7812 84H73.7812V79H68.7812V84ZM68.7812 78H73.7812V73H68.7812V78ZM68.7812 72H73.7812V67H68.7812V72ZM68.7812 66H73.7812V61H68.7812V66ZM68.7812 60H73.7812V55H68.7812V60ZM68.7812 54H73.7812V49H68.7812V54ZM68.7812 48H73.7812V43H68.7812V48ZM74.7812 43V48H79.7812V43H74.7812ZM80.7812 43V48H85.7812V43H80.7812ZM86.7812 43V48H91.7812V43H86.7812ZM92.7812 43V48H97.7812V43H92.7812ZM98.7812 43V48H103.781V43H98.7812ZM104.781 43V48H109.781V43H104.781ZM110.781 43V48H115.781V43H110.781ZM116.781 43V48H121.781V43H116.781ZM122.781 43V48H127.781V43H122.781ZM128.781 43V48H133.781V43H128.781ZM133.781 49H128.781V54H133.781V49ZM133.781 55H128.781V60H133.781V55ZM133.781 61H128.781V66H133.781V61ZM133.781 67H128.781V72H133.781V67ZM133.781 73H128.781V78H133.781V73ZM133.781 79H128.781V84H133.781V79ZM133.781 85H128.781V90H133.781V85ZM133.781 91H128.781V96H133.781V91ZM133.781 97H128.781V102H133.781V97ZM127.781 102V97H122.781V102H127.781ZM121.781 102V97H116.781V102H121.781ZM115.781 102V97H110.781V102H115.781ZM109.781 102V97H104.781V102H109.781ZM103.781 102V97H98.7812V102H103.781ZM97.7812 102V97H92.7812V102H97.7812ZM91.7812 102V97H86.7812V102H91.7812ZM85.7812 102V97H80.7812V102H85.7812ZM79.7812 102V97H74.7812V102H79.7812ZM74.7812 96H79.7812V91H74.7812V96ZM74.7812 90H79.7812V85H74.7812V90ZM74.7812 84H79.7812V79H74.7812V84ZM74.7812 78H79.7812V73H74.7812V78ZM74.7812 72H79.7812V67H74.7812V72ZM74.7812 66H79.7812V61H74.7812V66ZM74.7812 60H79.7812V55H74.7812V60ZM74.7812 54H79.7812V49H74.7812V54ZM80.7812 49V54H85.7812V49H80.7812ZM86.7812 49V54H91.7812V49H86.7812ZM92.7812 49V54H97.7812V49H92.7812ZM98.7812 49V54H103.781V49H98.7812ZM104.781 49V54H109.781V49H104.781ZM110.781 49V54H115.781V49H110.781ZM116.781 49V54H121.781V49H116.781ZM122.781 49V54H127.781V49H122.781ZM127.781 55H122.781V60H127.781V55ZM127.781 61H122.781V66H127.781V61ZM127.781 67H122.781V72H127.781V67ZM127.781 73H122.781V78H127.781V73ZM127.781 79H122.781V84H127.781V79ZM127.781 85H122.781V90H127.781V85ZM127.781 91H122.781V96H127.781V91ZM121.781 96V91H116.781V96H121.781ZM115.781 96V91H110.781V96H115.781ZM109.781 96V91H104.781V96H109.781ZM103.781 96V91H98.7812V96H103.781ZM97.7812 96V91H92.7812V96H97.7812ZM91.7812 96V91H86.7812V96H91.7812ZM85.7812 96V91H80.7812V96H85.7812ZM80.7812 90H85.7812V85H80.7812V90ZM80.7812 84H85.7812V79H80.7812V84ZM80.7812 78H85.7812V73H80.7812V78ZM80.7812 72H85.7812V67H80.7812V72ZM80.7812 66H85.7812V61H80.7812V66ZM80.7812 60H85.7812V55H80.7812V60ZM86.7812 55V60H91.7812V55H86.7812ZM92.7812 55V60H97.7812V55H92.7812ZM98.7812 55V60H103.781V55H98.7812ZM104.781 55V60H109.781V55H104.781ZM110.781 55V60H115.781V55H110.781ZM116.781 55V60H121.781V55H116.781ZM121.781 61H116.781V66H121.781V61ZM121.781 67H116.781V72H121.781V67ZM121.781 73H116.781V78H121.781V73ZM121.781 79H116.781V84H121.781V79ZM121.781 85H116.781V90H121.781V85ZM115.781 90V85H110.781V90H115.781ZM109.781 90V85H104.781V90H109.781ZM103.781 90V85H98.7812V90H103.781ZM97.7812 90V85H92.7812V90H97.7812ZM91.7812 90V85H86.7812V90H91.7812ZM86.7812 84H91.7812V79H86.7812V84ZM86.7812 78H91.7812V73H86.7812V78ZM86.7812 72H91.7812V67H86.7812V72ZM86.7812 66H91.7812V61H86.7812V66ZM92.7812 61V66H97.7812V61H92.7812ZM98.7812 61V66H103.781V61H98.7812ZM104.781 61V66H109.781V61H104.781ZM110.781 61V66H115.781V61H110.781ZM115.781 67H110.781V72H115.781V67ZM115.781 73H110.781V78H115.781V73ZM115.781 79H110.781V84H115.781V79ZM109.781 84V79H104.781V84H109.781ZM103.781 84V79H98.7812V84H103.781ZM97.7812 84V79H92.7812V84H97.7812ZM92.7812 78H97.7812V73H92.7812V78ZM92.7812 72H97.7812V67H92.7812V72ZM98.7812 67V72H103.781V67H98.7812ZM104.781 67V72H109.781V67H104.781ZM109.781 73H104.781V78H109.781V73ZM103.781 78V73H98.7812V78H103.781Z"
    fill="#FF6B82"
    fill-opacity="0.2"
  />
  <path
    fill-rule="evenodd"
    clip-rule="evenodd"
    d="M186.781 0H181.781V1H183.781V144H181.781V145H186.781V144H184.781V1H186.781V0Z"
    fill="#FF6B82"
  />
  <path
    fill-rule="evenodd"
    clip-rule="evenodd"
    d="M26.7812 66H21.7812V67H23.7812V78H21.7812V79H23.7812H24.7812H26.7812V78H24.7812V67H26.7812V66Z"
    fill="#FF6B82"
  />
  <path
    d="M189.428 76V75.0483L191.952 72.5732C192.194 72.3293 192.395 72.1127 192.556 71.9233C192.717 71.7339 192.838 71.5504 192.918 71.3729C192.999 71.1953 193.039 71.0059 193.039 70.8047C193.039 70.575 192.987 70.3786 192.883 70.2152C192.779 70.0495 192.635 69.9216 192.453 69.8317C192.271 69.7417 192.064 69.6967 191.832 69.6967C191.593 69.6967 191.383 69.7464 191.203 69.8459C191.023 69.9429 190.884 70.0814 190.784 70.2614C190.687 70.4413 190.638 70.6555 190.638 70.9041H189.385C189.385 70.4425 189.49 70.0412 189.701 69.7003C189.912 69.3594 190.202 69.0954 190.571 68.9084C190.943 68.7214 191.369 68.6278 191.849 68.6278C192.337 68.6278 192.766 68.719 193.135 68.9013C193.504 69.0836 193.791 69.3333 193.994 69.6506C194.2 69.9678 194.303 70.33 194.303 70.7372C194.303 71.0095 194.251 71.277 194.147 71.5398C194.043 71.8026 193.859 72.0937 193.597 72.4134C193.336 72.733 192.97 73.12 192.499 73.5746L191.246 74.8494V74.8991H194.413V76H189.428ZM195.351 74.6506V73.603L198.437 68.7273H199.31V70.2188H198.778L196.7 73.5107V73.5675H201.008V74.6506H195.351ZM198.82 76V74.331L198.835 73.8622V68.7273H200.077V76H198.82Z"
    fill="#FF6B82"
  />
  <path
    d="M14.4276 76V75.0483L16.9524 72.5732C17.1939 72.3293 17.3951 72.1127 17.5561 71.9233C17.7171 71.7339 17.8378 71.5504 17.9183 71.3729C17.9988 71.1953 18.0391 71.0059 18.0391 70.8047C18.0391 70.575 17.987 70.3786 17.8828 70.2152C17.7786 70.0495 17.6354 69.9216 17.4531 69.8317C17.2708 69.7417 17.0637 69.6967 16.8317 69.6967C16.5926 69.6967 16.383 69.7464 16.2031 69.8459C16.0232 69.9429 15.8835 70.0814 15.7841 70.2614C15.687 70.4413 15.6385 70.6555 15.6385 70.9041H14.3849C14.3849 70.4425 14.4903 70.0412 14.701 69.7003C14.9117 69.3594 15.2017 69.0954 15.571 68.9084C15.9427 68.7214 16.3688 68.6278 16.8494 68.6278C17.3371 68.6278 17.7656 68.719 18.1349 68.9013C18.5043 69.0836 18.7907 69.3333 18.9943 69.6506C19.2003 69.9678 19.3033 70.33 19.3033 70.7372C19.3033 71.0095 19.2512 71.277 19.147 71.5398C19.0429 71.8026 18.8594 72.0937 18.5966 72.4134C18.3362 72.733 17.9704 73.12 17.4993 73.5746L16.2457 74.8494V74.8991H19.4134V76H14.4276Z"
    fill="#FF6B82"
  />
  <path
    d="M104.281 24L95.7812 32.5L129.474 66H55.7812V79H129.474L95.7812 112.5L104.281 121L152.281 72.5L104.281 24Z"
    fill="#002033"
  />
  <rect
    x="24.7812"
    y="66"
    width="121"
    height="13"
    fill="#FF6B82"
    fill-opacity="0.4"
  />
  <rect x="280.281" y="23.5" width="96" height="96" stroke="#FF6B82" />
  <path
    fill-rule="evenodd"
    clip-rule="evenodd"
    d="M286.781 24H285.781V29H280.781V30H285.781V35H280.781V36H285.781V41H280.781V42H285.781V47H280.781V48H285.781V53H280.781V54H285.781V59H280.781V60H285.781V65H280.781V66H285.781V71H280.781V72H285.781V77H280.781V78H285.781V83H280.781V84H285.781V89H280.781V90H285.781V95H280.781V96H285.781V101H280.781V102H285.781V107H280.781V108H285.781V113H280.781V114H285.781V119H286.781V114H291.781V119H292.781V114H297.781V119H298.781V114H303.781V119H304.781V114H309.781V119H310.781V114H315.781V119H316.781V114H321.781V119H322.781V114H327.781V119H328.781V114H333.781V119H334.781V114H339.781V119H340.781V114H345.781V119H346.781V114H351.781V119H352.781V114H357.781V119H358.781V114H363.781V119H364.781V114H369.781V119H370.781V114H375.781V113H370.781V108H375.781V107H370.781V102H375.781V101H370.781V96H375.781V95H370.781V90H375.781V89H370.781V84H375.781V83H370.781V78H375.781V77H370.781V72H375.781V71H370.781V66H375.781V65H370.781V60H375.781V59H370.781V54H375.781V53H370.781V48H375.781V47H370.781V42H375.781V41H370.781V36H375.781V35H370.781V30H375.781V29H370.781V24H369.781V29H364.781V24H363.781V29H358.781V24H357.781V29H352.781V24H351.781V29H346.781V24H345.781V29H340.781V24H339.781V29H334.781V24H333.781V29H328.781V24H327.781V29H322.781V24H321.781V29H316.781V24H315.781V29H310.781V24H309.781V29H304.781V24H303.781V29H298.781V24H297.781V29H292.781V24H291.781V29H286.781V24ZM286.781 30V35H291.781V30H286.781ZM292.781 30V35H297.781V30H292.781ZM298.781 30V35H303.781V30H298.781ZM304.781 30V35H309.781V30H304.781ZM310.781 30V35H315.781V30H310.781ZM316.781 30V35H321.781V30H316.781ZM322.781 30V35H327.781V30H322.781ZM328.781 30V35H333.781V30H328.781ZM334.781 30V35H339.781V30H334.781ZM340.781 30V35H345.781V30H340.781ZM346.781 30V35H351.781V30H346.781ZM352.781 30V35H357.781V30H352.781ZM358.781 30V35H363.781V30H358.781ZM364.781 30V35H369.781V30H364.781ZM369.781 36H364.781V41H369.781V36ZM369.781 42H364.781V47H369.781V42ZM369.781 48H364.781V53H369.781V48ZM369.781 54H364.781V59H369.781V54ZM369.781 60H364.781V65H369.781V60ZM369.781 66H364.781V71H369.781V66ZM369.781 72H364.781V77H369.781V72ZM369.781 78H364.781V83H369.781V78ZM369.781 84H364.781V89H369.781V84ZM369.781 90H364.781V95H369.781V90ZM369.781 96H364.781V101H369.781V96ZM369.781 102H364.781V107H369.781V102ZM369.781 108H364.781V113H369.781V108ZM363.781 113V108H358.781V113H363.781ZM357.781 113V108H352.781V113H357.781ZM351.781 113V108H346.781V113H351.781ZM345.781 113V108H340.781V113H345.781ZM339.781 113V108H334.781V113H339.781ZM333.781 113V108H328.781V113H333.781ZM327.781 113V108H322.781V113H327.781ZM321.781 113V108H316.781V113H321.781ZM315.781 113V108H310.781V113H315.781ZM309.781 113V108H304.781V113H309.781ZM303.781 113V108H298.781V113H303.781ZM297.781 113V108H292.781V113H297.781ZM291.781 113V108H286.781V113H291.781ZM286.781 107H291.781V102H286.781V107ZM286.781 101H291.781V96H286.781V101ZM286.781 95H291.781V90H286.781V95ZM286.781 89H291.781V84H286.781V89ZM286.781 83H291.781V78H286.781V83ZM286.781 77H291.781V72H286.781V77ZM286.781 71H291.781V66H286.781V71ZM286.781 65H291.781V60H286.781V65ZM286.781 59H291.781V54H286.781V59ZM286.781 53H291.781V48H286.781V53ZM286.781 47H291.781V42H286.781V47ZM286.781 41H291.781V36H286.781V41ZM292.781 36V41H297.781V36H292.781ZM298.781 36V41H303.781V36H298.781ZM304.781 36V41H309.781V36H304.781ZM310.781 36V41H315.781V36H310.781ZM316.781 36V41H321.781V36H316.781ZM322.781 36V41H327.781V36H322.781ZM328.781 36V41H333.781V36H328.781ZM334.781 36V41H339.781V36H334.781ZM340.781 36V41H345.781V36H340.781ZM346.781 36V41H351.781V36H346.781ZM352.781 36V41H357.781V36H352.781ZM358.781 36V41H363.781V36H358.781ZM363.781 42H358.781V47H363.781V42ZM363.781 48H358.781V53H363.781V48ZM363.781 54H358.781V59H363.781V54ZM363.781 60H358.781V65H363.781V60ZM363.781 66H358.781V71H363.781V66ZM363.781 72H358.781V77H363.781V72ZM363.781 78H358.781V83H363.781V78ZM363.781 84H358.781V89H363.781V84ZM363.781 90H358.781V95H363.781V90ZM363.781 96H358.781V101H363.781V96ZM363.781 102H358.781V107H363.781V102ZM357.781 107V102H352.781V107H357.781ZM351.781 107V102H346.781V107H351.781ZM345.781 107V102H340.781V107H345.781ZM339.781 107V102H334.781V107H339.781ZM333.781 107V102H328.781V107H333.781ZM327.781 107V102H322.781V107H327.781ZM321.781 107V102H316.781V107H321.781ZM315.781 107V102H310.781V107H315.781ZM309.781 107V102H304.781V107H309.781ZM303.781 107V102H298.781V107H303.781ZM297.781 107V102H292.781V107H297.781ZM292.781 101H297.781V96H292.781V101ZM292.781 95H297.781V90H292.781V95ZM292.781 89H297.781V84H292.781V89ZM292.781 83H297.781V78H292.781V83ZM292.781 77H297.781V72H292.781V77ZM292.781 71H297.781V66H292.781V71ZM292.781 65H297.781V60H292.781V65ZM292.781 59H297.781V54H292.781V59ZM292.781 53H297.781V48H292.781V53ZM292.781 47H297.781V42H292.781V47ZM298.781 42V47H303.781V42H298.781ZM304.781 42V47H309.781V42H304.781ZM310.781 42V47H315.781V42H310.781ZM316.781 42V47H321.781V42H316.781ZM322.781 42V47H327.781V42H322.781ZM328.781 42V47H333.781V42H328.781ZM334.781 42V47H339.781V42H334.781ZM340.781 42V47H345.781V42H340.781ZM346.781 42V47H351.781V42H346.781ZM352.781 42V47H357.781V42H352.781ZM357.781 48H352.781V53H357.781V48ZM357.781 54H352.781V59H357.781V54ZM357.781 60H352.781V65H357.781V60ZM357.781 66H352.781V71H357.781V66ZM357.781 72H352.781V77H357.781V72ZM357.781 78H352.781V83H357.781V78ZM357.781 84H352.781V89H357.781V84ZM357.781 90H352.781V95H357.781V90ZM357.781 96H352.781V101H357.781V96ZM351.781 101V96H346.781V101H351.781ZM345.781 101V96H340.781V101H345.781ZM339.781 101V96H334.781V101H339.781ZM333.781 101V96H328.781V101H333.781ZM327.781 101V96H322.781V101H327.781ZM321.781 101V96H316.781V101H321.781ZM315.781 101V96H310.781V101H315.781ZM309.781 101V96H304.781V101H309.781ZM303.781 101V96H298.781V101H303.781ZM298.781 95H303.781V90H298.781V95ZM298.781 89H303.781V84H298.781V89ZM298.781 83H303.781V78H298.781V83ZM298.781 77H303.781V72H298.781V77ZM298.781 71H303.781V66H298.781V71ZM298.781 65H303.781V60H298.781V65ZM298.781 59H303.781V54H298.781V59ZM298.781 53H303.781V48H298.781V53ZM304.781 48V53H309.781V48H304.781ZM310.781 48V53H315.781V48H310.781ZM316.781 48V53H321.781V48H316.781ZM322.781 48V53H327.781V48H322.781ZM328.781 48V53H333.781V48H328.781ZM334.781 48V53H339.781V48H334.781ZM340.781 48V53H345.781V48H340.781ZM346.781 48V53H351.781V48H346.781ZM351.781 54H346.781V59H351.781V54ZM351.781 60H346.781V65H351.781V60ZM351.781 66H346.781V71H351.781V66ZM351.781 72H346.781V77H351.781V72ZM351.781 78H346.781V83H351.781V78ZM351.781 84H346.781V89H351.781V84ZM351.781 90H346.781V95H351.781V90ZM345.781 95V90H340.781V95H345.781ZM339.781 95V90H334.781V95H339.781ZM333.781 95V90H328.781V95H333.781ZM327.781 95V90H322.781V95H327.781ZM321.781 95V90H316.781V95H321.781ZM315.781 95V90H310.781V95H315.781ZM309.781 95V90H304.781V95H309.781ZM304.781 89H309.781V84H304.781V89ZM304.781 83H309.781V78H304.781V83ZM304.781 77H309.781V72H304.781V77ZM304.781 71H309.781V66H304.781V71ZM304.781 65H309.781V60H304.781V65ZM304.781 59H309.781V54H304.781V59ZM310.781 54V59H315.781V54H310.781ZM316.781 54V59H321.781V54H316.781ZM322.781 54V59H327.781V54H322.781ZM328.781 54V59H333.781V54H328.781ZM334.781 54V59H339.781V54H334.781ZM340.781 54V59H345.781V54H340.781ZM345.781 60H340.781V65H345.781V60ZM345.781 66H340.781V71H345.781V66ZM345.781 72H340.781V77H345.781V72ZM345.781 78H340.781V83H345.781V78ZM345.781 84H340.781V89H345.781V84ZM339.781 89V84H334.781V89H339.781ZM333.781 89V84H328.781V89H333.781ZM327.781 89V84H322.781V89H327.781ZM321.781 89V84H316.781V89H321.781ZM315.781 89V84H310.781V89H315.781ZM310.781 83H315.781V78H310.781V83ZM310.781 77H315.781V72H310.781V77ZM310.781 71H315.781V66H310.781V71ZM310.781 65H315.781V60H310.781V65ZM316.781 60V65H321.781V60H316.781ZM322.781 60V65H327.781V60H322.781ZM328.781 60V65H333.781V60H328.781ZM334.781 60V65H339.781V60H334.781ZM339.781 66H334.781V71H339.781V66ZM339.781 72H334.781V77H339.781V72ZM339.781 78H334.781V83H339.781V78ZM333.781 83V78H328.781V83H333.781ZM327.781 83V78H322.781V83H327.781ZM321.781 83V78H316.781V83H321.781ZM316.781 77H321.781V72H316.781V77ZM316.781 71H321.781V66H316.781V71ZM322.781 66V71H327.781V66H322.781ZM328.781 66V71H333.781V66H328.781ZM333.781 72H328.781V77H333.781V72ZM327.781 77V72H322.781V77H327.781Z"
    fill="#FF6B82"
    fill-opacity="0.2"
  />
  <path
    fill-rule="evenodd"
    clip-rule="evenodd"
    d="M383.781 24H381.781V25H383.781V118H381.781V119H383.781H384.781H386.781V118H384.781V25H386.781V24H384.781H383.781Z"
    fill="#FF6B82"
  />
  <path
    fill-rule="evenodd"
    clip-rule="evenodd"
    d="M274.781 65H269.781V66H271.781V77H269.781V78H271.781H272.781H274.781V77H272.781V66H274.781V65Z"
    fill="#FF6B82"
  />
  <path
    d="M392.386 68.7273V76H391.068V70.0092H391.026L389.325 71.0959V69.8885L391.132 68.7273H392.386ZM396.896 76.0994C396.548 76.0971 396.208 76.0367 395.876 75.9183C395.545 75.7976 395.247 75.6023 394.982 75.3324C394.716 75.0601 394.506 74.6991 394.349 74.2493C394.193 73.7971 394.116 73.2372 394.119 72.5696C394.119 71.947 394.185 71.3918 394.317 70.9041C394.45 70.4164 394.641 70.0045 394.889 69.6683C395.138 69.3298 395.437 69.0717 395.788 68.8942C396.14 68.7166 396.535 68.6278 396.97 68.6278C397.427 68.6278 397.832 68.7178 398.185 68.8977C398.54 69.0777 398.826 69.3239 399.044 69.6364C399.262 69.9465 399.397 70.2969 399.449 70.6875H398.153C398.086 70.4081 397.95 70.1856 397.744 70.0199C397.541 69.8518 397.283 69.7678 396.97 69.7678C396.466 69.7678 396.078 69.9867 395.805 70.4247C395.536 70.8627 395.399 71.464 395.397 72.2287H395.447C395.563 72.0204 395.713 71.8416 395.898 71.6925C396.082 71.5433 396.291 71.4285 396.523 71.348C396.757 71.2652 397.004 71.2237 397.265 71.2237C397.691 71.2237 398.073 71.3255 398.412 71.5291C398.753 71.7327 399.023 72.0133 399.222 72.3707C399.42 72.7259 399.519 73.133 399.516 73.5923C399.519 74.0705 399.41 74.5002 399.19 74.8814C398.969 75.2602 398.663 75.5585 398.27 75.7763C397.877 75.9941 397.419 76.1018 396.896 76.0994ZM396.888 75.0341C397.147 75.0341 397.377 74.9714 397.581 74.8459C397.785 74.7204 397.946 74.5511 398.064 74.3381C398.182 74.125 398.24 73.8859 398.238 73.6207C398.24 73.3603 398.183 73.1248 398.067 72.9141C397.954 72.7034 397.796 72.5365 397.595 72.4134C397.394 72.2902 397.164 72.2287 396.906 72.2287C396.714 72.2287 396.536 72.2654 396.37 72.3388C396.204 72.4122 396.06 72.514 395.937 72.6442C395.814 72.772 395.717 72.9212 395.646 73.0916C395.577 73.2597 395.541 73.4396 395.539 73.6314C395.541 73.8847 395.601 74.1179 395.717 74.331C395.833 74.544 395.992 74.7145 396.196 74.8423C396.4 74.9702 396.63 75.0341 396.888 75.0341Z"
    fill="#FF6B82"
  />
  <path
    d="M262.428 75V74.0483L264.952 71.5732C265.194 71.3293 265.395 71.1127 265.556 70.9233C265.717 70.7339 265.838 70.5504 265.918 70.3729C265.999 70.1953 266.039 70.0059 266.039 69.8047C266.039 69.575 265.987 69.3786 265.883 69.2152C265.779 69.0495 265.635 68.9216 265.453 68.8317C265.271 68.7417 265.064 68.6967 264.832 68.6967C264.593 68.6967 264.383 68.7464 264.203 68.8459C264.023 68.9429 263.884 69.0814 263.784 69.2614C263.687 69.4413 263.638 69.6555 263.638 69.9041H262.385C262.385 69.4425 262.49 69.0412 262.701 68.7003C262.912 68.3594 263.202 68.0954 263.571 67.9084C263.943 67.7214 264.369 67.6278 264.849 67.6278C265.337 67.6278 265.766 67.719 266.135 67.9013C266.504 68.0836 266.791 68.3333 266.994 68.6506C267.2 68.9678 267.303 69.33 267.303 69.7372C267.303 70.0095 267.251 70.277 267.147 70.5398C267.043 70.8026 266.859 71.0937 266.597 71.4134C266.336 71.733 265.97 72.12 265.499 72.5746L264.246 73.8494V73.8991H267.413V75H262.428Z"
    fill="#FF6B82"
  />
  <path
    d="M341.684 65L321.781 46L330.781 37.5L364.281 71.5L330.781 105.5L321.781 97L341.684 78H291.781V65H341.684Z"
    fill="#002033"
  />
  <rect
    x="272.781"
    y="65"
    width="85"
    height="13"
    fill="#FF6B82"
    fill-opacity="0.4"
  />
  <rect x="517.281" y="35.5" width="72" height="72" stroke="#EB5757" />
  <path
    fill-rule="evenodd"
    clip-rule="evenodd"
    d="M523.781 36H522.781V41H517.781V42H522.781V47H517.781V48H522.781V53H517.781V54H522.781V59H517.781V60H522.781V65H517.781V66H522.781V71H517.781V72H522.781V77H517.781V78H522.781V83H517.781V84H522.781V89H517.781V90H522.781V95H517.781V96H522.781V101H517.781V102H522.781V107H523.781V102H528.781V107H529.781V102H534.781V107H535.781V102H540.781V107H541.781V102H546.781V107H547.781V102H552.781V107H553.781V102H558.781V107H559.781V102H564.781V107H565.781V102H570.781V107H571.781V102H576.781V107H577.781V102H582.781V107H583.781V102H588.781V101H583.781V96H588.781V95H583.781V90H588.781V89H583.781V84H588.781V83H583.781V78H588.781V77H583.781V72H588.781V71H583.781V66H588.781V65H583.781V60H588.781V59H583.781V54H588.781V53H583.781V48H588.781V47H583.781V42H588.781V41H583.781V36H582.781V41H577.781V36H576.781V41H571.781V36H570.781V41H565.781V36H564.781V41H559.781V36H558.781V41H553.781V36H552.781V41H547.781V36H546.781V41H541.781V36H540.781V41H535.781V36H534.781V41H529.781V36H528.781V41H523.781V36ZM523.781 42V47H528.781V42H523.781ZM529.781 42V47H534.781V42H529.781ZM535.781 42V47H540.781V42H535.781ZM541.781 42V47H546.781V42H541.781ZM547.781 42V47H552.781V42H547.781ZM553.781 42V47H558.781V42H553.781ZM559.781 42V47H564.781V42H559.781ZM565.781 42V47H570.781V42H565.781ZM571.781 42V47H576.781V42H571.781ZM577.781 42V47H582.781V42H577.781ZM582.781 48H577.781V53H582.781V48ZM582.781 54H577.781V59H582.781V54ZM582.781 60H577.781V65H582.781V60ZM582.781 66H577.781V71H582.781V66ZM582.781 72H577.781V77H582.781V72ZM582.781 78H577.781V83H582.781V78ZM582.781 84H577.781V89H582.781V84ZM582.781 90H577.781V95H582.781V90ZM582.781 96H577.781V101H582.781V96ZM576.781 101V96H571.781V101H576.781ZM570.781 101V96H565.781V101H570.781ZM564.781 101V96H559.781V101H564.781ZM558.781 101V96H553.781V101H558.781ZM552.781 101V96H547.781V101H552.781ZM546.781 101V96H541.781V101H546.781ZM540.781 101V96H535.781V101H540.781ZM534.781 101V96H529.781V101H534.781ZM528.781 101V96H523.781V101H528.781ZM523.781 95H528.781V90H523.781V95ZM523.781 89H528.781V84H523.781V89ZM523.781 83H528.781V78H523.781V83ZM523.781 77H528.781V72H523.781V77ZM523.781 71H528.781V66H523.781V71ZM523.781 65H528.781V60H523.781V65ZM523.781 59H528.781V54H523.781V59ZM523.781 53H528.781V48H523.781V53ZM529.781 48V53H534.781V48H529.781ZM535.781 48V53H540.781V48H535.781ZM541.781 48V53H546.781V48H541.781ZM547.781 48V53H552.781V48H547.781ZM553.781 48V53H558.781V48H553.781ZM559.781 48V53H564.781V48H559.781ZM565.781 48V53H570.781V48H565.781ZM571.781 48V53H576.781V48H571.781ZM576.781 54H571.781V59H576.781V54ZM576.781 60H571.781V65H576.781V60ZM576.781 66H571.781V71H576.781V66ZM576.781 72H571.781V77H576.781V72ZM576.781 78H571.781V83H576.781V78ZM576.781 84H571.781V89H576.781V84ZM576.781 90H571.781V95H576.781V90ZM570.781 95V90H565.781V95H570.781ZM564.781 95V90H559.781V95H564.781ZM558.781 95V90H553.781V95H558.781ZM552.781 95V90H547.781V95H552.781ZM546.781 95V90H541.781V95H546.781ZM540.781 95V90H535.781V95H540.781ZM534.781 95V90H529.781V95H534.781ZM529.781 89H534.781V84H529.781V89ZM529.781 83H534.781V78H529.781V83ZM529.781 77H534.781V72H529.781V77ZM529.781 71H534.781V66H529.781V71ZM529.781 65H534.781V60H529.781V65ZM529.781 59H534.781V54H529.781V59ZM535.781 54V59H540.781V54H535.781ZM541.781 54V59H546.781V54H541.781ZM547.781 54V59H552.781V54H547.781ZM553.781 54V59H558.781V54H553.781ZM559.781 54V59H564.781V54H559.781ZM565.781 54V59H570.781V54H565.781ZM570.781 60H565.781V65H570.781V60ZM570.781 66H565.781V71H570.781V66ZM570.781 72H565.781V77H570.781V72ZM570.781 78H565.781V83H570.781V78ZM570.781 84H565.781V89H570.781V84ZM564.781 89V84H559.781V89H564.781ZM558.781 89V84H553.781V89H558.781ZM552.781 89V84H547.781V89H552.781ZM546.781 89V84H541.781V89H546.781ZM540.781 89V84H535.781V89H540.781ZM535.781 83H540.781V78H535.781V83ZM535.781 77H540.781V72H535.781V77ZM535.781 71H540.781V66H535.781V71ZM535.781 65H540.781V60H535.781V65ZM541.781 60V65H546.781V60H541.781ZM547.781 60V65H552.781V60H547.781ZM553.781 60V65H558.781V60H553.781ZM559.781 60V65H564.781V60H559.781ZM564.781 66H559.781V71H564.781V66ZM564.781 72H559.781V77H564.781V72ZM564.781 78H559.781V83H564.781V78ZM558.781 83V78H553.781V83H558.781ZM552.781 83V78H547.781V83H552.781ZM546.781 83V78H541.781V83H546.781ZM541.781 77H546.781V72H541.781V77ZM541.781 71H546.781V66H541.781V71ZM547.781 66V71H552.781V66H547.781ZM553.781 66V71H558.781V66H553.781ZM558.781 72H553.781V77H558.781V72ZM552.781 77V72H547.781V77H552.781Z"
    fill="#FF6B82"
    fill-opacity="0.2"
  />
  <path
    fill-rule="evenodd"
    clip-rule="evenodd"
    d="M596.781 36H594.781V37H596.781V106H594.781V107H596.781H597.781H599.781V106H597.781V37H599.781V36H597.781H596.781Z"
    fill="#FF6B82"
  />
  <path
    fill-rule="evenodd"
    clip-rule="evenodd"
    d="M511.781 71H506.781V72H508.781V77H506.781V78H508.781H509.781H511.781V77H509.781V72H511.781V71Z"
    fill="#FF6B82"
  />
  <path
    d="M605.386 68.7273V76H604.068V70.0092H604.026L602.325 71.0959V69.8885L604.132 68.7273H605.386ZM607.232 76V75.0483L609.757 72.5732C609.999 72.3293 610.2 72.1127 610.361 71.9233C610.522 71.7339 610.643 71.5504 610.723 71.3729C610.804 71.1953 610.844 71.0059 610.844 70.8047C610.844 70.575 610.792 70.3786 610.688 70.2152C610.583 70.0495 610.44 69.9216 610.258 69.8317C610.076 69.7417 609.868 69.6967 609.636 69.6967C609.397 69.6967 609.188 69.7464 609.008 69.8459C608.828 69.9429 608.688 70.0814 608.589 70.2614C608.492 70.4413 608.443 70.6555 608.443 70.9041H607.19C607.19 70.4425 607.295 70.0412 607.506 69.7003C607.716 69.3594 608.006 69.0954 608.376 68.9084C608.747 68.7214 609.174 68.6278 609.654 68.6278C610.142 68.6278 610.57 68.719 610.94 68.9013C611.309 69.0836 611.595 69.3333 611.799 69.6506C612.005 69.9678 612.108 70.33 612.108 70.7372C612.108 71.0095 612.056 71.277 611.952 71.5398C611.848 71.8026 611.664 72.0937 611.401 72.4134C611.141 72.733 610.775 73.12 610.304 73.5746L609.05 74.8494V74.8991H612.218V76H607.232Z"
    fill="#FF6B82"
  />
  <path
    d="M502.386 70.7273V78H501.068V72.0092H501.026L499.325 73.0959V71.8885L501.132 70.7273H502.386Z"
    fill="#FF6B82"
  />
  <path
    d="M566.781 78H528.781V71H566.781L551.281 56.5L554.281 53L577.281 74.5L554.281 96L551.281 93L566.781 78Z"
    fill="#002033"
  />
  <rect
    x="509.781"
    y="71"
    width="63"
    height="7"
    fill="#FF6B82"
    fill-opacity="0.4"
  />
</svg>
