<svg
  width="598"
  height="145"
  viewBox="0 0 598 145"
  fill="none"
  xmlns="http://www.w3.org/2000/svg"
>
  <rect x="18" y="0.5" width="144" height="144" stroke="#FF6B82" />
  <path
    fill-rule="evenodd"
    clip-rule="evenodd"
    d="M23.5 1H24.5V144H23.5V1ZM35.5 1H36.5V144H35.5V1ZM48.5 1H47.5V144H48.5V1ZM59.5 1H60.5V144H59.5V1ZM72.5 1H71.5V144H72.5V1ZM83.5 1H84.5V144H83.5V1ZM96.5 1H95.5V144H96.5V1ZM107.5 1H108.5V144H107.5V1ZM120.5 1H119.5V144H120.5V1ZM131.5 1H132.5V144H131.5V1ZM144.5 1H143.5V144H144.5V1ZM155.5 1H156.5V144H155.5V1ZM30.5 1H29.5V144H30.5V1ZM41.5 1H42.5V144H41.5V1ZM54.5 1H53.5V144H54.5V1ZM65.5 1H66.5V144H65.5V1ZM78.5 1H77.5V144H78.5V1ZM89.5 1H90.5V144H89.5V1ZM102.5 1H101.5V144H102.5V1ZM113.5 1H114.5V144H113.5V1ZM126.5 1H125.5V144H126.5V1ZM137.5 1H138.5V144H137.5V1ZM150.5 1H149.5V144H150.5V1Z"
    fill="#F7E5E5"
  />
  <path
    fill-rule="evenodd"
    clip-rule="evenodd"
    d="M18.5 139V138H161.5V139H18.5ZM18.5 127V126H161.5V127H18.5ZM18.5 114V115H161.5V114H18.5ZM18.5 103V102H161.5V103H18.5ZM18.5 90V91H161.5V90H18.5ZM18.5 79V78H161.5V79H18.5ZM18.5 66V67L161.5 67V66L18.5 66ZM18.5 55V54L161.5 54V55L18.5 55ZM18.5 42L18.5 43L161.5 43V42L18.5 42ZM18.5 31V30L161.5 30V31L18.5 31ZM18.5 18V19L161.5 19V18L18.5 18ZM18.5 7V6H161.5V7H18.5ZM18.5 132V133H161.5V132H18.5ZM18.5 121V120H161.5V121H18.5ZM18.5 108V109H161.5V108H18.5ZM18.5 97V96H161.5V97H18.5ZM18.5 84V85H161.5V84H18.5ZM18.5 73V72L161.5 72V73L18.5 73ZM18.5 60V61L161.5 61V60L18.5 60ZM18.5 49V48L161.5 48V49L18.5 49ZM18.5 36V37L161.5 37V36L18.5 36ZM18.5 25V24L161.5 24V25L18.5 25ZM18.5 12V13L161.5 13V12L18.5 12Z"
    fill="#F7E5E5"
  />
  <path
    fill-rule="evenodd"
    clip-rule="evenodd"
    d="M172.5 0H167.5V1H169.5V144H167.5V145H172.5V144H170.5V1H172.5V0Z"
    fill="#FF6B82"
  />
  <path
    fill-rule="evenodd"
    clip-rule="evenodd"
    d="M12.5 66H7.5V67H9.5V78H7.5V79H9.5H10.5H12.5V78H10.5V67H12.5V66Z"
    fill="#FF6B82"
  />
  <path
    d="M175.146 76V75.0483L177.671 72.5732C177.913 72.3293 178.114 72.1127 178.275 71.9233C178.436 71.7339 178.557 71.5504 178.637 71.3729C178.718 71.1953 178.758 71.0059 178.758 70.8047C178.758 70.575 178.706 70.3786 178.602 70.2152C178.497 70.0495 178.354 69.9216 178.172 69.8317C177.99 69.7417 177.782 69.6967 177.55 69.6967C177.311 69.6967 177.102 69.7464 176.922 69.8459C176.742 69.9429 176.602 70.0814 176.503 70.2614C176.406 70.4413 176.357 70.6555 176.357 70.9041H175.104C175.104 70.4425 175.209 70.0412 175.42 69.7003C175.63 69.3594 175.92 69.0954 176.29 68.9084C176.661 68.7214 177.088 68.6278 177.568 68.6278C178.056 68.6278 178.484 68.719 178.854 68.9013C179.223 69.0836 179.509 69.3333 179.713 69.6506C179.919 69.9678 180.022 70.33 180.022 70.7372C180.022 71.0095 179.97 71.277 179.866 71.5398C179.762 71.8026 179.578 72.0937 179.315 72.4134C179.055 72.733 178.689 73.12 178.218 73.5746L176.964 74.8494V74.8991H180.132V76H175.146ZM181.07 74.6506V73.603L184.156 68.7273H185.029V70.2188H184.496L182.419 73.5107V73.5675H186.727V74.6506H181.07ZM184.539 76V74.331L184.553 73.8622V68.7273H185.796V76H184.539Z"
    fill="#FF6B82"
  />
  <path
    d="M0.146307 76V75.0483L2.67116 72.5732C2.91264 72.3293 3.11387 72.1127 3.27486 71.9233C3.43584 71.7339 3.55658 71.5504 3.63707 71.3729C3.71757 71.1953 3.75781 71.0059 3.75781 70.8047C3.75781 70.575 3.70573 70.3786 3.60156 70.2152C3.4974 70.0495 3.35417 69.9216 3.17188 69.8317C2.98958 69.7417 2.78243 69.6967 2.55043 69.6967C2.31132 69.6967 2.1018 69.7464 1.92188 69.8459C1.74195 69.9429 1.60227 70.0814 1.50284 70.2614C1.40578 70.4413 1.35724 70.6555 1.35724 70.9041H0.103693C0.103693 70.4425 0.209044 70.0412 0.419744 69.7003C0.630445 69.3594 0.920455 69.0954 1.28977 68.9084C1.66146 68.7214 2.08759 68.6278 2.56818 68.6278C3.05587 68.6278 3.48438 68.719 3.85369 68.9013C4.22301 69.0836 4.50947 69.3333 4.71307 69.6506C4.91903 69.9678 5.02202 70.33 5.02202 70.7372C5.02202 71.0095 4.96993 71.277 4.86577 71.5398C4.7616 71.8026 4.57813 72.0937 4.31534 72.4134C4.05492 72.733 3.68916 73.12 3.21804 73.5746L1.96449 74.8494V74.8991H5.1321V76H0.146307Z"
    fill="#FF6B82"
  />
  <path
    d="M89.9993 24L81.5 32.5L115.193 66H41.5V79H115.193L81.5 112.5L89.9993 121L138 72.5L89.9993 24Z"
    fill="black"
  />
  <rect
    x="10.5"
    y="66"
    width="121"
    height="13"
    fill="#FF6B82"
    fill-opacity="0.4"
  />
  <rect x="266" y="23.5" width="96" height="96" stroke="#FF6B82" />
  <path
    fill-rule="evenodd"
    clip-rule="evenodd"
    d="M271.5 24H272.5V119H271.5V24ZM283.5 24H284.5V119H283.5V24ZM296.5 24H295.5V119H296.5V24ZM307.5 24H308.5V119H307.5V24ZM320.5 24H319.5V119H320.5V24ZM331.5 24H332.5V119H331.5V24ZM344.5 24H343.5V119H344.5V24ZM355.5 24H356.5V119H355.5V24ZM278.5 24H277.5V119H278.5V24ZM289.5 24H290.5V119H289.5V24ZM302.5 24H301.5V119H302.5V24ZM313.5 24H314.5V119H313.5V24ZM326.5 24H325.5V119H326.5V24ZM337.5 24H338.5V119H337.5V24ZM350.5 24H349.5V119H350.5V24Z"
    fill="#F7E5E5"
  />
  <path
    fill-rule="evenodd"
    clip-rule="evenodd"
    d="M266.5 114V113H361.5V114H266.5ZM266.5 102V101H361.5V102H266.5ZM266.5 89V90H361.5V89H266.5ZM266.5 78V77H361.5V78H266.5ZM266.5 65V66H361.5V65H266.5ZM266.5 54V53L361.5 53V54L266.5 54ZM266.5 41V42H361.5V41H266.5ZM266.5 30V29H361.5V30H266.5ZM266.5 107V108H361.5V107H266.5ZM266.5 96V95H361.5V96H266.5ZM266.5 83V84H361.5V83H266.5ZM266.5 72V71H361.5V72H266.5ZM266.5 59V60L361.5 60V59L266.5 59ZM266.5 48V47H361.5V48H266.5ZM266.5 35V36H361.5V35H266.5Z"
    fill="#F7E5E5"
  />
  <path
    fill-rule="evenodd"
    clip-rule="evenodd"
    d="M369.5 24H367.5V25H369.5V118H367.5V119H369.5H370.5H372.5V118H370.5V25H372.5V24H370.5H369.5Z"
    fill="#FF6B82"
  />
  <path
    fill-rule="evenodd"
    clip-rule="evenodd"
    d="M260.5 65H255.5V66H257.5V77H255.5V78H257.5H258.5H260.5V77H258.5V66H260.5V65Z"
    fill="#FF6B82"
  />
  <path
    d="M378.104 68.7273V76H376.787V70.0092H376.744L375.043 71.0959V69.8885L376.851 68.7273H378.104ZM382.614 76.0994C382.266 76.0971 381.927 76.0367 381.595 75.9183C381.264 75.7976 380.965 75.6023 380.7 75.3324C380.435 75.0601 380.224 74.6991 380.068 74.2493C379.912 73.7971 379.835 73.2372 379.837 72.5696C379.837 71.947 379.904 71.3918 380.036 70.9041C380.169 70.4164 380.359 70.0045 380.608 69.6683C380.857 69.3298 381.156 69.0717 381.506 68.8942C381.859 68.7166 382.253 68.6278 382.689 68.6278C383.146 68.6278 383.551 68.7178 383.903 68.8977C384.259 69.0777 384.545 69.3239 384.763 69.6364C384.981 69.9465 385.116 70.2969 385.168 70.6875H383.871C383.805 70.4081 383.669 70.1856 383.463 70.0199C383.259 69.8518 383.001 69.7678 382.689 69.7678C382.185 69.7678 381.796 69.9867 381.524 70.4247C381.254 70.8627 381.118 71.464 381.116 72.2287H381.165C381.281 72.0204 381.432 71.8416 381.616 71.6925C381.801 71.5433 382.009 71.4285 382.241 71.348C382.476 71.2652 382.723 71.2237 382.984 71.2237C383.41 71.2237 383.792 71.3255 384.131 71.5291C384.472 71.7327 384.741 72.0133 384.94 72.3707C385.139 72.7259 385.237 73.133 385.235 73.5923C385.237 74.0705 385.129 74.5002 384.908 74.8814C384.688 75.2602 384.382 75.5585 383.989 75.7763C383.596 75.9941 383.138 76.1018 382.614 76.0994ZM382.607 75.0341C382.865 75.0341 383.096 74.9714 383.3 74.8459C383.503 74.7204 383.664 74.5511 383.783 74.3381C383.901 74.125 383.959 73.8859 383.957 73.6207C383.959 73.3603 383.902 73.1248 383.786 72.9141C383.673 72.7034 383.515 72.5365 383.314 72.4134C383.113 72.2902 382.883 72.2287 382.625 72.2287C382.433 72.2287 382.254 72.2654 382.089 72.3388C381.923 72.4122 381.779 72.514 381.656 72.6442C381.532 72.772 381.435 72.9212 381.364 73.0916C381.296 73.2597 381.26 73.4396 381.258 73.6314C381.26 73.8847 381.319 74.1179 381.435 74.331C381.551 74.544 381.711 74.7145 381.915 74.8423C382.118 74.9702 382.349 75.0341 382.607 75.0341Z"
    fill="#FF6B82"
  />
  <path
    d="M248.146 75V74.0483L250.671 71.5732C250.913 71.3293 251.114 71.1127 251.275 70.9233C251.436 70.7339 251.557 70.5504 251.637 70.3729C251.718 70.1953 251.758 70.0059 251.758 69.8047C251.758 69.575 251.706 69.3786 251.602 69.2152C251.497 69.0495 251.354 68.9216 251.172 68.8317C250.99 68.7417 250.782 68.6967 250.55 68.6967C250.311 68.6967 250.102 68.7464 249.922 68.8459C249.742 68.9429 249.602 69.0814 249.503 69.2614C249.406 69.4413 249.357 69.6555 249.357 69.9041H248.104C248.104 69.4425 248.209 69.0412 248.42 68.7003C248.63 68.3594 248.92 68.0954 249.29 67.9084C249.661 67.7214 250.088 67.6278 250.568 67.6278C251.056 67.6278 251.484 67.719 251.854 67.9013C252.223 68.0836 252.509 68.3333 252.713 68.6506C252.919 68.9678 253.022 69.33 253.022 69.7372C253.022 70.0095 252.97 70.277 252.866 70.5398C252.762 70.8026 252.578 71.0937 252.315 71.4134C252.055 71.733 251.689 72.12 251.218 72.5746L249.964 73.8494V73.8991H253.132V75H248.146Z"
    fill="#FF6B82"
  />
  <path
    d="M327.403 65L307.5 46L316.5 37.5L350 71.5L316.5 105.5L307.5 97L327.403 78H277.5V65H327.403Z"
    fill="black"
  />
  <rect
    x="258.5"
    y="65"
    width="85"
    height="13"
    fill="#FF6B82"
    fill-opacity="0.4"
  />
  <rect x="503" y="35.5" width="72" height="72" stroke="#EB5757" />
  <path
    fill-rule="evenodd"
    clip-rule="evenodd"
    d="M508.5 36H509.5V107H508.5V36ZM520.5 36H521.5V107H520.5V36ZM533.5 36H532.5V107H533.5V36ZM544.5 36H545.5V107H544.5V36ZM557.5 36H556.5V107H557.5V36ZM568.5 36H569.5V107H568.5V36ZM515.5 36H514.5V107H515.5V36ZM526.5 36H527.5V107H526.5V36ZM539.5 36H538.5V107H539.5V36ZM550.5 36H551.5V107H550.5V36ZM563.5 36H562.5V107H563.5V36Z"
    fill="#F7E5E5"
  />
  <path
    fill-rule="evenodd"
    clip-rule="evenodd"
    d="M503.5 102V101H574.5V102H503.5ZM503.5 90V89H574.5V90H503.5ZM503.5 77V78H574.5V77H503.5ZM503.5 66V65H574.5V66H503.5ZM503.5 53V54L574.5 54V53L503.5 53ZM503.5 42V41L574.5 41V42L503.5 42ZM503.5 95V96H574.5V95H503.5ZM503.5 84V83H574.5V84H503.5ZM503.5 71V72H574.5V71H503.5ZM503.5 60V59L574.5 59V60L503.5 60ZM503.5 47V48L574.5 48V47L503.5 47Z"
    fill="#F7E5E5"
  />
  <path
    fill-rule="evenodd"
    clip-rule="evenodd"
    d="M582.5 36H580.5V37H582.5V106H580.5V107H582.5H583.5H585.5V106H583.5V37H585.5V36H583.5H582.5Z"
    fill="#FF6B82"
  />
  <path
    fill-rule="evenodd"
    clip-rule="evenodd"
    d="M497.5 71H492.5V72H494.5V77H492.5V78H494.5H495.5H497.5V77H495.5V72H497.5V71Z"
    fill="#FF6B82"
  />
  <path
    d="M591.104 68.7273V76H589.787V70.0092H589.744L588.043 71.0959V69.8885L589.851 68.7273H591.104ZM592.951 76V75.0483L595.476 72.5732C595.717 72.3293 595.919 72.1127 596.08 71.9233C596.241 71.7339 596.361 71.5504 596.442 71.3729C596.522 71.1953 596.562 71.0059 596.562 70.8047C596.562 70.575 596.51 70.3786 596.406 70.2152C596.302 70.0495 596.159 69.9216 595.977 69.8317C595.794 69.7417 595.587 69.6967 595.355 69.6967C595.116 69.6967 594.906 69.7464 594.727 69.8459C594.547 69.9429 594.407 70.0814 594.308 70.2614C594.21 70.4413 594.162 70.6555 594.162 70.9041H592.908C592.908 70.4425 593.014 70.0412 593.224 69.7003C593.435 69.3594 593.725 69.0954 594.094 68.9084C594.466 68.7214 594.892 68.6278 595.373 68.6278C595.861 68.6278 596.289 68.719 596.658 68.9013C597.028 69.0836 597.314 69.3333 597.518 69.6506C597.724 69.9678 597.827 70.33 597.827 70.7372C597.827 71.0095 597.775 71.277 597.67 71.5398C597.566 71.8026 597.383 72.0937 597.12 72.4134C596.86 72.733 596.494 73.12 596.023 73.5746L594.769 74.8494V74.8991H597.937V76H592.951Z"
    fill="#FF6B82"
  />
  <path
    d="M488.104 70.7273V78H486.787V72.0092H486.744L485.043 73.0959V71.8885L486.851 70.7273H488.104Z"
    fill="#FF6B82"
  />
  <path
    d="M552.5 78H514.5V71H552.5L537 56.5L540 53L563 74.5L540 96L537 93L552.5 78Z"
    fill="black"
  />
  <rect
    x="495.5"
    y="71"
    width="63"
    height="7"
    fill="#FF6B82"
    fill-opacity="0.4"
  />
</svg>
