<svg viewBox="0 0 24 24" fill="none" xmlns="http://www.w3.org/2000/svg">
  <path
    fill-rule="evenodd"
    clip-rule="evenodd"
    d="M14.5 4.5H9.5C8.11929 4.5 7 5.61929 7 7C7 8.38071 8.11929 9.5 9.5 9.5C8.11929 9.5 7 10.6193 7 12C7 13.3807 8.11929 14.5 9.5 14.5C8.11929 14.5 7 15.6193 7 17C7 18.3807 8.11929 19.5 9.5 19.5C10.8807 19.5 12 18.3807 12 17V12C12 13.3807 13.1193 14.5 14.5 14.5C15.8807 14.5 17 13.3807 17 12C17 10.6193 15.8807 9.5 14.5 9.5C15.8807 9.5 17 8.38071 17 7C17 5.61929 15.8807 4.5 14.5 4.5ZM12 9.5H14.5C13.1193 9.5 12 10.6193 12 12V9.5Z"
  />
</svg>
