<svg viewBox="0 0 24 24" fill="none" xmlns="http://www.w3.org/2000/svg">
  <path
    d="M12 4C7.58 4 4 7.67295 4 12.2031C4 15.8282 6.292 18.9023 9.47 19.9858C9.87 20.0631 10.0167 19.8095 10.0167 19.5914C10.0167 19.3966 10.01 18.8805 10.0067 18.1969C7.78133 18.6918 7.312 17.0963 7.312 17.0963C6.948 16.1495 6.422 15.8966 6.422 15.8966C5.69733 15.388 6.478 15.3982 6.478 15.3982C7.28133 15.4557 7.70333 16.2432 7.70333 16.2432C8.41667 17.4975 9.576 17.1352 10.0333 16.9254C10.1053 16.3949 10.3113 16.0333 10.54 15.8282C8.76333 15.6231 6.896 14.9177 6.896 11.7745C6.896 10.879 7.206 10.1476 7.71933 9.57334C7.62933 9.36621 7.35933 8.53222 7.78933 7.40224C7.78933 7.40224 8.45933 7.18213 9.98933 8.24306C10.6293 8.06054 11.3093 7.97031 11.9893 7.96621C12.6693 7.97031 13.3493 8.06054 13.9893 8.24306C15.5093 7.18213 16.1793 7.40224 16.1793 7.40224C16.6093 8.53222 16.3393 9.36621 16.2593 9.57334C16.7693 10.1476 17.0793 10.879 17.0793 11.7745C17.0793 14.9259 15.2093 15.6197 13.4293 15.8214C13.7093 16.0675 13.9693 16.5706 13.9693 17.339C13.9693 18.4368 13.9593 19.3186 13.9593 19.5852C13.9593 19.8006 14.0993 20.0569 14.5093 19.9749C17.71 18.8989 20 15.8227 20 12.2031C20 7.67295 16.418 4 12 4Z"
  />
</svg>
