<svg viewBox="0 0 24 24" xmlns="http://www.w3.org/2000/svg">
  <path
    d="M14.311 16.889c.428-.111.837-.201 1.236-.324 1.011-.31 1.932-.788 2.681-1.55 1.137-1.154 1.502-2.57 1.364-4.146-.103-1.18-.492-2.243-1.286-3.143-.044-.05-.03-.18-.004-.259.323-.967.321-1.913-.153-2.838-.09-.175-.204-.25-.416-.235-1.106.076-2.045.519-2.84 1.274-.136.13-.242.143-.415.097-1.68-.439-3.36-.453-5.03.043-.172.051-.242-.024-.34-.117-.807-.77-1.752-1.231-2.879-1.298-.178-.01-.278.05-.36.202-.54 1.021-.5 2.046-.026 3.096a4.916 4.916 0 00-1.242 2.2c-.4 1.567-.306 3.076.622 4.453.752 1.117 1.85 1.766 3.102 2.176.445.146.904.247 1.308.355-.056.45-.106.894-.173 1.336-.01.07-.083.166-.146.186-.948.302-2.482.147-3.21-1.057-.338-.557-.833-.921-1.482-1.043a1.34 1.34 0 00-.475 0c-.268.049-.305.182-.125.38.045.049.094.098.15.134.566.371.906.916 1.17 1.517.526 1.192 1.49 1.737 2.738 1.826.449.032.904-.037 1.374-.06 0 .5.035 1.03-.01 1.554-.041.465-.496.945-1.143.69-4.076-1.613-6.564-4.555-7.19-8.896C.279 7.648 4.19 2.268 9.96 1.195c6.28-1.168 11.78 3.057 12.848 8.731a10.983 10.983 0 01-7.031 12.379c-.705.257-1.224-.095-1.233-.855-.01-1.018.003-2.037-.005-3.055-.005-.503.03-1.014-.227-1.506z"
  />
</svg>
