<svg
  width="22"
  height="22"
  viewBox="0 0 22 22"
  fill="none"
  xmlns="http://www.w3.org/2000/svg"
>
  <path
    fill-rule="evenodd"
    clip-rule="evenodd"
    d="M4 0C1.79086 0 0 1.79086 0 4V18C0 20.2091 1.79086 22 4 22H18C20.2091 22 22 20.2091 22 18V4C22 1.79086 20.2091 0 18 0H4ZM11.9976 15C13.3049 15.0936 14.1631 14.76 14.8314 14.208L17 17.3448C15.6512 18.4936 13.8094 19 11.69 19C7.22981 19 4 15.64 4 11C4 6.36 7.22981 3 11.69 3C13.7702 3 15.5827 3.4872 16.9246 4.592L14.7922 7.7608C14.1262 7.2344 13.3049 6.9512 11.9976 7C9.84443 7.08 8.46022 8.8792 8.46022 11C8.46022 13.1208 9.76752 14.84 11.9976 15Z"
  />
</svg>
