<svg viewBox="0 0 24 24" fill="none" xmlns="http://www.w3.org/2000/svg">
  <path
    fill-rule="evenodd"
    clip-rule="evenodd"
    d="M5.96243 11.0269C9.72052 9.05119 12.2265 7.74867 13.4804 7.11936C17.0604 5.32254 17.8043 5.01042 18.2892 5.00011C18.3958 4.99784 18.6343 5.02973 18.7887 5.18096C18.9192 5.30866 18.955 5.48116 18.9722 5.60223C18.9894 5.7233 19.0108 5.9991 18.9938 6.2146C18.7998 8.6743 17.9603 14.6433 17.5332 17.3983C17.3525 18.564 16.9967 18.9548 16.6522 18.9931C15.9036 19.0762 15.3351 18.3961 14.6101 17.8225C13.4755 16.9251 12.8345 16.3664 11.7332 15.4907C10.4604 14.4786 11.2855 13.9223 12.0108 13.0132C12.2006 12.7753 15.4991 9.15509 15.5629 8.82668C15.5709 8.7856 15.5783 8.6325 15.503 8.55166C15.4276 8.47081 15.3163 8.49846 15.236 8.52045C15.1223 8.55161 13.3097 9.99723 9.7984 12.8573C9.28392 13.2836 8.81791 13.4913 8.40039 13.4804C7.9401 13.4684 7.05469 13.1664 6.39648 12.9082C5.58916 12.5915 4.94752 12.4241 5.00339 11.8863C5.03249 11.6062 5.35217 11.3197 5.96243 11.0269Z"
  />
</svg>
