<svg viewBox="0 0 24 24" fill="none" xmlns="http://www.w3.org/2000/svg">
  <path
    clip-rule="evenodd"
    d="M23 12c0 6.075-4.925 11-11 11S1 18.075 1 12 5.925 1 12 1s11 4.925 11 11zM12.986 8.853l-7.408 3.052c-1.303.509-.54.985-.54.985s1.113.382 2.066.668c.954.286 1.463-.032 1.463-.032l4.482-3.02c1.59-1.08 1.209-.19.827.19-.827.827-2.194 2.13-3.338 3.18-.509.445-.255.827-.032 1.017.647.548 2.17 1.543 2.863 1.995.192.126.32.21.348.23.159.128 1.05.7 1.59.573s.604-.858.604-.858l.795-4.992c.07-.468.14-.926.207-1.353.17-1.111.31-2.013.333-2.335.095-1.08-1.05-.635-1.05-.635s-2.479 1.017-3.21 1.335z"
  />
</svg>
