<svg
  width="200"
  height="200"
  viewBox="0 0 200 200"
  fill="none"
  xmlns="http://www.w3.org/2000/svg"
>
  <rect
    width="200"
    height="200"
    rx="16"
    fill="url(#paint0_linear_2435_11127)"
  />
  <g filter="url(#filter0_d_2435_11127)">
    <path
      d="M109.226 63.771C117.364 63.771 124.28 65.5073 129.986 68.9799V68.9929C135.692 72.4655 140.688 76.7066 144.987 81.7165V51.644C141.029 47.7741 135.968 44.6991 129.815 42.4195C123.649 40.14 116.51 39 108.371 39C97.4066 39 87.1647 41.5579 77.6065 46.6872C68.0483 51.8162 60.3967 59.0264 54.6376 68.304C48.8792 77.5815 46 88.1447 46 99.9934C46 112.531 48.8529 123.412 54.5722 132.637C60.2779 141.862 67.8775 148.899 77.3696 153.737C86.8624 158.574 97.1961 161 108.385 161C116.523 161 123.662 159.86 129.828 157.58C135.995 155.301 141.043 152.226 145 148.356V118.283C140.701 123.293 135.705 127.535 129.999 131.007C124.293 134.479 117.378 136.216 109.239 136.216C102.678 136.216 96.5522 134.705 90.8458 131.683C85.14 128.661 80.5647 124.393 77.1199 118.867C73.6751 113.353 71.9534 106.938 71.9534 99.9934C71.9534 93.0485 73.6225 86.806 76.9491 81.279C80.2752 75.7656 84.7978 71.4582 90.5042 68.3833C96.1972 65.3086 102.442 63.771 109.226 63.771Z"
      fill="white"
    />
  </g>
  <defs>
    <filter
      id="filter0_d_2435_11127"
      x="22"
      y="19"
      width="147"
      height="170"
      filterUnits="userSpaceOnUse"
      color-interpolation-filters="sRGB"
    >
      <feFlood flood-opacity="0" result="BackgroundImageFix" />
      <feColorMatrix
        in="SourceAlpha"
        type="matrix"
        values="0 0 0 0 0 0 0 0 0 0 0 0 0 0 0 0 0 0 127 0"
        result="hardAlpha"
      />
      <feOffset dy="4" />
      <feGaussianBlur stdDeviation="12" />
      <feComposite in2="hardAlpha" operator="out" />
      <feColorMatrix
        type="matrix"
        values="0 0 0 0 0.18297 0 0 0 0 0.426548 0 0 0 0 0.731022 0 0 0 1 0"
      />
      <feBlend
        mode="normal"
        in2="BackgroundImageFix"
        result="effect1_dropShadow_2435_11127"
      />
      <feBlend
        mode="normal"
        in="SourceGraphic"
        in2="effect1_dropShadow_2435_11127"
        result="shape"
      />
    </filter>
    <linearGradient
      id="paint0_linear_2435_11127"
      x1="200"
      y1="0"
      x2="0"
      y2="200"
      gradientUnits="userSpaceOnUse"
    >
      <stop stop-color="#55AAF6" />
      <stop offset="1" stop-color="#3578CD" />
    </linearGradient>
  </defs>
</svg>
