<svg viewBox="0 0 326 72" fill="none" xmlns="http://www.w3.org/2000/svg">
  <path
    fill-rule="evenodd"
    clip-rule="evenodd"
    d="M50.706 50.436C47.577 52.909 43.146 54 37.44 54c-10.08 0-16.56-8.457-16.56-18 0-9.544 6.48-18 16.56-18 5.584 0 9.965 1.055 13.082 3.424l9.983-14.26C54.223 2.192 45.738 0 36 0 15.12 0 0 15.12 0 36c0 20.88 15.12 36 36 36 9.921 0 18.543-2.279 24.858-7.449L50.706 50.436zM325.079 36c0-10.08-8.64-18.72-25.2-18.72-8.615 0-14.648 1.545-18.111 2.787l2.944 13.453c2.466-.886 5.465-1.48 8.687-1.84 9.335-1.08 15.088 2.16 15.12 8.64v1.44s-7.2-3.6-15.12-3.6c-11.52 0-18 7.92-18 16.74 0 11.34 7.2 17.1 18 17.1 6.343 0 11.913-2.855 15.12-7.168v5.728h16.56V37.44h-.115a9.26 9.26 0 00.115-1.44zm-25.92 23.4c-4.32 0-6.48-2.16-6.48-5.76 0-3.6 2.88-5.76 6.48-5.76 4.032 0 6.182.627 8.687 1.357l.269.079.275.08c0 4.964-2.751 10.004-9.231 10.004zM62.673 44.64c0-15.869 12.211-27.36 28.08-27.36 15.869 0 28.105 11.491 28.08 27.36C118.808 60.51 106.622 72 90.753 72c-15.869 0-28.08-11.491-28.08-27.36zm17.608 0c0 6.84 4.32 11.52 10.44 11.52 6.12 0 10.44-5.04 10.44-11.52 0-6.48-4.32-11.52-10.44-11.52-6.12 0-10.44 5.04-10.44 11.52zm76.318-27.36c-6.044 0-11.728 3.316-15.48 7.78v-6.34H124.56v51.84h16.559V40.32h.018a7.564 7.564 0 017.542-7.038 7.562 7.562 0 017.542 7.038h.018v30.24h16.56V33.84c0-9.36-6.12-16.56-16.2-16.56zm93.96 31.068c0 4.932 3.24 7.812 9.36 7.812a17.922 17.922 0 007.128-1.706l4.558 13.28C268.192 69.44 261.813 72 254.325 72c-12.881 0-20.049-6.228-20.326-15.12V4.68h16.56v14.04h15.84l-.72 14.4h-15.12v15.228zm23.648 17.58l-.032.404.144-.09-.112-.314zM184.32 54.72l-5.76 10.08c7.117 4.975 15.508 7.2 25.171 7.2 13.507 0 21.988-6.617 21.988-18v-.176c0-10.714-7.56-14.36-20.16-17.6-5.018-1.34-6.12-3.104-6.12-4.544a3.551 3.551 0 012.927-3.218c4.273-.742 11.221 1.598 16.513 4.658l5.937-9.813c-6.023-3.827-14.145-6.027-22.356-6.027-12.96 0-21.719 6.408-21.719 17.889v.19c0 10.811 7.747 14.364 20.347 17.604 5.022 1.34 5.911 3.197 5.911 4.277s-1 2.578-2.988 2.858c-5.292.742-13.669-1.454-19.691-5.378z"
    fill="var(--color-bg-link)"
  />
  <path
    fill-rule="evenodd"
    clip-rule="evenodd"
    d="M50.706 50.436C47.577 52.909 43.146 54 37.44 54c-10.08 0-16.56-8.457-16.56-18 0-9.544 6.48-18 16.56-18 5.584 0 9.965 1.055 13.082 3.424l9.983-14.26C54.223 2.192 45.738 0 36 0 15.12 0 0 15.12 0 36c0 20.88 15.12 36 36 36 9.921 0 18.543-2.279 24.858-7.449L50.706 50.436zM325.079 36c0-10.08-8.64-18.72-25.2-18.72-8.615 0-14.648 1.545-18.111 2.787l2.944 13.453c2.466-.886 5.465-1.48 8.687-1.84 9.335-1.08 15.088 2.16 15.12 8.64v1.44s-7.2-3.6-15.12-3.6c-11.52 0-18 7.92-18 16.74 0 11.34 7.2 17.1 18 17.1 6.343 0 11.913-2.855 15.12-7.168v5.728h16.56V37.44h-.115a9.26 9.26 0 00.115-1.44zm-25.92 23.4c-4.32 0-6.48-2.16-6.48-5.76 0-3.6 2.88-5.76 6.48-5.76 4.032 0 6.182.627 8.687 1.357l.269.079.275.08c0 4.964-2.751 10.004-9.231 10.004zM62.673 44.64c0-15.869 12.211-27.36 28.08-27.36 15.869 0 28.105 11.491 28.08 27.36C118.808 60.51 106.622 72 90.753 72c-15.869 0-28.08-11.491-28.08-27.36zm17.608 0c0 6.84 4.32 11.52 10.44 11.52 6.12 0 10.44-5.04 10.44-11.52 0-6.48-4.32-11.52-10.44-11.52-6.12 0-10.44 5.04-10.44 11.52zm76.318-27.36c-6.044 0-11.728 3.316-15.48 7.78v-6.34H124.56v51.84h16.559V40.32h.018a7.564 7.564 0 017.542-7.038 7.562 7.562 0 017.542 7.038h.018v30.24h16.56V33.84c0-9.36-6.12-16.56-16.2-16.56zm93.96 31.068c0 4.932 3.24 7.812 9.36 7.812a17.922 17.922 0 007.128-1.706l4.558 13.28C268.192 69.44 261.813 72 254.325 72c-12.881 0-20.049-6.228-20.326-15.12V4.68h16.56v14.04h15.84l-.72 14.4h-15.12v15.228zm23.648 17.58l-.032.404.144-.09-.112-.314zM184.32 54.72l-5.76 10.08c7.117 4.975 15.508 7.2 25.171 7.2 13.507 0 21.988-6.617 21.988-18v-.176c0-10.714-7.56-14.36-20.16-17.6-5.018-1.34-6.12-3.104-6.12-4.544a3.551 3.551 0 012.927-3.218c4.273-.742 11.221 1.598 16.513 4.658l5.937-9.813c-6.023-3.827-14.145-6.027-22.356-6.027-12.96 0-21.719 6.408-21.719 17.889v.19c0 10.811 7.747 14.364 20.347 17.604 5.022 1.34 5.911 3.197 5.911 4.277s-1 2.578-2.988 2.858c-5.292.742-13.669-1.454-19.691-5.378z"
    fill="url(#paint0_linear)"
    style="mix-blend-mode: overlay"
  />
  <defs>
    <linearGradient
      id="paint0_linear"
      x1="242"
      y1="-112"
      x2="71.5"
      y2="180"
      gradientUnits="userSpaceOnUse"
    >
      <stop stop-color="#fff" stop-opacity=".6" />
      <stop offset="1" stop-color="#fff" stop-opacity="0" />
    </linearGradient>
  </defs>
</svg>
