<svg
  width="89"
  height="20"
  viewBox="0 0 89 20"
  fill="none"
  xmlns="http://www.w3.org/2000/svg"
>
  <path
    d="M10.4486 4.06082C11.7935 4.06082 12.9364 4.34546 13.8794 4.91474V4.91686C14.8224 5.48615 15.648 6.18141 16.3585 7.00271V2.07279C15.7045 1.43837 14.868 0.934285 13.8512 0.560582C12.8322 0.186878 11.6523 0 10.3074 0C8.4954 0 6.80283 0.419322 5.22325 1.26019C3.64367 2.10101 2.37918 3.28302 1.42745 4.80393C0.475815 6.32484 0 8.0565 0 9.99891C0 12.0543 0.471466 13.8381 1.41662 15.3503C2.35956 16.8626 3.61545 18.0163 5.18411 18.8093C6.75286 19.6024 8.4606 20 10.3097 20C11.6546 20 12.8343 19.8131 13.8533 19.4394C14.8724 19.0657 15.7067 18.5616 16.3606 17.9272V12.9973C15.6501 13.8186 14.8245 14.5139 13.8816 15.0831C12.9386 15.6524 11.7958 15.937 10.4509 15.937C9.36661 15.937 8.35419 15.6893 7.41116 15.1939C6.46822 14.6985 5.71212 13.9989 5.14284 13.0929C4.57356 12.189 4.28902 11.1374 4.28902 9.99891C4.28902 8.8604 4.56486 7.83706 5.11462 6.93099C5.66427 6.02715 6.41168 5.32102 7.35472 4.81693C8.29553 4.31289 9.32757 4.06082 10.4486 4.06082Z"
    fill="var(--color-bg-link)"
  />
  <path
    fill-rule="evenodd"
    clip-rule="evenodd"
    d="M18.9832 16.2737C19.6654 17.4318 20.5976 18.3422 21.7839 19.0049C22.9679 19.6697 24.2543 19.9999 25.6904 19.9999C27.1266 19.9999 28.4389 19.6676 29.6252 19.0049C30.8115 18.3422 31.7502 17.4275 32.4411 16.2607C33.132 15.094 33.4775 13.799 33.4775 12.3802C33.4775 10.9614 33.132 9.673 32.4411 8.51492C31.7502 7.35901 30.8115 6.44213 29.6252 5.77073C28.4389 5.09939 27.157 4.76261 25.7186 4.76261C24.2803 4.76261 22.9702 5.09939 21.7839 5.77073C20.5976 6.44213 19.6654 7.35684 18.9832 8.51492C18.3009 9.673 17.9598 10.9418 17.9598 12.3802C17.9598 13.8185 18.3009 15.1157 18.9832 16.2737ZM28.8713 14.2987C28.5454 14.868 28.1043 15.3112 27.5546 15.6284C27.0049 15.9456 26.4117 16.1043 25.7209 16.1043C25.0299 16.1043 24.4129 15.9456 23.8718 15.6284C23.3286 15.3112 22.8941 14.868 22.5682 14.2987C22.2402 13.7295 22.0772 13.0711 22.0772 12.3802C22.0772 11.6892 22.2423 11.0592 22.5682 10.49C22.8963 9.92067 23.3309 9.47742 23.8718 9.16021C24.4129 8.843 25.0494 8.6844 25.7209 8.6844C26.3922 8.6844 27.0028 8.843 27.5546 9.16021C28.1065 9.47742 28.5454 9.92067 28.8713 10.49C29.1994 11.0592 29.3623 11.7175 29.3623 12.4084C29.3623 13.0994 29.1972 13.7295 28.8713 14.2987Z"
    fill="var(--color-bg-link)"
  />
  <path
    d="M41.534 5.30797C42.3183 4.94296 43.1874 4.76261 44.139 4.76261C45.7078 4.76261 46.9853 5.258 47.9761 6.2466C48.9646 7.23733 49.4601 8.61703 49.4601 10.3921V19.7197H45.4275V11.6806C45.4275 10.692 45.1646 9.95324 44.6432 9.46873C44.1195 8.98421 43.4285 8.74089 42.5704 8.74089C42.0467 8.74089 41.5187 8.86687 40.9885 9.11895C40.4563 9.37096 40.0304 9.7208 39.7132 10.1683V19.7197H35.7089V5.06895H39.7132V6.69414C40.1434 6.13362 40.7496 5.6708 41.534 5.30797Z"
    fill="var(--color-bg-link)"
  />
  <path
    d="M58.0098 8.00866C59.0179 8.00866 59.9696 8.22375 60.8669 8.65395H60.8604C61.7578 9.08415 62.4769 9.62516 63.0179 10.2792V6.35741C62.5139 5.89024 61.8034 5.50784 60.8887 5.20803C59.974 4.91034 59.0222 4.76043 58.0315 4.76043C56.8561 4.76043 55.8045 4.94949 54.8811 5.33401C53.9577 5.71859 53.2298 6.2683 52.6974 6.98748C52.1652 7.70667 51.9001 8.52362 51.9001 9.43833C51.9001 10.2422 52.0674 10.9201 52.4041 11.4698C52.7409 12.0217 53.1689 12.4497 53.6926 12.7583C54.2162 13.0646 54.8311 13.3318 55.5415 13.5556L55.598 13.5839L57.8099 14.2553L58.2031 14.3682C58.7246 14.5182 59.1136 14.6811 59.3655 14.8593C59.6176 15.0375 59.7436 15.2851 59.7436 15.6023C59.7436 15.9761 59.5438 16.2607 59.1418 16.4563C58.7398 16.6518 58.2401 16.7495 57.6426 16.7495C56.5779 16.7495 55.5286 16.5301 54.4922 16.0912C53.4558 15.6523 52.667 15.1265 52.126 14.5095V18.4312C52.6127 18.881 53.3818 19.2547 54.4378 19.5524C55.4915 19.85 56.5606 19.9999 57.6447 19.9999C58.8202 19.9999 59.8805 19.8044 60.8234 19.4111C61.7665 19.0179 62.4986 18.4682 63.0222 17.7577C63.5459 17.0472 63.8066 16.2259 63.8066 15.2917C63.8066 14.4334 63.6198 13.7186 63.2461 13.1494C62.8723 12.5801 62.4096 12.1412 61.8598 11.8327C61.3079 11.5241 60.6409 11.2504 59.8566 11.007L57.6165 10.3074L57.3362 10.2227C56.8322 10.0554 56.4736 9.89675 56.2586 9.74684C56.0434 9.59694 55.937 9.39271 55.937 9.12982C55.937 8.79304 56.1238 8.52362 56.4976 8.31722C56.8712 8.11077 57.3754 8.00866 58.0098 8.00866Z"
    fill="var(--color-bg-link)"
  />
  <path
    d="M73.6686 8.7105H70.0011V14.2835C70.0011 14.881 70.164 15.3764 70.4921 15.7675C70.818 16.1586 71.3091 16.3563 71.963 16.3563C72.2802 16.3563 72.5649 16.3238 72.8169 16.2586C73.0689 16.1934 73.3535 16.076 73.6708 15.9088V19.4938C73.4275 19.6241 73.0494 19.7415 72.5366 19.8436C72.0238 19.9457 71.5046 19.9978 70.9809 19.9978C69.3753 19.9978 68.1325 19.5546 67.2547 18.6681C66.3769 17.7817 65.938 16.5714 65.938 15.0397V2.2401L69.9989 0.838697V5.069H73.6686V8.7105Z"
    fill="var(--color-bg-link)"
  />
  <path
    fill-rule="evenodd"
    clip-rule="evenodd"
    d="M80.2303 19.9999C81.0885 19.9999 81.8642 19.8544 82.5551 19.5654C83.246 19.2765 83.7697 18.8788 84.1238 18.3747V19.7197H88.1564V10.868C88.1564 8.96252 87.611 7.46982 86.5182 6.38563C85.4252 5.30144 83.7414 4.76043 81.4622 4.76043C80.4367 4.76043 79.4264 4.91904 78.4378 5.23625C77.447 5.55563 76.7192 5.92722 76.252 6.35741V10.2792C76.7561 9.66213 77.447 9.17326 78.3248 8.80821C79.2026 8.44538 80.1478 8.2629 81.0429 8.2629C81.9381 8.2629 82.6746 8.478 83.2547 8.9082C83.8348 9.33622 84.1238 9.89675 84.1238 10.5877V11.233C83.3025 10.9158 82.2857 10.7572 81.0712 10.7572C79.2982 10.7572 77.8403 11.1591 76.7018 11.9608C75.5633 12.7648 74.994 13.9033 74.994 15.3786C74.994 16.3302 75.2352 17.1581 75.7219 17.8577C76.2064 18.5573 76.8473 19.0896 77.6404 19.4546C78.4335 19.8175 79.296 19.9999 80.2303 19.9999ZM81.3775 16.667C80.6866 16.667 80.1282 16.541 79.698 16.289H79.6958C79.2656 16.0369 79.0505 15.6502 79.0505 15.183C79.0505 14.7159 79.2787 14.353 79.7371 14.0901C80.1955 13.8272 80.7691 13.6969 81.46 13.6969C81.9837 13.6969 82.4638 13.736 82.9027 13.8098C83.3416 13.8859 83.748 14.0163 84.1216 14.2031V15.6871C83.8414 16.0043 83.4503 16.2477 82.9462 16.4149C82.4421 16.5822 81.9185 16.667 81.3775 16.667Z"
    fill="var(--color-bg-link)"
  />
  <path
    d="M10.4486 4.06082C11.7935 4.06082 12.9364 4.34546 13.8794 4.91474V4.91686C14.8224 5.48615 15.648 6.18141 16.3585 7.00271V2.07279C15.7045 1.43837 14.868 0.934285 13.8512 0.560582C12.8322 0.186878 11.6523 0 10.3074 0C8.4954 0 6.80283 0.419322 5.22325 1.26019C3.64367 2.10101 2.37918 3.28302 1.42745 4.80393C0.475815 6.32484 0 8.0565 0 9.99891C0 12.0543 0.471466 13.8381 1.41662 15.3503C2.35956 16.8626 3.61545 18.0163 5.18411 18.8093C6.75286 19.6024 8.4606 20 10.3097 20C11.6546 20 12.8343 19.8131 13.8533 19.4394C14.8724 19.0657 15.7067 18.5616 16.3606 17.9272V12.9973C15.6501 13.8186 14.8245 14.5139 13.8816 15.0831C12.9386 15.6524 11.7958 15.937 10.4509 15.937C9.36661 15.937 8.35419 15.6893 7.41116 15.1939C6.46822 14.6985 5.71212 13.9989 5.14284 13.0929C4.57356 12.189 4.28902 11.1374 4.28902 9.99891C4.28902 8.8604 4.56486 7.83706 5.11462 6.93099C5.66427 6.02715 6.41168 5.32102 7.35472 4.81693C8.29553 4.31289 9.32757 4.06082 10.4486 4.06082Z"
    fill="url(#paint0_linear)"
    style="mix-blend-mode: overlay"
  />
  <path
    fill-rule="evenodd"
    clip-rule="evenodd"
    d="M18.9832 16.2737C19.6654 17.4318 20.5976 18.3422 21.7839 19.0049C22.9679 19.6697 24.2543 19.9999 25.6904 19.9999C27.1266 19.9999 28.4389 19.6676 29.6252 19.0049C30.8115 18.3422 31.7502 17.4275 32.4411 16.2607C33.132 15.094 33.4775 13.799 33.4775 12.3802C33.4775 10.9614 33.132 9.673 32.4411 8.51492C31.7502 7.35901 30.8115 6.44213 29.6252 5.77073C28.4389 5.09939 27.157 4.76261 25.7186 4.76261C24.2803 4.76261 22.9702 5.09939 21.7839 5.77073C20.5976 6.44213 19.6654 7.35684 18.9832 8.51492C18.3009 9.673 17.9598 10.9418 17.9598 12.3802C17.9598 13.8185 18.3009 15.1157 18.9832 16.2737ZM28.8713 14.2987C28.5454 14.868 28.1043 15.3112 27.5546 15.6284C27.0049 15.9456 26.4117 16.1043 25.7209 16.1043C25.0299 16.1043 24.4129 15.9456 23.8718 15.6284C23.3286 15.3112 22.8941 14.868 22.5682 14.2987C22.2402 13.7295 22.0772 13.0711 22.0772 12.3802C22.0772 11.6892 22.2423 11.0592 22.5682 10.49C22.8963 9.92067 23.3309 9.47742 23.8718 9.16021C24.4129 8.843 25.0494 8.6844 25.7209 8.6844C26.3922 8.6844 27.0028 8.843 27.5546 9.16021C28.1065 9.47742 28.5454 9.92067 28.8713 10.49C29.1994 11.0592 29.3623 11.7175 29.3623 12.4084C29.3623 13.0994 29.1972 13.7295 28.8713 14.2987Z"
    fill="url(#paint0_linear)"
    style="mix-blend-mode: overlay"
  />
  <path
    d="M41.534 5.30797C42.3183 4.94296 43.1874 4.76261 44.139 4.76261C45.7078 4.76261 46.9853 5.258 47.9761 6.2466C48.9646 7.23733 49.4601 8.61703 49.4601 10.3921V19.7197H45.4275V11.6806C45.4275 10.692 45.1646 9.95324 44.6432 9.46873C44.1195 8.98421 43.4285 8.74089 42.5704 8.74089C42.0467 8.74089 41.5187 8.86687 40.9885 9.11895C40.4563 9.37096 40.0304 9.7208 39.7132 10.1683V19.7197H35.7089V5.06895H39.7132V6.69414C40.1434 6.13362 40.7496 5.6708 41.534 5.30797Z"
    fill="url(#paint0_linear)"
    style="mix-blend-mode: overlay"
  />
  <path
    d="M58.0098 8.00866C59.0179 8.00866 59.9696 8.22375 60.8669 8.65395H60.8604C61.7578 9.08415 62.4769 9.62516 63.0179 10.2792V6.35741C62.5139 5.89024 61.8034 5.50784 60.8887 5.20803C59.974 4.91034 59.0222 4.76043 58.0315 4.76043C56.8561 4.76043 55.8045 4.94949 54.8811 5.33401C53.9577 5.71859 53.2298 6.2683 52.6974 6.98748C52.1652 7.70667 51.9001 8.52362 51.9001 9.43833C51.9001 10.2422 52.0674 10.9201 52.4041 11.4698C52.7409 12.0217 53.1689 12.4497 53.6926 12.7583C54.2162 13.0646 54.8311 13.3318 55.5415 13.5556L55.598 13.5839L57.8099 14.2553L58.2031 14.3682C58.7246 14.5182 59.1136 14.6811 59.3655 14.8593C59.6176 15.0375 59.7436 15.2851 59.7436 15.6023C59.7436 15.9761 59.5438 16.2607 59.1418 16.4563C58.7398 16.6518 58.2401 16.7495 57.6426 16.7495C56.5779 16.7495 55.5286 16.5301 54.4922 16.0912C53.4558 15.6523 52.667 15.1265 52.126 14.5095V18.4312C52.6127 18.881 53.3818 19.2547 54.4378 19.5524C55.4915 19.85 56.5606 19.9999 57.6447 19.9999C58.8202 19.9999 59.8805 19.8044 60.8234 19.4111C61.7665 19.0179 62.4986 18.4682 63.0222 17.7577C63.5459 17.0472 63.8066 16.2259 63.8066 15.2917C63.8066 14.4334 63.6198 13.7186 63.2461 13.1494C62.8723 12.5801 62.4096 12.1412 61.8598 11.8327C61.3079 11.5241 60.6409 11.2504 59.8566 11.007L57.6165 10.3074L57.3362 10.2227C56.8322 10.0554 56.4736 9.89675 56.2586 9.74684C56.0434 9.59694 55.937 9.39271 55.937 9.12982C55.937 8.79304 56.1238 8.52362 56.4976 8.31722C56.8712 8.11077 57.3754 8.00866 58.0098 8.00866Z"
    fill="url(#paint0_linear)"
    style="mix-blend-mode: overlay"
  />
  <path
    d="M73.6686 8.7105H70.0011V14.2835C70.0011 14.881 70.164 15.3764 70.4921 15.7675C70.818 16.1586 71.3091 16.3563 71.963 16.3563C72.2802 16.3563 72.5649 16.3238 72.8169 16.2586C73.0689 16.1934 73.3535 16.076 73.6708 15.9088V19.4938C73.4275 19.6241 73.0494 19.7415 72.5366 19.8436C72.0238 19.9457 71.5046 19.9978 70.9809 19.9978C69.3753 19.9978 68.1325 19.5546 67.2547 18.6681C66.3769 17.7817 65.938 16.5714 65.938 15.0397V2.2401L69.9989 0.838697V5.069H73.6686V8.7105Z"
    fill="url(#paint0_linear)"
    style="mix-blend-mode: overlay"
  />
  <path
    fill-rule="evenodd"
    clip-rule="evenodd"
    d="M80.2303 19.9999C81.0885 19.9999 81.8642 19.8544 82.5551 19.5654C83.246 19.2765 83.7697 18.8788 84.1238 18.3747V19.7197H88.1564V10.868C88.1564 8.96252 87.611 7.46982 86.5182 6.38563C85.4252 5.30144 83.7414 4.76043 81.4622 4.76043C80.4367 4.76043 79.4264 4.91904 78.4378 5.23625C77.447 5.55563 76.7192 5.92722 76.252 6.35741V10.2792C76.7561 9.66213 77.447 9.17326 78.3248 8.80821C79.2026 8.44538 80.1478 8.2629 81.0429 8.2629C81.9381 8.2629 82.6746 8.478 83.2547 8.9082C83.8348 9.33622 84.1238 9.89675 84.1238 10.5877V11.233C83.3025 10.9158 82.2857 10.7572 81.0712 10.7572C79.2982 10.7572 77.8403 11.1591 76.7018 11.9608C75.5633 12.7648 74.994 13.9033 74.994 15.3786C74.994 16.3302 75.2352 17.1581 75.7219 17.8577C76.2064 18.5573 76.8473 19.0896 77.6404 19.4546C78.4335 19.8175 79.296 19.9999 80.2303 19.9999ZM81.3775 16.667C80.6866 16.667 80.1282 16.541 79.698 16.289H79.6958C79.2656 16.0369 79.0505 15.6502 79.0505 15.183C79.0505 14.7159 79.2787 14.353 79.7371 14.0901C80.1955 13.8272 80.7691 13.6969 81.46 13.6969C81.9837 13.6969 82.4638 13.736 82.9027 13.8098C83.3416 13.8859 83.748 14.0163 84.1216 14.2031V15.6871C83.8414 16.0043 83.4503 16.2477 82.9462 16.4149C82.4421 16.5822 81.9185 16.667 81.3775 16.667Z"
    fill="url(#paint0_linear)"
    style="mix-blend-mode: overlay"
  />
  <defs>
    <linearGradient
      id="paint0_linear"
      x1="242"
      y1="-112"
      x2="71.5"
      y2="180"
      gradientUnits="userSpaceOnUse"
    >
      <stop stop-color="#fff" stop-opacity=".65" />
      <stop offset="1" stop-color="#fff" stop-opacity="0" />
    </linearGradient>
  </defs>
</svg>
