<svg
  width="1305"
  height="145"
  viewBox="0 0 1305 145"
  fill="none"
  xmlns="http://www.w3.org/2000/svg"
>
  <g clip-path="url(#clip0)">
    <path
      fill-rule="evenodd"
      clip-rule="evenodd"
      d="M75.4 108.75C86.9275 108.75 95.845 106.575 102.152 101.573L122.597 129.993C109.838 140.433 92.51 145 72.5 145C30.45 145 0 114.55 0 72.5C0 30.45 30.45 0 72.5 0C92.1475 0 109.185 4.4225 121.8 14.4275L101.717 43.1375C95.4825 38.3525 86.6375 36.25 75.4 36.25C55.1 36.25 42.05 53.2875 42.05 72.5C42.05 91.7125 55.1 108.75 75.4 108.75ZM567.457 40.3825C574.417 37.9175 586.597 34.8 603.925 34.8C637.275 34.8 654.675 52.2 654.675 72.5C654.675 73.5037 654.6 74.4701 654.454 75.4H654.675V142.1H621.325V130.57C614.865 139.25 603.637 145 590.875 145C569.125 145 554.625 133.4 554.625 110.562C554.625 92.8 567.675 76.85 590.875 76.85C606.825 76.85 621.325 84.1 621.325 84.1L621.325 81.2C621.252 68.15 609.652 61.625 590.875 63.8C584.35 64.525 578.332 65.685 573.402 67.4975L567.457 40.3825ZM602.475 119.625C593.775 119.625 589.425 115.275 589.425 108.025C589.425 100.775 595.225 96.425 602.475 96.425C610.597 96.425 614.928 97.6887 619.951 99.1544L620.437 99.2964L620.733 99.3824L621.035 99.47C621.035 109.475 615.525 119.625 602.475 119.625ZM182.772 34.8C150.8 34.8 126.222 57.9275 126.222 89.9C126.222 121.872 150.8 145 182.772 145C214.745 145 239.25 121.872 239.322 89.9C239.395 57.9275 214.745 34.8 182.772 34.8ZM182.7 113.1C170.375 113.1 161.675 103.675 161.675 89.9C161.675 76.85 170.375 66.7 182.7 66.7C195.025 66.7 203.725 76.85 203.725 89.9C203.725 102.95 195.025 113.1 182.7 113.1ZM284.2 50.46C291.74 41.47 303.195 34.8 315.375 34.8C335.675 34.8 348 49.3 348 68.15V142.1H314.65V118.9V101.5V81.2H314.577C314.215 73.1525 307.617 66.7 299.425 66.7C291.305 66.7 284.635 73.1525 284.272 81.2H284.2V91.1325V118.9V142.1H250.85V37.7H284.2V50.46ZM537.805 109.692C533.165 111.795 527.945 113.1 523.45 113.1C511.125 113.1 504.6 107.3 504.6 97.3675V97.15V82.505V67.425V66.7H535.05L536.5 37.7H504.6V9.425H471.25V114.55C471.83 132.457 486.257 145 512.212 145C527.292 145 540.125 139.852 547.012 136.445L537.805 109.692ZM552.45 133.4C552.45 133.4 552.377 133.472 552.16 133.617L552.232 132.747L552.45 133.4ZM359.6 130.5L371.2 110.2C383.307 118.102 400.2 122.525 410.857 121.002C414.845 120.422 416.875 117.45 416.875 115.275C416.875 113.1 415.062 109.33 404.985 106.647C379.61 100.122 364.022 92.945 364.022 71.195V70.8325C364.022 47.705 381.64 34.8 407.74 34.8C424.27 34.8 440.655 39.2225 452.762 46.9075L440.8 66.7C430.142 60.5375 416.15 55.825 407.522 57.3475C403.535 58.0725 401.65 61.625 401.65 63.8C401.65 66.7 403.897 70.2525 413.975 72.935C439.35 79.46 454.575 86.7825 454.575 108.387V108.75C454.575 131.66 437.465 145 410.277 145C390.847 145 373.955 140.505 359.6 130.5Z"
      fill="var(--color-bg-link)"
    />
    <path
      fill-rule="evenodd"
      clip-rule="evenodd"
      d="M75.4 108.75C86.9275 108.75 95.845 106.575 102.152 101.573L122.597 129.993C109.838 140.433 92.51 145 72.5 145C30.45 145 0 114.55 0 72.5C0 30.45 30.45 0 72.5 0C92.1475 0 109.185 4.4225 121.8 14.4275L101.717 43.1375C95.4825 38.3525 86.6375 36.25 75.4 36.25C55.1 36.25 42.05 53.2875 42.05 72.5C42.05 91.7125 55.1 108.75 75.4 108.75ZM567.457 40.3825C574.417 37.9175 586.597 34.8 603.925 34.8C637.275 34.8 654.675 52.2 654.675 72.5C654.675 73.5037 654.6 74.4701 654.454 75.4H654.675V142.1H621.325V130.57C614.865 139.25 603.637 145 590.875 145C569.125 145 554.625 133.4 554.625 110.562C554.625 92.8 567.675 76.85 590.875 76.85C606.825 76.85 621.325 84.1 621.325 84.1L621.325 81.2C621.252 68.15 609.652 61.625 590.875 63.8C584.35 64.525 578.332 65.685 573.402 67.4975L567.457 40.3825ZM602.475 119.625C593.775 119.625 589.425 115.275 589.425 108.025C589.425 100.775 595.225 96.425 602.475 96.425C610.597 96.425 614.928 97.6887 619.951 99.1544L620.437 99.2964L620.733 99.3824L621.035 99.47C621.035 109.475 615.525 119.625 602.475 119.625ZM182.772 34.8C150.8 34.8 126.222 57.9275 126.222 89.9C126.222 121.872 150.8 145 182.772 145C214.745 145 239.25 121.872 239.322 89.9C239.395 57.9275 214.745 34.8 182.772 34.8ZM182.7 113.1C170.375 113.1 161.675 103.675 161.675 89.9C161.675 76.85 170.375 66.7 182.7 66.7C195.025 66.7 203.725 76.85 203.725 89.9C203.725 102.95 195.025 113.1 182.7 113.1ZM284.2 50.46C291.74 41.47 303.195 34.8 315.375 34.8C335.675 34.8 348 49.3 348 68.15V142.1H314.65V118.9V101.5V81.2H314.577C314.215 73.1525 307.617 66.7 299.425 66.7C291.305 66.7 284.635 73.1525 284.272 81.2H284.2V91.1325V118.9V142.1H250.85V37.7H284.2V50.46ZM537.805 109.692C533.165 111.795 527.945 113.1 523.45 113.1C511.125 113.1 504.6 107.3 504.6 97.3675V97.15V82.505V67.425V66.7H535.05L536.5 37.7H504.6V9.425H471.25V114.55C471.83 132.457 486.257 145 512.212 145C527.292 145 540.125 139.852 547.012 136.445L537.805 109.692ZM552.45 133.4C552.45 133.4 552.377 133.472 552.16 133.617L552.232 132.747L552.45 133.4ZM359.6 130.5L371.2 110.2C383.307 118.102 400.2 122.525 410.857 121.002C414.845 120.422 416.875 117.45 416.875 115.275C416.875 113.1 415.062 109.33 404.985 106.647C379.61 100.122 364.022 92.945 364.022 71.195V70.8325C364.022 47.705 381.64 34.8 407.74 34.8C424.27 34.8 440.655 39.2225 452.762 46.9075L440.8 66.7C430.142 60.5375 416.15 55.825 407.522 57.3475C403.535 58.0725 401.65 61.625 401.65 63.8C401.65 66.7 403.897 70.2525 413.975 72.935C439.35 79.46 454.575 86.7825 454.575 108.387V108.75C454.575 131.66 437.465 145 410.277 145C390.847 145 373.955 140.505 359.6 130.5Z"
      fill="url(#paint0_linear)"
      style="mix-blend-mode: overlay"
    />
    <path
      fill-rule="evenodd"
      clip-rule="evenodd"
      d="M770.53 20.01C788.293 20.01 803.155 30.015 806.635 47.995V48.0675H827.878C823.165 18.27 799.82 0.869995 770.385 0.869995C734.425 0.869995 707.818 27.84 707.818 72.355C707.818 116.87 734.208 143.84 770.385 143.84C800.98 143.84 823.31 124.7 827.878 97.15L806.707 97.0775C803.082 114.913 788.148 124.7 770.53 124.7C746.605 124.7 728.625 106.43 728.625 72.355C728.625 38.57 746.533 20.01 770.53 20.01ZM851.367 141.955H871.667H871.812V79.9674C871.812 63.2924 882.325 53.7949 896.825 53.7949C910.817 53.7949 919.155 62.7124 919.155 78.0099V141.955H939.455V75.5449C939.455 49.5174 925.172 36.1774 903.712 36.1774C887.4 36.1774 877.685 43.2099 872.755 54.5199H871.45V2.75495H851.367V141.955ZM961.64 112.448C961.64 88.74 981.867 83.5925 1001.66 81.2725C1003.85 81.0192 1005.88 80.7974 1007.77 80.5915C1022.11 79.029 1028.05 78.3814 1028.05 71.8475V71.34C1028.05 59.5225 1021.31 52.635 1008.18 52.635C994.555 52.635 986.942 59.74 983.897 67.2075L964.83 62.8575C971.645 43.8625 989.045 36.1775 1007.89 36.1775C1024.5 36.1775 1048.42 42.195 1048.42 72.5725V141.883H1028.56V127.6H1027.76C1023.92 135.43 1014.13 144.203 996.875 144.203C977.082 144.275 961.64 132.965 961.64 112.448ZM1028.12 104.328V90.8425C1025.45 93.5191 1011.9 95.2693 1004.64 96.2071C1004.04 96.2854 1003.47 96.358 1002.96 96.425C991.22 98.02 981.577 101.863 981.577 112.738C981.577 122.815 989.842 127.963 1001.37 127.963C1018.26 127.963 1028.12 116.653 1028.12 104.328ZM1095.11 37.555H1075.54V141.955H1095.84V78.2275C1095.84 64.5975 1106.35 54.7375 1120.78 54.7375C1124.98 54.7375 1129.77 55.4625 1131.36 55.97V36.54C1129.33 36.25 1125.34 36.0325 1122.73 36.0325C1110.48 36.0325 1099.97 42.92 1096.2 54.1575H1095.11V37.555ZM1203.79 53.8675H1182.47V111.287C1182.47 123.032 1188.42 125.207 1194.94 125.207C1198.14 125.207 1200.64 124.651 1201.97 124.356L1202.05 124.337L1205.75 141.157C1203.35 142.027 1199 143.26 1192.55 143.332C1176.53 143.695 1162.03 134.487 1162.1 115.565V53.9399H1146.8V37.5549H1162.1V12.5424H1182.4V37.5549H1203.79V53.8675ZM1263.46 52.345C1276.14 52.345 1281.94 59.305 1284.34 66.3375L1302.82 63.0025C1298.62 46.7625 1285.86 36.1775 1263.31 36.1775C1239.75 36.1775 1223 48.6475 1223 67.135C1223 81.925 1231.99 91.785 1251.57 96.135L1269.26 99.9775C1279.26 102.225 1283.97 106.72 1283.97 113.245C1283.97 121.365 1275.35 127.673 1262.01 127.673C1249.9 127.673 1242.07 122.453 1239.6 112.158L1219.96 115.13C1223.36 133.618 1238.73 143.985 1262.15 143.985C1287.38 143.985 1304.85 130.645 1304.85 111.723C1304.85 97.005 1295.43 87.87 1276.29 83.4475L1259.69 79.6775C1248.23 76.995 1243.23 73.1525 1243.3 66.0475C1243.23 58.0725 1251.93 52.345 1263.46 52.345Z"
      fill="var(--color-typo-primary)"
    />
  </g>
  <defs>
    <linearGradient
      id="paint0_linear"
      x1="487.363"
      y1="-225.556"
      x2="143.995"
      y2="362.501"
      gradientUnits="userSpaceOnUse"
    >
      <stop stop-color="white" stop-opacity="0.6" />
      <stop offset="1" stop-color="white" stop-opacity="0" />
    </linearGradient>
    <clipPath id="clip0">
      <rect width="1304.78" height="145" fill="white" />
    </clipPath>
  </defs>
</svg>
