<svg viewBox="0 0 264 60" fill="none" xmlns="http://www.w3.org/2000/svg">
  <g clip-path="url(#clip0)" fill="var(--logo-color, rgb(0 120 210))">
    <path
      d="M157.05 26.642c1.067-5.07 1.601-6.405 2.669-7.472.8-.8 1.734-1.201 3.068-1.201 1.201 0 2.135.4 2.802 1.067.401.534.668 1.468.668 2.402 0 .4 0 .667-.134 1.067h-2.535c.134-.4.134-.667.134-.934 0-.8-.267-1.334-1.201-1.334-.534 0-.935.134-1.201.534-.668.667-.935 1.734-1.869 5.87-.4 2.136-.666 3.87-.666 4.938 0 .934.399 1.468 1.201 1.468.533 0 .933-.267 1.334-.668.4-.4.667-.934.8-1.734h2.535c-.4 1.734-.933 2.802-1.868 3.602-.8.668-1.601.934-3.068.934-1.468 0-2.402-.533-2.936-1.334-.401-.667-.533-1.334-.533-2.268 0-1.068.266-2.669.8-4.937zM170.393 20.504h-2.668l.4-2.269h7.872l-.4 2.269h-2.668l-2.936 14.544h-2.535l2.935-14.544zM177.864 18.235h3.87c1.334 0 2.135.267 2.669.934.534.534.8 1.335.8 2.269 0 .534 0 1.2-.133 2.001-.801 4.137-2.402 5.204-4.938 5.204h-1.734l-1.334 6.538h-2.535l3.335-16.946zm2.268 8.006c1.335 0 1.869-.8 2.403-2.935.133-.534.133-1.068.133-1.468 0-.934-.4-1.468-1.467-1.468h-1.335l-1.201 5.738h1.467v.133zM188.273 18.235h6.805l-.533 2.269h-4.137l-1.067 4.937h3.602l-.4 2.268h-3.603l-1.067 5.07h4.27l-.534 2.269h-6.672l3.336-16.813zM197.346 18.235h2.268l1.334 8.674 4.805-8.674h2.268l-3.336 16.813h-2.536l2.002-10.408-3.469 6.672h-1.334l-.801-6.805-2.135 10.54h-2.535l3.469-16.812zM210.822 18.235h2.403l-2.002 10.141 5.738-10.14h2.134l-3.335 16.812h-2.535l2.001-10.141-5.605 10.14h-2.268l3.469-16.812zM221.898 18.235h2.268l1.334 8.674 4.804-8.674h2.268l-3.336 16.813h-2.535l2.135-10.408-3.603 6.672h-1.334l-.8-6.805-2.136 10.54h-2.401l3.336-16.812zM233.239 26.642c1.068-5.07 1.601-6.405 2.668-7.472.801-.8 1.735-1.201 3.07-1.201 1.2 0 2.268.4 2.802 1.067.4.534.667 1.468.667 2.402 0 .4 0 .667-.134 1.067h-2.402c.134-.4.134-.667.134-.934 0-.8-.267-1.334-1.201-1.334-.534 0-.934.134-1.201.534-.667.667-.934 1.734-1.868 5.87-.4 2.136-.667 3.87-.667 4.938 0 .934.401 1.468 1.201 1.468.534 0 .934-.267 1.334-.668.401-.4.667-.934.8-1.734h2.536c-.4 1.734-.934 2.802-1.868 3.602-.668.668-1.601.934-3.069.934s-2.402-.533-2.935-1.334c-.401-.667-.534-1.334-.534-2.268 0-1.068.267-2.669.667-4.937zM245.381 27.442c-.934-.534-1.201-1.601-1.201-2.668 0-.4.134-.934.267-1.602.801-4.136 2.135-4.937 5.071-4.937h4.002l-3.335 16.813h-2.536l1.468-7.072h-1.334l-3.603 7.072h-2.935l4.136-7.606zm1.201-2.935c0 1.067.401 1.467 1.468 1.467h1.334l1.068-5.47h-1.335c-1.334 0-1.868.667-2.268 2.668-.133.4-.267.934-.267 1.335zM155.048 41.853h2.536l-3.336 16.813h-2.535l3.335-16.813zm.935 8.14l5.203-8.14h2.802l-5.337 8.14 2.269 8.673h-2.802l-2.135-8.673zM169.993 41.853h7.472l-.401 2.269h-4.936l-.801 4.27h1.335c1.333 0 2.134.266 2.667.934.535.533.802 1.334.802 2.268 0 .534-.134 1.334-.134 2.002-.8 4.136-2.402 5.07-4.937 5.07h-4.27l3.203-16.813zm.934 14.545c1.334 0 1.867-.801 2.401-2.936.134-.4.134-1.067.134-1.468 0-.934-.401-1.467-1.468-1.467h-1.334l-1.201 5.737h1.468v.134zM180.934 42.787c.801-.8 1.735-1.201 3.069-1.201 1.468 0 2.402.534 2.936 1.334.4.667.533 1.201.533 2.269 0 1.067-.267 2.668-.8 4.937-1.067 5.07-1.468 6.404-2.669 7.472-.801.8-1.735 1.2-3.069 1.2-1.601 0-2.402-.533-2.935-1.334-.401-.667-.534-1.2-.534-2.268 0-1.067.267-2.669.667-4.937 1.201-5.204 1.735-6.405 2.802-7.472zm4.136 2.535c0-.8-.267-1.468-1.2-1.468-.534 0-.801.134-1.201.534-.668.667-.934 1.735-1.735 5.871-.4 2.135-.8 3.87-.8 4.937 0 .8.267 1.468 1.2 1.468.534 0 .801-.134 1.201-.534.667-.667.934-1.735 1.735-5.871.533-2.135.8-4.003.8-4.937zM186.404 56.398h.267c1.334 0 2.269-.801 3.202-5.204l1.868-9.34h7.606l-3.336 16.812h-2.535l2.936-14.544h-2.669l-1.468 7.205c-1.334 6.405-2.535 7.472-5.471 7.472h-.8l.4-2.401zM202.15 41.853h2.536l-1.335 6.539h1.335c1.334 0 2.134.266 2.667.934.534.533.802 1.334.802 2.268 0 .534-.134 1.334-.134 2.002-.8 4.136-2.402 5.07-4.937 5.07h-4.27l3.336-16.813zm.934 14.545c1.334 0 1.868-.801 2.402-2.936.133-.4.133-1.067.133-1.468 0-.934-.4-1.467-1.468-1.467h-1.334l-1.201 5.737h1.468v.134zM212.557 41.853h2.535l-2.935 14.545h2.802l2.936-14.545h2.535l-2.936 14.545h2.802l2.803-14.545h2.535l-3.337 16.813h-13.075l3.335-16.813zM228.436 41.853h6.805l-.534 2.135h-4.136l-1.068 5.07h3.603l-.4 2.27h-3.603l-1.067 5.07h4.27l-.534 2.268h-6.671l3.335-16.813zM237.509 41.853h2.268l1.334 8.674 4.803-8.674h2.27l-3.337 16.813h-2.535l2.002-10.541-3.47 6.805h-1.334l-.801-6.805-2.134 10.54h-2.535l3.469-16.812zM247.65 56.398c1.335 0 2.001-.4 2.536-1.735l.666-1.468-1.201-11.342h2.536l.4 8.006 3.603-8.006h2.669l-6.805 13.61c-1.334 2.67-1.868 3.203-4.938 3.203l.534-2.268zM258.191 55.73h2.669l-.534 2.936h-2.668l.533-2.936zm2.802-13.877h2.669l-2.535 12.143h-2.402l2.268-12.143z"
    />
    <path
      fill-rule="evenodd"
      clip-rule="evenodd"
      d="M99.407 35.983c.534 0 .801-.4.801-.801v-13.61c0-.4-.401-.667-.8-.667-.401 0-.802.267-.802.667v13.61c0 .4.4.8.801.8zm1.601-17.747c2.669 0 2.936 2.135 2.936 3.603v12.943c0 1.468-.134 3.602-2.936 3.602h-3.202c-2.669 0-2.936-2.135-2.936-3.602V21.839c0-1.468.134-3.603 2.936-3.603h3.202zm-60.445 0h7.473v2.535h-3.47v17.747h-3.87V18.236h-.133zm10.008 0h6.138l2.001 20.282h-3.736l-.4-5.337h-1.868l-.4 5.337h-3.737l2.002-20.282zm3.736 12.543l-.667-10.141h-.267l-.667 10.14h1.6zm9.874.533v3.87c0 .534.4.667.667.667.4 0 .667-.267.667-.667v-4.67c0-.667-.133-1.335-1.601-1.335h-1.601V26.91h1.6c1.068 0 1.469-.267 1.469-1.468v-4.003c0-.4-.267-.667-.667-.667-.267 0-.668.134-.668.667v3.336h-3.87v-2.802c0-1.468.134-3.603 2.936-3.603h3.336c2.669 0 2.936 2.135 2.936 3.603v3.203c0 2.134-1.468 2.802-2.669 2.802v.267c2.669 0 2.669 2.001 2.669 2.802v4.136c0 1.468-.134 3.603-2.936 3.603h-3.202c-2.669 0-2.936-2.135-2.936-3.603v-3.47h3.87v-.4zm7.739-13.076h8.94v20.282h-3.603V20.77h-1.734v17.747H71.92V18.236zm11.742 0H89.8c2.668 0 3.203 2.135 3.203 3.603v6.138c0 1.467-.401 3.602-3.203 3.602H87.53v6.939h-3.87V18.236zm4.937 11.075c.4 0 .667-.4.667-1.067v-6.539c0-.667-.267-1.067-.667-1.067H87.53v8.673H88.6zm27.754-11.075h5.07v20.282h-3.869V25.842h-.134l-2.001 12.676h-3.069l-2.002-12.676h-.133v12.676h-3.87V18.236h5.071l2.535 14.277 2.402-14.277zm-84.196 2.002c0-2.002-.133-5.471-1.2-9.207-1.068-3.603-2.936-7.072-3.203-7.606-.267.4-1.868 3.202-3.203 7.606-.4 1.334-1.067 4.136-1.067 6.938-.133 3.336.267 6.672.534 7.74 0-1.068 0-4.804.667-7.873.667-3.07 2.001-6.672 3.069-8.406 1.2 1.868 2.668 6.004 3.069 8.406.534 2.402.8 5.604.667 7.872.4-1.2.667-3.469.667-5.47zm-4.27 15.745c.668-1.201 1.735-3.737 1.601-6.939-.133-3.336-1.2-5.738-1.6-6.271-.401.534-1.735 3.336-1.602 6.538 0 3.336.934 5.47 1.601 6.672zm4.67-24.819c1.201 5.337 1.201 8.673.668 12.41-.934 6.804-4.003 12.008-5.338 13.743-.934-1.201-2.268-3.603-3.202-5.871 0 0-1.735-4.27-2.268-8.406-.534-4.137-.267-8.407 1.067-13.21 1.2-4.27 3.736-8.14 4.403-9.207.4.8 3.47 5.204 4.67 10.541zm2.536 27.22v13.877c-3.737 3.87-8.94 6.405-14.811 6.405C9.073 58.666 0 49.593 0 38.518s9.073-20.149 20.282-20.149v15.212c-2.936 0-5.871 1.067-8.006 3.336a8.564 8.564 0 00-1.335 1.734c-2.935 4.403-2.535 10.408 1.335 14.277 2.268 2.269 5.07 3.336 8.006 3.336 2.935 0 5.737-1.067 8.006-3.336 2.268-2.268 2.268-5.87 0-8.005-2.269-2.269-5.871-2.269-8.006 0v-6.405h14.81v-.134zm82.728 14.544c0-1.734-.801-2.268-2.803-2.268h-.4v-3.336h-2.001v8.807h2.001c2.269 0 3.069-.4 3.069-2.269v-.934h.134zm-17.213-5.604h-5.204v1.601h1.734v7.072h2.002v-7.072h1.601v-1.6h-.133zM84.863 50.26c0-1.735-.934-2.268-2.936-2.268v-.668h-2.001v.668c-2.002 0-2.936.4-2.936 2.268v2.802c0 1.735.934 2.268 2.936 2.268v.934h2.001v-.934c2.002 0 2.936-.533 2.936-2.268V50.26zm-18.547-2.936h-4.937v8.807h4.937V54.53h-2.802v-2.135h2.535v-1.602h-2.535V49.06h2.802v-1.735zm-17.08 0h-2.001v3.336h-1.068v-3.336h-2.001v8.807h2.002v-3.87h1.067v3.87h2.001v-8.807zm72.187 11.342h-80.86V45.189h80.86v13.477zM78.992 50.26c0-.534.133-.667.667-.667h.267v4.136h-.267c-.4 0-.667-.133-.667-.667V50.26zm36.16 2.001c.4 0 .534.134.534.667v1.068c0 .534-.134.667-.534.667h-.401v-2.268h.401v-.134zm-32.824-2.668c.4 0 .667.133.667.667v2.802c0 .534-.134.667-.667.667h-.267v-4.136h.267z"
    />
    <path
      fill-rule="evenodd"
      clip-rule="evenodd"
      d="M116.353 18.235h5.07v20.149h-3.869V25.708h-.134l-2.001 12.676h-3.203l-2.001-12.676h-.134v12.676h-3.869V18.235h5.07l2.536 14.144 2.535-14.144z"
    />
    <path
      d="M136.501 16.901l4.403 21.483L136.501 60h2.001l4.404-21.616-4.404-21.483h-2.001z"
    />
  </g>
  <defs>
    <clipPath id="clip0"><path fill="#fff" d="M0 0h263.662v60H0z" /></clipPath>
  </defs>
</svg>
